<?xml version="1.0" encoding="UTF-8"?>
<svg id="Capa_2" data-name="Capa 2" xmlns="http://www.w3.org/2000/svg" xmlns:xlink="http://www.w3.org/1999/xlink" viewBox="0 0 228 278">
  <defs>
    <style>
      .cls-1 {
        fill: #fff;
        filter: url(#outer-glow-1);
      }

      .cls-1, .cls-2 {
        stroke-width: 0px;
      }

      .cls-2 {
        fill: #1d1d1b;
      }
    </style>
    <filter id="outer-glow-1" filterUnits="userSpaceOnUse">
      <feOffset dx="0" dy="0"/>
      <feGaussianBlur result="blur" stdDeviation="5"/>
      <feFlood flood-color="#000" flood-opacity=".48"/>
      <feComposite in2="blur" operator="in"/>
      <feComposite in="SourceGraphic"/>
    </filter>
  </defs>
  <g id="Capa_1-2" data-name="Capa 1">
    <g>
      <rect class="cls-1" x="15.22" y="15.22" width="197.45" height="247.49" rx="8" ry="8"/>
      <g>
        <path class="cls-2" d="m34.5,46.54v-8.57h.52v8h3.57v.56h-4.1Z"/>
        <path class="cls-2" d="m44.14,43.35c0,1.04-.22,1.85-.66,2.43-.44.58-1.05.88-1.83.88-.49,0-.92-.13-1.29-.4-.37-.27-.66-.66-.86-1.16-.2-.5-.3-1.09-.3-1.75,0-1.04.22-1.85.66-2.43.44-.58,1.05-.87,1.82-.87s1.37.29,1.8.88c.44.59.65,1.39.65,2.42Zm-4.4,0c0,.88.17,1.56.5,2.05s.81.74,1.43.74,1.09-.25,1.43-.74c.34-.49.51-1.17.51-2.05s-.17-1.56-.51-2.04c-.34-.48-.82-.73-1.43-.73s-1.09.24-1.42.72-.5,1.17-.5,2.05Z"/>
        <path class="cls-2" d="m47.65,40.05c.24,0,.49.03.76.08l-.1.56c-.23-.07-.47-.1-.72-.1-.47,0-.86.23-1.17.69s-.46,1.04-.46,1.75v3.52h-.51v-6.37h.43l.05,1.15h.04c.23-.47.47-.8.73-.99s.57-.28.94-.28Z"/>
        <path class="cls-2" d="m51.56,46.66c-.81,0-1.44-.29-1.89-.86s-.68-1.37-.68-2.4.22-1.83.66-2.44,1.03-.92,1.77-.92c.66,0,1.17.26,1.55.79.38.52.57,1.23.57,2.13v.47h-4.02c0,.88.19,1.54.54,2s.85.69,1.5.69c.32,0,.6-.03.84-.08s.55-.16.92-.33v.53c-.31.16-.6.26-.87.32-.27.06-.56.08-.88.08Zm-.15-6.09c-.54,0-.97.2-1.29.61-.33.4-.51.99-.57,1.75h3.45c0-.74-.14-1.32-.42-1.73s-.67-.62-1.16-.62Z"/>
        <path class="cls-2" d="m61.8,46.54v-4.18c0-.62-.11-1.07-.32-1.36s-.54-.43-.97-.43c-.57,0-.99.18-1.27.54s-.41.92-.41,1.69v3.73h-.52v-4.35c0-1.07-.43-1.61-1.29-1.61-.58,0-1.01.19-1.28.58s-.4,1.01-.4,1.87v3.52h-.51v-6.37h.42l.11.87h.03c.15-.32.37-.56.66-.74.28-.17.6-.26.94-.26.88,0,1.44.38,1.69,1.13h.02c.18-.36.42-.64.73-.84.31-.2.65-.29,1.04-.29.61,0,1.07.19,1.37.56.3.37.46.96.46,1.77v4.17h-.5Z"/>
        <path class="cls-2" d="m74.88,38.4c0-.38.11-.56.32-.56.11,0,.19.05.25.15s.09.24.09.42-.03.31-.09.42-.14.15-.25.15c-.21,0-.32-.19-.32-.57Zm.58,8.14h-.51v-6.37h.51v6.37Z"/>
        <path class="cls-2" d="m79.48,46.66c-.86,0-1.48-.37-1.88-1.1h-.04l.02.49c.01.29.02.61.02.95v2.43h-.51v-9.25h.43l.1.91h.03c.38-.69,1-1.03,1.84-1.03.75,0,1.33.28,1.72.85.4.56.59,1.39.59,2.46s-.21,1.86-.62,2.43c-.42.58-.98.86-1.7.86Zm-.01-.52c.57,0,1.01-.24,1.33-.73.31-.48.47-1.16.47-2.03,0-1.87-.59-2.81-1.77-2.81-.65,0-1.13.2-1.43.61s-.46,1.07-.46,2v.19c0,1,.15,1.71.44,2.13.29.43.77.64,1.43.64Z"/>
        <path class="cls-2" d="m86.57,44.88c0,.57-.19,1.01-.57,1.32-.38.31-.92.46-1.62.46-.75,0-1.34-.13-1.77-.39v-.63c.56.32,1.15.48,1.77.48.55,0,.97-.1,1.25-.31s.43-.49.43-.83c0-.32-.11-.59-.34-.81-.23-.22-.6-.43-1.12-.64-.56-.23-.95-.43-1.17-.59s-.4-.35-.51-.56-.17-.46-.17-.76c0-.48.17-.85.53-1.13s.84-.42,1.47-.42,1.17.13,1.71.39l-.19.53c-.55-.26-1.05-.39-1.52-.39s-.82.09-1.08.26-.4.41-.4.71c0,.33.1.6.31.8s.61.42,1.21.67c.5.21.87.39,1.1.56.23.17.4.35.51.57.12.21.17.46.17.74Z"/>
        <path class="cls-2" d="m88.22,40.17v4.12c0,.64.12,1.11.35,1.4.24.29.6.44,1.1.44.66,0,1.15-.19,1.46-.57s.47-1.01.47-1.87v-3.52h.5v6.37h-.43l-.09-.88h-.03c-.36.66-1.01,1-1.93,1-1.27,0-1.9-.78-1.9-2.33v-4.16h.5Z"/>
        <path class="cls-2" d="m100.7,46.54v-4.18c0-.62-.11-1.07-.32-1.36s-.54-.43-.97-.43c-.57,0-.99.18-1.27.54s-.41.92-.41,1.69v3.73h-.52v-4.35c0-1.07-.43-1.61-1.29-1.61-.58,0-1.01.19-1.28.58s-.4,1.01-.4,1.87v3.52h-.51v-6.37h.42l.11.87h.03c.15-.32.37-.56.66-.74.28-.17.6-.26.94-.26.88,0,1.44.38,1.69,1.13h.02c.18-.36.42-.64.73-.84.31-.2.65-.29,1.04-.29.61,0,1.07.19,1.37.56.3.37.46.96.46,1.77v4.17h-.5Z"/>
        <path class="cls-2" d="m115.89,40.05c.4,0,.75.08,1.05.25s.56.46.79.86h.03c-.02-.49-.03-.97-.03-1.45v-2.29h.5v9.12h-.33l-.13-.97h-.04c-.42.73-1.03,1.09-1.83,1.09s-1.36-.27-1.76-.82c-.41-.55-.61-1.34-.61-2.39,0-1.1.2-1.94.61-2.53.4-.58.99-.87,1.76-.87Zm0,.53c-.61,0-1.07.24-1.37.73s-.46,1.2-.46,2.13c0,1.8.61,2.71,1.84,2.71.63,0,1.09-.21,1.38-.63s.44-1.11.44-2.07v-.1c0-.98-.14-1.69-.43-2.12s-.76-.65-1.4-.65Z"/>
        <path class="cls-2" d="m124.48,43.35c0,1.04-.22,1.85-.66,2.43-.44.58-1.05.88-1.83.88-.49,0-.92-.13-1.29-.4-.37-.27-.66-.66-.86-1.16-.2-.5-.3-1.09-.3-1.75,0-1.04.22-1.85.66-2.43.44-.58,1.05-.87,1.82-.87s1.37.29,1.8.88c.44.59.65,1.39.65,2.42Zm-4.4,0c0,.88.17,1.56.5,2.05s.81.74,1.43.74,1.09-.25,1.43-.74c.34-.49.51-1.17.51-2.05s-.17-1.56-.51-2.04c-.34-.48-.82-.73-1.43-.73s-1.09.24-1.42.72-.5,1.17-.5,2.05Z"/>
        <path class="cls-2" d="m126.3,46.54h-.51v-9.12h.51v9.12Z"/>
        <path class="cls-2" d="m132.55,43.35c0,1.04-.22,1.85-.66,2.43-.44.58-1.05.88-1.83.88-.49,0-.92-.13-1.29-.4-.37-.27-.66-.66-.86-1.16-.2-.5-.3-1.09-.3-1.75,0-1.04.22-1.85.66-2.43.44-.58,1.05-.87,1.82-.87s1.37.29,1.8.88c.44.59.65,1.39.65,2.42Zm-4.4,0c0,.88.17,1.56.5,2.05s.81.74,1.43.74,1.09-.25,1.43-.74c.34-.49.51-1.17.51-2.05s-.17-1.56-.51-2.04c-.34-.48-.82-.73-1.43-.73s-1.09.24-1.42.72-.5,1.17-.5,2.05Z"/>
        <path class="cls-2" d="m136.05,40.05c.24,0,.49.03.76.08l-.1.56c-.23-.07-.47-.1-.72-.1-.47,0-.86.23-1.17.69s-.46,1.04-.46,1.75v3.52h-.51v-6.37h.43l.05,1.15h.04c.23-.47.47-.8.73-.99s.57-.28.94-.28Z"/>
        <path class="cls-2" d="m152.24,44.88c0,.57-.19,1.01-.57,1.32-.38.31-.92.46-1.62.46-.75,0-1.34-.13-1.77-.39v-.63c.56.32,1.15.48,1.77.48.55,0,.97-.1,1.25-.31s.43-.49.43-.83c0-.32-.11-.59-.34-.81-.23-.22-.6-.43-1.12-.64-.56-.23-.95-.43-1.17-.59s-.4-.35-.51-.56-.17-.46-.17-.76c0-.48.17-.85.53-1.13s.84-.42,1.47-.42,1.17.13,1.71.39l-.19.53c-.55-.26-1.05-.39-1.52-.39s-.82.09-1.08.26-.4.41-.4.71c0,.33.1.6.31.8s.61.42,1.21.67c.5.21.87.39,1.1.56.23.17.4.35.51.57.12.21.17.46.17.74Z"/>
        <path class="cls-2" d="m153.37,38.4c0-.38.11-.56.32-.56.11,0,.19.05.25.15s.09.24.09.42-.03.31-.09.42-.14.15-.25.15c-.21,0-.32-.19-.32-.57Zm.58,8.14h-.51v-6.37h.51v6.37Z"/>
        <path class="cls-2" d="m157.06,46.14c.32,0,.6-.03.84-.09v.47c-.25.09-.53.14-.85.14-.49,0-.86-.15-1.09-.45-.23-.3-.35-.77-.35-1.42v-4.11h-.83v-.34l.83-.26.26-1.44h.26v1.54h1.64v.5h-1.64v4.03c0,.49.08.85.23,1.08s.39.35.71.35Z"/>
        <path class="cls-2" d="m173.33,46.54l-.13-1.01h-.04c-.28.41-.57.7-.86.87-.3.17-.65.25-1.05.25-.55,0-.97-.16-1.28-.48s-.46-.76-.46-1.33c0-.62.23-1.1.68-1.45.45-.34,1.11-.53,1.97-.54l1.06-.04v-.42c0-.61-.11-1.06-.32-1.37-.22-.31-.56-.46-1.04-.46-.52,0-1.05.16-1.61.49l-.19-.5c.61-.33,1.22-.49,1.82-.49s1.07.18,1.37.54c.3.36.45.93.45,1.7v4.24h-.37Zm-2.05-.41c.59,0,1.06-.19,1.41-.58s.52-.93.52-1.62v-.63l-.97.05c-.78.04-1.34.18-1.67.42s-.5.6-.5,1.1c0,.4.11.71.32.93s.52.33.91.33Z"/>
        <path class="cls-2" d="m182.24,46.54v-4.18c0-.62-.11-1.07-.32-1.36s-.54-.43-.97-.43c-.57,0-.99.18-1.27.54s-.41.92-.41,1.69v3.73h-.52v-4.35c0-1.07-.43-1.61-1.29-1.61-.58,0-1.01.19-1.28.58s-.4,1.01-.4,1.87v3.52h-.51v-6.37h.42l.11.87h.03c.15-.32.37-.56.66-.74.28-.17.6-.26.94-.26.88,0,1.44.38,1.69,1.13h.02c.18-.36.42-.64.73-.84.31-.2.65-.29,1.04-.29.61,0,1.07.19,1.37.56.3.37.46.96.46,1.77v4.17h-.5Z"/>
        <path class="cls-2" d="m186.57,46.66c-.81,0-1.44-.29-1.89-.86s-.68-1.37-.68-2.4.22-1.83.66-2.44,1.03-.92,1.77-.92c.66,0,1.17.26,1.55.79.38.52.57,1.23.57,2.13v.47h-4.02c0,.88.19,1.54.54,2s.85.69,1.5.69c.32,0,.6-.03.84-.08s.55-.16.92-.33v.53c-.31.16-.6.26-.87.32-.27.06-.56.08-.88.08Zm-.15-6.09c-.54,0-.97.2-1.29.61-.33.4-.51.99-.57,1.75h3.45c0-.74-.14-1.32-.42-1.73s-.67-.62-1.16-.62Z"/>
        <path class="cls-2" d="m191.32,46.14c.32,0,.6-.03.84-.09v.47c-.25.09-.53.14-.85.14-.49,0-.86-.15-1.09-.45-.23-.3-.35-.77-.35-1.42v-4.11h-.83v-.34l.83-.26.26-1.44h.26v1.54h1.64v.5h-1.64v4.03c0,.49.08.85.23,1.08s.39.35.71.35Z"/>
        <path class="cls-2" d="m193.72,45.15l.06.12c-.26,1.04-.55,1.97-.89,2.82h-.33c.26-1.07.45-2.05.56-2.94h.6Z"/>
        <path class="cls-2" d="m36.59,64.66c-.8,0-1.42-.29-1.87-.86s-.68-1.38-.68-2.4.23-1.88.7-2.46c.47-.59,1.11-.88,1.92-.88.48,0,.94.1,1.38.29l-.14.52c-.48-.18-.9-.28-1.26-.28-.68,0-1.2.24-1.55.72s-.53,1.18-.53,2.08c0,.86.18,1.53.53,2.02s.84.73,1.48.73c.51,0,.98-.1,1.41-.31v.54c-.36.2-.82.3-1.4.3Z"/>
        <path class="cls-2" d="m43.74,61.35c0,1.04-.22,1.85-.66,2.43-.44.58-1.05.88-1.83.88-.49,0-.92-.13-1.29-.4-.37-.27-.66-.66-.86-1.16-.2-.5-.3-1.09-.3-1.75,0-1.04.22-1.85.66-2.43.44-.58,1.05-.87,1.82-.87s1.37.29,1.8.88c.44.59.65,1.39.65,2.42Zm-4.4,0c0,.88.17,1.56.5,2.05s.81.74,1.43.74,1.09-.25,1.43-.74c.34-.49.51-1.17.51-2.05s-.17-1.56-.51-2.04c-.34-.48-.82-.73-1.43-.73s-1.09.24-1.42.72-.5,1.17-.5,2.05Z"/>
        <path class="cls-2" d="m48.94,64.54v-4.13c0-.64-.12-1.11-.35-1.4-.24-.29-.6-.44-1.1-.44-.67,0-1.15.19-1.46.58s-.46,1.01-.46,1.87v3.52h-.51v-6.37h.43l.1.87h.03c.36-.66,1.01-1,1.93-1,1.26,0,1.9.78,1.9,2.33v4.17h-.5Z"/>
        <path class="cls-2" d="m54.47,62.88c0,.57-.19,1.01-.57,1.32-.38.31-.92.46-1.62.46-.75,0-1.34-.13-1.77-.39v-.63c.56.32,1.15.48,1.77.48.55,0,.97-.1,1.25-.31s.43-.49.43-.83c0-.32-.11-.59-.34-.81-.23-.22-.6-.43-1.12-.64-.56-.23-.95-.43-1.17-.59s-.4-.35-.51-.56-.17-.46-.17-.76c0-.48.17-.85.53-1.13s.84-.42,1.47-.42,1.17.13,1.71.39l-.19.53c-.55-.26-1.05-.39-1.52-.39s-.82.09-1.08.26-.4.41-.4.71c0,.33.1.6.31.8s.61.42,1.21.67c.5.21.87.39,1.1.56.23.17.4.35.51.57.12.21.17.46.17.74Z"/>
        <path class="cls-2" d="m57.93,64.66c-.81,0-1.44-.29-1.89-.86s-.68-1.37-.68-2.4.22-1.83.66-2.44,1.03-.92,1.77-.92c.66,0,1.17.26,1.55.79.38.52.57,1.23.57,2.13v.47h-4.02c0,.88.19,1.54.54,2s.85.69,1.5.69c.32,0,.6-.03.84-.08s.55-.16.92-.33v.53c-.31.16-.6.26-.87.32-.27.06-.56.08-.88.08Zm-.15-6.09c-.54,0-.97.2-1.29.61-.33.4-.51.99-.57,1.75h3.45c0-.74-.14-1.32-.42-1.73s-.67-.62-1.16-.62Z"/>
        <path class="cls-2" d="m63.44,64.66c-.8,0-1.42-.29-1.87-.86s-.68-1.38-.68-2.4.23-1.88.7-2.46c.47-.59,1.11-.88,1.92-.88.48,0,.94.1,1.38.29l-.14.52c-.48-.18-.9-.28-1.26-.28-.68,0-1.2.24-1.55.72s-.53,1.18-.53,2.08c0,.86.18,1.53.53,2.02s.84.73,1.48.73c.51,0,.98-.1,1.41-.31v.54c-.36.2-.82.3-1.4.3Z"/>
        <path class="cls-2" d="m67.44,64.14c.32,0,.6-.03.84-.09v.47c-.25.09-.53.14-.85.14-.49,0-.86-.15-1.09-.45-.23-.3-.35-.77-.35-1.42v-4.11h-.83v-.34l.83-.26.26-1.44h.26v1.54h1.64v.5h-1.64v4.03c0,.49.08.85.23,1.08s.39.35.71.35Z"/>
        <path class="cls-2" d="m71.51,64.66c-.81,0-1.44-.29-1.89-.86s-.68-1.37-.68-2.4.22-1.83.66-2.44,1.03-.92,1.77-.92c.66,0,1.17.26,1.55.79.38.52.57,1.23.57,2.13v.47h-4.02c0,.88.19,1.54.54,2s.85.69,1.5.69c.32,0,.6-.03.84-.08s.55-.16.92-.33v.53c-.31.16-.6.26-.87.32-.27.06-.56.08-.88.08Zm-.15-6.09c-.54,0-.97.2-1.29.61-.33.4-.51.99-.57,1.75h3.45c0-.74-.14-1.32-.42-1.73s-.67-.62-1.16-.62Z"/>
        <path class="cls-2" d="m76.26,64.14c.32,0,.6-.03.84-.09v.47c-.25.09-.53.14-.85.14-.49,0-.86-.15-1.09-.45-.23-.3-.35-.77-.35-1.42v-4.11h-.83v-.34l.83-.26.26-1.44h.26v1.54h1.64v.5h-1.64v4.03c0,.49.08.85.23,1.08s.39.35.71.35Z"/>
        <path class="cls-2" d="m78.52,58.17v4.12c0,.64.12,1.11.35,1.4.24.29.6.44,1.1.44.66,0,1.15-.19,1.46-.57s.47-1.01.47-1.87v-3.52h.5v6.37h-.43l-.09-.88h-.03c-.36.66-1.01,1-1.93,1-1.27,0-1.9-.78-1.9-2.33v-4.16h.5Z"/>
        <path class="cls-2" d="m86.24,58.05c.24,0,.49.03.76.08l-.1.56c-.23-.07-.47-.1-.72-.1-.47,0-.86.23-1.17.69s-.46,1.04-.46,1.75v3.52h-.51v-6.37h.43l.05,1.15h.04c.23-.47.47-.8.73-.99s.57-.28.94-.28Z"/>
        <path class="cls-2" d="m96.16,64.54l-.13-1.01h-.04c-.28.41-.57.7-.86.87-.3.17-.65.25-1.05.25-.55,0-.97-.16-1.28-.48s-.46-.76-.46-1.33c0-.62.23-1.1.68-1.45.45-.34,1.11-.53,1.97-.54l1.06-.04v-.42c0-.61-.11-1.06-.32-1.37-.22-.31-.56-.46-1.04-.46-.52,0-1.05.16-1.61.49l-.19-.5c.61-.33,1.22-.49,1.82-.49s1.07.18,1.37.54c.3.36.45.93.45,1.7v4.24h-.37Zm-2.05-.41c.59,0,1.06-.19,1.41-.58s.52-.93.52-1.62v-.63l-.97.05c-.78.04-1.34.18-1.67.42s-.5.6-.5,1.1c0,.4.11.71.32.93s.52.33.91.33Z"/>
        <path class="cls-2" d="m100.15,58.05c.4,0,.75.08,1.05.25s.56.46.79.86h.03c-.02-.49-.03-.97-.03-1.45v-2.29h.5v9.12h-.33l-.13-.97h-.04c-.42.73-1.03,1.09-1.83,1.09s-1.36-.27-1.76-.82c-.41-.55-.61-1.34-.61-2.39,0-1.1.2-1.94.61-2.53.4-.58.99-.87,1.76-.87Zm0,.53c-.61,0-1.07.24-1.37.73s-.46,1.2-.46,2.13c0,1.8.61,2.71,1.84,2.71.63,0,1.09-.21,1.38-.63s.44-1.11.44-2.07v-.1c0-.98-.14-1.69-.43-2.12s-.76-.65-1.4-.65Z"/>
        <path class="cls-2" d="m104.06,56.4c0-.38.11-.56.32-.56.11,0,.19.05.25.15s.09.24.09.42-.03.31-.09.42-.14.15-.25.15c-.21,0-.32-.19-.32-.57Zm.58,8.14h-.51v-6.37h.51v6.37Z"/>
        <path class="cls-2" d="m108.66,64.66c-.86,0-1.48-.37-1.88-1.1h-.04l.02.49c.01.29.02.61.02.95v2.43h-.51v-9.25h.43l.1.91h.03c.38-.69,1-1.03,1.84-1.03.75,0,1.33.28,1.72.85.4.56.59,1.39.59,2.46s-.21,1.86-.62,2.43c-.42.58-.98.86-1.7.86Zm-.01-.52c.57,0,1.01-.24,1.33-.73.31-.48.47-1.16.47-2.03,0-1.87-.59-2.81-1.77-2.81-.65,0-1.13.2-1.43.61s-.46,1.07-.46,2v.19c0,1,.15,1.71.44,2.13.29.43.77.64,1.43.64Z"/>
        <path class="cls-2" d="m112.22,56.4c0-.38.11-.56.32-.56.11,0,.19.05.25.15s.09.24.09.42-.03.31-.09.42-.14.15-.25.15c-.21,0-.32-.19-.32-.57Zm.58,8.14h-.51v-6.37h.51v6.37Z"/>
        <path class="cls-2" d="m117.9,62.88c0,.57-.19,1.01-.57,1.32-.38.31-.92.46-1.62.46-.75,0-1.34-.13-1.77-.39v-.63c.56.32,1.15.48,1.77.48.55,0,.97-.1,1.25-.31s.43-.49.43-.83c0-.32-.11-.59-.34-.81-.23-.22-.6-.43-1.12-.64-.56-.23-.95-.43-1.17-.59s-.4-.35-.51-.56-.17-.46-.17-.76c0-.48.17-.85.53-1.13s.84-.42,1.47-.42,1.17.13,1.71.39l-.19.53c-.55-.26-1.05-.39-1.52-.39s-.82.09-1.08.26-.4.41-.4.71c0,.33.1.6.31.8s.61.42,1.21.67c.5.21.87.39,1.1.56.23.17.4.35.51.57.12.21.17.46.17.74Z"/>
        <path class="cls-2" d="m121.33,64.66c-.8,0-1.42-.29-1.87-.86s-.68-1.38-.68-2.4.23-1.88.7-2.46c.47-.59,1.11-.88,1.92-.88.48,0,.94.1,1.38.29l-.14.52c-.48-.18-.9-.28-1.26-.28-.68,0-1.2.24-1.55.72s-.53,1.18-.53,2.08c0,.86.18,1.53.53,2.02s.84.73,1.48.73c.51,0,.98-.1,1.41-.31v.54c-.36.2-.82.3-1.4.3Z"/>
        <path class="cls-2" d="m123.79,56.4c0-.38.11-.56.32-.56.11,0,.19.05.25.15s.09.24.09.42-.03.31-.09.42-.14.15-.25.15c-.21,0-.32-.19-.32-.57Zm.58,8.14h-.51v-6.37h.51v6.37Z"/>
        <path class="cls-2" d="m129.89,64.54v-4.13c0-.64-.12-1.11-.35-1.4-.24-.29-.6-.44-1.1-.44-.67,0-1.15.19-1.46.58s-.46,1.01-.46,1.87v3.52h-.51v-6.37h.43l.1.87h.03c.36-.66,1.01-1,1.93-1,1.26,0,1.9.78,1.9,2.33v4.17h-.5Z"/>
        <path class="cls-2" d="m136.32,58.17v.4l-1.15.08c.31.44.46.92.46,1.44,0,.61-.18,1.11-.54,1.49s-.84.57-1.44.57c-.25,0-.43-.01-.53-.04-.2.12-.36.26-.46.43-.11.16-.16.34-.16.52,0,.2.07.35.2.45s.36.14.68.14h.97c.6,0,1.07.14,1.39.42s.48.69.48,1.24c0,.67-.24,1.19-.72,1.56s-1.16.55-2.04.55c-.7,0-1.24-.15-1.63-.46s-.58-.74-.58-1.29c0-.44.12-.8.36-1.09.24-.29.56-.49.97-.59-.17-.08-.3-.2-.4-.35s-.15-.32-.15-.52c0-.43.24-.8.71-1.12-.33-.15-.58-.39-.76-.72-.18-.33-.27-.7-.27-1.12,0-.64.18-1.15.53-1.53s.83-.58,1.43-.58c.37,0,.65.04.85.12h1.78Zm-4.51,7.45c0,.88.57,1.31,1.71,1.31,1.46,0,2.2-.53,2.2-1.6,0-.38-.11-.66-.34-.83-.23-.17-.6-.26-1.11-.26h-.91c-1.02,0-1.53.46-1.53,1.38Zm.43-5.46c0,.49.13.87.39,1.15.26.27.61.41,1.05.41.46,0,.82-.13,1.07-.4s.37-.66.37-1.17c0-.54-.13-.95-.38-1.22s-.61-.41-1.07-.41-.79.15-1.05.44-.38.7-.38,1.22Z"/>
        <path class="cls-2" d="m144.36,64.66c-.81,0-1.44-.29-1.89-.86s-.68-1.37-.68-2.4.22-1.83.66-2.44,1.03-.92,1.77-.92c.66,0,1.17.26,1.55.79.38.52.57,1.23.57,2.13v.47h-4.02c0,.88.19,1.54.54,2s.85.69,1.5.69c.32,0,.6-.03.84-.08s.55-.16.92-.33v.53c-.31.16-.6.26-.87.32-.27.06-.56.08-.88.08Zm-.15-6.09c-.54,0-.97.2-1.29.61-.33.4-.51.99-.57,1.75h3.45c0-.74-.14-1.32-.42-1.73s-.67-.62-1.16-.62Z"/>
        <path class="cls-2" d="m148.15,64.54h-.51v-9.12h.51v9.12Z"/>
        <path class="cls-2" d="m149.71,56.4c0-.38.11-.56.32-.56.11,0,.19.05.25.15s.09.24.09.42-.03.31-.09.42-.14.15-.25.15c-.21,0-.32-.19-.32-.57Zm.58,8.14h-.51v-6.37h.51v6.37Z"/>
        <path class="cls-2" d="m153.4,64.14c.32,0,.6-.03.84-.09v.47c-.25.09-.53.14-.85.14-.49,0-.86-.15-1.09-.45-.23-.3-.35-.77-.35-1.42v-4.11h-.83v-.34l.83-.26.26-1.44h.26v1.54h1.64v.5h-1.64v4.03c0,.49.08.85.23,1.08s.39.35.71.35Z"/>
        <path class="cls-2" d="m155.8,63.15l.06.12c-.26,1.04-.55,1.97-.89,2.82h-.33c.26-1.07.45-2.05.56-2.94h.6Z"/>
        <path class="cls-2" d="m165.58,62.88c0,.57-.19,1.01-.57,1.32-.38.31-.92.46-1.62.46-.75,0-1.34-.13-1.77-.39v-.63c.56.32,1.15.48,1.77.48.55,0,.97-.1,1.25-.31s.43-.49.43-.83c0-.32-.11-.59-.34-.81-.23-.22-.6-.43-1.12-.64-.56-.23-.95-.43-1.17-.59s-.4-.35-.51-.56-.17-.46-.17-.76c0-.48.17-.85.53-1.13s.84-.42,1.47-.42,1.17.13,1.71.39l-.19.53c-.55-.26-1.05-.39-1.52-.39s-.82.09-1.08.26-.4.41-.4.71c0,.33.1.6.31.8s.61.42,1.21.67c.5.21.87.39,1.1.56.23.17.4.35.51.57.12.21.17.46.17.74Z"/>
        <path class="cls-2" d="m169.04,64.66c-.81,0-1.44-.29-1.89-.86s-.68-1.37-.68-2.4.22-1.83.66-2.44,1.03-.92,1.77-.92c.66,0,1.17.26,1.55.79.38.52.57,1.23.57,2.13v.47h-4.02c0,.88.19,1.54.54,2s.85.69,1.5.69c.32,0,.6-.03.84-.08s.55-.16.92-.33v.53c-.31.16-.6.26-.87.32-.27.06-.56.08-.88.08Zm-.15-6.09c-.54,0-.97.2-1.29.61-.33.4-.51.99-.57,1.75h3.45c0-.74-.14-1.32-.42-1.73s-.67-.62-1.16-.62Z"/>
        <path class="cls-2" d="m174.36,58.05c.4,0,.75.08,1.05.25s.56.46.79.86h.03c-.02-.49-.03-.97-.03-1.45v-2.29h.5v9.12h-.33l-.13-.97h-.04c-.42.73-1.03,1.09-1.83,1.09s-1.36-.27-1.76-.82c-.41-.55-.61-1.34-.61-2.39,0-1.1.2-1.94.61-2.53.4-.58.99-.87,1.76-.87Zm0,.53c-.61,0-1.07.24-1.37.73s-.46,1.2-.46,2.13c0,1.8.61,2.71,1.84,2.71.63,0,1.09-.21,1.38-.63s.44-1.11.44-2.07v-.1c0-.98-.14-1.69-.43-2.12s-.76-.65-1.4-.65Z"/>
        <path class="cls-2" d="m185.26,58.05c.4,0,.75.08,1.05.25s.56.46.79.86h.03c-.02-.49-.03-.97-.03-1.45v-2.29h.5v9.12h-.33l-.13-.97h-.04c-.42.73-1.03,1.09-1.83,1.09s-1.36-.27-1.76-.82c-.41-.55-.61-1.34-.61-2.39,0-1.1.2-1.94.61-2.53.4-.58.99-.87,1.76-.87Zm0,.53c-.61,0-1.07.24-1.37.73s-.46,1.2-.46,2.13c0,1.8.61,2.71,1.84,2.71.63,0,1.09-.21,1.38-.63s.44-1.11.44-2.07v-.1c0-.98-.14-1.69-.43-2.12s-.76-.65-1.4-.65Z"/>
        <path class="cls-2" d="m193.85,61.35c0,1.04-.22,1.85-.66,2.43-.44.58-1.05.88-1.83.88-.49,0-.92-.13-1.29-.4-.37-.27-.66-.66-.86-1.16-.2-.5-.3-1.09-.3-1.75,0-1.04.22-1.85.66-2.43.44-.58,1.05-.87,1.82-.87s1.37.29,1.8.88c.44.59.65,1.39.65,2.42Zm-4.4,0c0,.88.17,1.56.5,2.05s.81.74,1.43.74,1.09-.25,1.43-.74c.34-.49.51-1.17.51-2.05s-.17-1.56-.51-2.04c-.34-.48-.82-.73-1.43-.73s-1.09.24-1.42.72-.5,1.17-.5,2.05Z"/>
        <path class="cls-2" d="m36.62,82.66c-.81,0-1.44-.29-1.89-.86s-.68-1.37-.68-2.4.22-1.83.66-2.44,1.03-.92,1.77-.92c.66,0,1.17.26,1.55.79.38.52.57,1.23.57,2.13v.47h-4.02c0,.88.19,1.54.54,2s.85.69,1.5.69c.32,0,.6-.03.84-.08s.55-.16.92-.33v.53c-.31.16-.6.26-.87.32-.27.06-.56.08-.88.08Zm-.15-6.09c-.54,0-.97.2-1.29.61-.33.4-.51.99-.57,1.75h3.45c0-.74-.14-1.32-.42-1.73s-.67-.62-1.16-.62Z"/>
        <path class="cls-2" d="m39.83,74.4c0-.38.11-.56.32-.56.11,0,.19.05.25.15s.09.24.09.42-.03.31-.09.42-.14.15-.25.15c-.21,0-.32-.19-.32-.57Zm.58,8.14h-.51v-6.37h.51v6.37Z"/>
        <path class="cls-2" d="m42.49,76.17v4.12c0,.64.12,1.11.35,1.4.24.29.6.44,1.1.44.66,0,1.15-.19,1.46-.57s.47-1.01.47-1.87v-3.52h.5v6.37h-.43l-.09-.88h-.03c-.36.66-1.01,1-1.93,1-1.27,0-1.9-.78-1.9-2.33v-4.16h.5Z"/>
        <path class="cls-2" d="m51.47,80.88c0,.57-.19,1.01-.57,1.32-.38.31-.92.46-1.62.46-.75,0-1.34-.13-1.77-.39v-.63c.56.32,1.15.48,1.77.48.55,0,.97-.1,1.25-.31s.43-.49.43-.83c0-.32-.11-.59-.34-.81-.23-.22-.6-.43-1.12-.64-.56-.23-.95-.43-1.17-.59s-.4-.35-.51-.56-.17-.46-.17-.76c0-.48.17-.85.53-1.13s.84-.42,1.47-.42,1.17.13,1.71.39l-.19.53c-.55-.26-1.05-.39-1.52-.39s-.82.09-1.08.26-.4.41-.4.71c0,.33.1.6.31.8s.61.42,1.21.67c.5.21.87.39,1.1.56.23.17.4.35.51.57.12.21.17.46.17.74Z"/>
        <path class="cls-2" d="m59.64,82.54v-4.18c0-.62-.11-1.07-.32-1.36s-.54-.43-.97-.43c-.57,0-.99.18-1.27.54s-.41.92-.41,1.69v3.73h-.52v-4.35c0-1.07-.43-1.61-1.29-1.61-.58,0-1.01.19-1.28.58s-.4,1.01-.4,1.87v3.52h-.51v-6.37h.42l.11.87h.03c.15-.32.37-.56.66-.74.28-.17.6-.26.94-.26.88,0,1.44.38,1.69,1.13h.02c.18-.36.42-.64.73-.84.31-.2.65-.29,1.04-.29.61,0,1.07.19,1.37.56.3.37.46.96.46,1.77v4.17h-.5Z"/>
        <path class="cls-2" d="m66.32,79.35c0,1.04-.22,1.85-.66,2.43-.44.58-1.05.88-1.83.88-.49,0-.92-.13-1.29-.4-.37-.27-.66-.66-.86-1.16-.2-.5-.3-1.09-.3-1.75,0-1.04.22-1.85.66-2.43.44-.58,1.05-.87,1.82-.87s1.37.29,1.8.88c.44.59.65,1.39.65,2.42Zm-4.4,0c0,.88.17,1.56.5,2.05s.81.74,1.43.74,1.09-.25,1.43-.74c.34-.49.51-1.17.51-2.05s-.17-1.56-.51-2.04c-.34-.48-.82-.73-1.43-.73s-1.09.24-1.42.72-.5,1.17-.5,2.05Z"/>
        <path class="cls-2" d="m69.68,76.05c.4,0,.75.08,1.05.25s.56.46.79.86h.03c-.02-.49-.03-.97-.03-1.45v-2.29h.5v9.12h-.33l-.13-.97h-.04c-.42.73-1.03,1.09-1.83,1.09s-1.36-.27-1.76-.82c-.41-.55-.61-1.34-.61-2.39,0-1.1.2-1.94.61-2.53.4-.58.99-.87,1.76-.87Zm0,.53c-.61,0-1.07.24-1.37.73s-.46,1.2-.46,2.13c0,1.8.61,2.71,1.84,2.71.63,0,1.09-.21,1.38-.63s.44-1.11.44-2.07v-.1c0-.98-.14-1.69-.43-2.12s-.76-.65-1.4-.65Z"/>
        <path class="cls-2" d="m86.52,82.14c.32,0,.6-.03.84-.09v.47c-.25.09-.53.14-.85.14-.49,0-.86-.15-1.09-.45-.23-.3-.35-.77-.35-1.42v-4.11h-.83v-.34l.83-.26.26-1.44h.26v1.54h1.64v.5h-1.64v4.03c0,.49.08.85.23,1.08s.39.35.71.35Z"/>
        <path class="cls-2" d="m90.59,82.66c-.81,0-1.44-.29-1.89-.86s-.68-1.37-.68-2.4.22-1.83.66-2.44,1.03-.92,1.77-.92c.66,0,1.17.26,1.55.79.38.52.57,1.23.57,2.13v.47h-4.02c0,.88.19,1.54.54,2s.85.69,1.5.69c.32,0,.6-.03.84-.08s.55-.16.92-.33v.53c-.31.16-.6.26-.87.32-.27.06-.56.08-.88.08Zm-.15-6.09c-.54,0-.97.2-1.29.61-.33.4-.51.99-.57,1.75h3.45c0-.74-.14-1.32-.42-1.73s-.67-.62-1.16-.62Z"/>
        <path class="cls-2" d="m100.84,82.54v-4.18c0-.62-.11-1.07-.32-1.36s-.54-.43-.97-.43c-.57,0-.99.18-1.27.54s-.41.92-.41,1.69v3.73h-.52v-4.35c0-1.07-.43-1.61-1.29-1.61-.58,0-1.01.19-1.28.58s-.4,1.01-.4,1.87v3.52h-.51v-6.37h.42l.11.87h.03c.15-.32.37-.56.66-.74.28-.17.6-.26.94-.26.88,0,1.44.38,1.69,1.13h.02c.18-.36.42-.64.73-.84.31-.2.65-.29,1.04-.29.61,0,1.07.19,1.37.56.3.37.46.96.46,1.77v4.17h-.5Z"/>
        <path class="cls-2" d="m105.3,82.66c-.86,0-1.48-.37-1.88-1.1h-.04l.02.49c.01.29.02.61.02.95v2.43h-.51v-9.25h.43l.1.91h.03c.38-.69,1-1.03,1.84-1.03.75,0,1.33.28,1.72.85.4.56.59,1.39.59,2.46s-.21,1.86-.62,2.43c-.42.58-.98.86-1.7.86Zm-.01-.52c.57,0,1.01-.24,1.33-.73.31-.48.47-1.16.47-2.03,0-1.87-.59-2.81-1.77-2.81-.65,0-1.13.2-1.43.61s-.46,1.07-.46,2v.19c0,1,.15,1.71.44,2.13.29.43.77.64,1.43.64Z"/>
        <path class="cls-2" d="m113.54,79.35c0,1.04-.22,1.85-.66,2.43-.44.58-1.05.88-1.83.88-.49,0-.92-.13-1.29-.4-.37-.27-.66-.66-.86-1.16-.2-.5-.3-1.09-.3-1.75,0-1.04.22-1.85.66-2.43.44-.58,1.05-.87,1.82-.87s1.37.29,1.8.88c.44.59.65,1.39.65,2.42Zm-4.4,0c0,.88.17,1.56.5,2.05s.81.74,1.43.74,1.09-.25,1.43-.74c.34-.49.51-1.17.51-2.05s-.17-1.56-.51-2.04c-.34-.48-.82-.73-1.43-.73s-1.09.24-1.42.72-.5,1.17-.5,2.05Z"/>
        <path class="cls-2" d="m117.05,76.05c.24,0,.49.03.76.08l-.1.56c-.23-.07-.47-.1-.72-.1-.47,0-.86.23-1.17.69s-.46,1.04-.46,1.75v3.52h-.51v-6.37h.43l.05,1.15h.04c.23-.47.47-.8.73-.99s.57-.28.94-.28Z"/>
        <path class="cls-2" d="m130.04,74.4c0-.38.11-.56.32-.56.11,0,.19.05.25.15s.09.24.09.42-.03.31-.09.42-.14.15-.25.15c-.21,0-.32-.19-.32-.57Zm.58,8.14h-.51v-6.37h.51v6.37Z"/>
        <path class="cls-2" d="m136.14,82.54v-4.13c0-.64-.12-1.11-.35-1.4-.24-.29-.6-.44-1.1-.44-.67,0-1.15.19-1.46.58s-.46,1.01-.46,1.87v3.52h-.51v-6.37h.43l.1.87h.03c.36-.66,1.01-1,1.93-1,1.26,0,1.9.78,1.9,2.33v4.17h-.5Z"/>
        <path class="cls-2" d="m140.44,82.66c-.8,0-1.42-.29-1.87-.86s-.68-1.38-.68-2.4.23-1.88.7-2.46c.47-.59,1.11-.88,1.92-.88.48,0,.94.1,1.38.29l-.14.52c-.48-.18-.9-.28-1.26-.28-.68,0-1.2.24-1.55.72s-.53,1.18-.53,2.08c0,.86.18,1.53.53,2.02s.84.73,1.48.73c.51,0,.98-.1,1.41-.31v.54c-.36.2-.82.3-1.4.3Z"/>
        <path class="cls-2" d="m142.9,74.4c0-.38.11-.56.32-.56.11,0,.19.05.25.15s.09.24.09.42-.03.31-.09.42-.14.15-.25.15c-.21,0-.32-.19-.32-.57Zm.58,8.14h-.51v-6.37h.51v6.37Z"/>
        <path class="cls-2" d="m147.16,76.05c.4,0,.75.08,1.05.25s.56.46.79.86h.03c-.02-.49-.03-.97-.03-1.45v-2.29h.5v9.12h-.33l-.13-.97h-.04c-.42.73-1.03,1.09-1.83,1.09s-1.36-.27-1.76-.82c-.41-.55-.61-1.34-.61-2.39,0-1.1.2-1.94.61-2.53.4-.58.99-.87,1.76-.87Zm0,.53c-.61,0-1.07.24-1.37.73s-.46,1.2-.46,2.13c0,1.8.61,2.71,1.84,2.71.63,0,1.09-.21,1.38-.63s.44-1.11.44-2.07v-.1c0-.98-.14-1.69-.43-2.12s-.76-.65-1.4-.65Z"/>
        <path class="cls-2" d="m151.07,74.4c0-.38.11-.56.32-.56.11,0,.19.05.25.15s.09.24.09.42-.03.31-.09.42-.14.15-.25.15c-.21,0-.32-.19-.32-.57Zm.58,8.14h-.51v-6.37h.51v6.37Z"/>
        <path class="cls-2" d="m155.32,76.05c.4,0,.75.08,1.05.25s.56.46.79.86h.03c-.02-.49-.03-.97-.03-1.45v-2.29h.5v9.12h-.33l-.13-.97h-.04c-.42.73-1.03,1.09-1.83,1.09s-1.36-.27-1.76-.82c-.41-.55-.61-1.34-.61-2.39,0-1.1.2-1.94.61-2.53.4-.58.99-.87,1.76-.87Zm0,.53c-.61,0-1.07.24-1.37.73s-.46,1.2-.46,2.13c0,1.8.61,2.71,1.84,2.71.63,0,1.09-.21,1.38-.63s.44-1.11.44-2.07v-.1c0-.98-.14-1.69-.43-2.12s-.76-.65-1.4-.65Z"/>
        <path class="cls-2" d="m159.74,76.17v4.12c0,.64.12,1.11.35,1.4.24.29.6.44,1.1.44.66,0,1.15-.19,1.46-.57s.47-1.01.47-1.87v-3.52h.5v6.37h-.43l-.09-.88h-.03c-.36.66-1.01,1-1.93,1-1.27,0-1.9-.78-1.9-2.33v-4.16h.5Z"/>
        <path class="cls-2" d="m169.15,82.54v-4.13c0-.64-.12-1.11-.35-1.4-.24-.29-.6-.44-1.1-.44-.67,0-1.15.19-1.46.58s-.46,1.01-.46,1.87v3.52h-.51v-6.37h.43l.1.87h.03c.36-.66,1.01-1,1.93-1,1.26,0,1.9.78,1.9,2.33v4.17h-.5Z"/>
        <path class="cls-2" d="m172.7,82.14c.32,0,.6-.03.84-.09v.47c-.25.09-.53.14-.85.14-.49,0-.86-.15-1.09-.45-.23-.3-.35-.77-.35-1.42v-4.11h-.83v-.34l.83-.26.26-1.44h.26v1.54h1.64v.5h-1.64v4.03c0,.49.08.85.23,1.08s.39.35.71.35Z"/>
        <path class="cls-2" d="m186.35,76.17v4.12c0,.64.12,1.11.35,1.4.24.29.6.44,1.1.44.66,0,1.15-.19,1.46-.57s.47-1.01.47-1.87v-3.52h.5v6.37h-.43l-.09-.88h-.03c-.36.66-1.01,1-1.93,1-1.27,0-1.9-.78-1.9-2.33v-4.16h.5Z"/>
        <path class="cls-2" d="m193.35,82.14c.32,0,.6-.03.84-.09v.47c-.25.09-.53.14-.85.14-.49,0-.86-.15-1.09-.45-.23-.3-.35-.77-.35-1.42v-4.11h-.83v-.34l.83-.26.26-1.44h.26v1.54h1.64v.5h-1.64v4.03c0,.49.08.85.23,1.08s.39.35.71.35Z"/>
        <path class="cls-2" d="m34.88,100.54h-.51v-9.12h.51v9.12Z"/>
        <path class="cls-2" d="m39.9,100.54l-.13-1.01h-.04c-.28.41-.57.7-.86.87-.3.17-.65.25-1.05.25-.55,0-.97-.16-1.28-.48s-.46-.76-.46-1.33c0-.62.23-1.1.68-1.45.45-.34,1.11-.53,1.97-.54l1.06-.04v-.42c0-.61-.11-1.06-.32-1.37-.22-.31-.56-.46-1.04-.46-.52,0-1.05.16-1.61.49l-.19-.5c.61-.33,1.22-.49,1.82-.49s1.07.18,1.37.54c.3.36.45.93.45,1.7v4.24h-.37Zm-2.05-.41c.59,0,1.06-.19,1.41-.58s.52-.93.52-1.62v-.63l-.97.05c-.78.04-1.34.18-1.67.42s-.5.6-.5,1.1c0,.4.11.71.32.93s.52.33.91.33Z"/>
        <path class="cls-2" d="m44.2,94.05c.78,0,1.37.28,1.76.84.4.56.59,1.38.59,2.46s-.21,1.88-.62,2.45c-.42.57-1,.86-1.75.86-.4,0-.75-.09-1.07-.28-.32-.19-.57-.45-.75-.8h-.05l-.14.96h-.32v-9.12h.51v2.29c0,.34,0,.66-.02.95l-.02.5h.04c.21-.38.47-.66.77-.84.3-.18.66-.27,1.08-.27Zm0,.53c-.66,0-1.13.21-1.41.64-.28.43-.43,1.14-.43,2.13v.1c0,.96.15,1.65.44,2.07s.76.63,1.38.63,1.07-.24,1.38-.73.46-1.18.46-2.08c0-1.84-.61-2.76-1.83-2.76Z"/>
        <path class="cls-2" d="m52.48,97.35c0,1.04-.22,1.85-.66,2.43-.44.58-1.05.88-1.83.88-.49,0-.92-.13-1.29-.4-.37-.27-.66-.66-.86-1.16-.2-.5-.3-1.09-.3-1.75,0-1.04.22-1.85.66-2.43.44-.58,1.05-.87,1.82-.87s1.37.29,1.8.88c.44.59.65,1.39.65,2.42Zm-4.4,0c0,.88.17,1.56.5,2.05s.81.74,1.43.74,1.09-.25,1.43-.74c.34-.49.51-1.17.51-2.05s-.17-1.56-.51-2.04c-.34-.48-.82-.73-1.43-.73s-1.09.24-1.42.72-.5,1.17-.5,2.05Z"/>
        <path class="cls-2" d="m55.98,94.05c.24,0,.49.03.76.08l-.1.56c-.23-.07-.47-.1-.72-.1-.47,0-.86.23-1.17.69s-.46,1.04-.46,1.75v3.52h-.51v-6.37h.43l.05,1.15h.04c.23-.47.47-.8.73-.99s.57-.28.94-.28Z"/>
        <path class="cls-2" d="m59.9,100.66c-.81,0-1.44-.29-1.89-.86s-.68-1.37-.68-2.4.22-1.83.66-2.44,1.03-.92,1.77-.92c.66,0,1.17.26,1.55.79.38.52.57,1.23.57,2.13v.47h-4.02c0,.88.19,1.54.54,2s.85.69,1.5.69c.32,0,.6-.03.84-.08s.55-.16.92-.33v.53c-.31.16-.6.26-.87.32-.27.06-.56.08-.88.08Zm-.15-6.09c-.54,0-.97.2-1.29.61-.33.4-.51.99-.57,1.75h3.45c0-.74-.14-1.32-.42-1.73s-.67-.62-1.16-.62Z"/>
        <path class="cls-2" d="m70.03,100.66c-.81,0-1.44-.29-1.89-.86s-.68-1.37-.68-2.4.22-1.83.66-2.44,1.03-.92,1.77-.92c.66,0,1.17.26,1.55.79.38.52.57,1.23.57,2.13v.47h-4.02c0,.88.19,1.54.54,2s.85.69,1.5.69c.32,0,.6-.03.84-.08s.55-.16.92-.33v.53c-.31.16-.6.26-.87.32-.27.06-.56.08-.88.08Zm-.15-6.09c-.54,0-.97.2-1.29.61-.33.4-.51.99-.57,1.75h3.45c0-.74-.14-1.32-.42-1.73s-.67-.62-1.16-.62Z"/>
        <path class="cls-2" d="m74.79,100.14c.32,0,.6-.03.84-.09v.47c-.25.09-.53.14-.85.14-.49,0-.86-.15-1.09-.45-.23-.3-.35-.77-.35-1.42v-4.11h-.83v-.34l.83-.26.26-1.44h.26v1.54h1.64v.5h-1.64v4.03c0,.49.08.85.23,1.08s.39.35.71.35Z"/>
        <path class="cls-2" d="m83.25,94.05c.4,0,.75.08,1.05.25s.56.46.79.86h.03c-.02-.49-.03-.97-.03-1.45v-2.29h.5v9.12h-.33l-.13-.97h-.04c-.42.73-1.03,1.09-1.83,1.09s-1.36-.27-1.76-.82c-.41-.55-.61-1.34-.61-2.39,0-1.1.2-1.94.61-2.53.4-.58.99-.87,1.76-.87Zm0,.53c-.61,0-1.07.24-1.37.73s-.46,1.2-.46,2.13c0,1.8.61,2.71,1.84,2.71.63,0,1.09-.21,1.38-.63s.44-1.11.44-2.07v-.1c0-.98-.14-1.69-.43-2.12s-.76-.65-1.4-.65Z"/>
        <path class="cls-2" d="m91.84,97.35c0,1.04-.22,1.85-.66,2.43-.44.58-1.05.88-1.83.88-.49,0-.92-.13-1.29-.4-.37-.27-.66-.66-.86-1.16-.2-.5-.3-1.09-.3-1.75,0-1.04.22-1.85.66-2.43.44-.58,1.05-.87,1.82-.87s1.37.29,1.8.88c.44.59.65,1.39.65,2.42Zm-4.4,0c0,.88.17,1.56.5,2.05s.81.74,1.43.74,1.09-.25,1.43-.74c.34-.49.51-1.17.51-2.05s-.17-1.56-.51-2.04c-.34-.48-.82-.73-1.43-.73s-1.09.24-1.42.72-.5,1.17-.5,2.05Z"/>
        <path class="cls-2" d="m93.66,100.54h-.51v-9.12h.51v9.12Z"/>
        <path class="cls-2" d="m99.9,97.35c0,1.04-.22,1.85-.66,2.43-.44.58-1.05.88-1.83.88-.49,0-.92-.13-1.29-.4-.37-.27-.66-.66-.86-1.16-.2-.5-.3-1.09-.3-1.75,0-1.04.22-1.85.66-2.43.44-.58,1.05-.87,1.82-.87s1.37.29,1.8.88c.44.59.65,1.39.65,2.42Zm-4.4,0c0,.88.17,1.56.5,2.05s.81.74,1.43.74,1.09-.25,1.43-.74c.34-.49.51-1.17.51-2.05s-.17-1.56-.51-2.04c-.34-.48-.82-.73-1.43-.73s-1.09.24-1.42.72-.5,1.17-.5,2.05Z"/>
        <path class="cls-2" d="m103.41,94.05c.24,0,.49.03.76.08l-.1.56c-.23-.07-.47-.1-.72-.1-.47,0-.86.23-1.17.69s-.46,1.04-.46,1.75v3.52h-.51v-6.37h.43l.05,1.15h.04c.23-.47.47-.8.73-.99s.57-.28.94-.28Z"/>
        <path class="cls-2" d="m107.32,100.66c-.81,0-1.44-.29-1.89-.86s-.68-1.37-.68-2.4.22-1.83.66-2.44,1.03-.92,1.77-.92c.66,0,1.17.26,1.55.79.38.52.57,1.23.57,2.13v.47h-4.02c0,.88.19,1.54.54,2s.85.69,1.5.69c.32,0,.6-.03.84-.08s.55-.16.92-.33v.53c-.31.16-.6.26-.87.32-.27.06-.56.08-.88.08Zm-.15-6.09c-.54,0-.97.2-1.29.61-.33.4-.51.99-.57,1.75h3.45c0-.74-.14-1.32-.42-1.73s-.67-.62-1.16-.62Z"/>
        <path class="cls-2" d="m122.17,100.54v-4.18c0-.62-.11-1.07-.32-1.36s-.54-.43-.97-.43c-.57,0-.99.18-1.27.54s-.41.92-.41,1.69v3.73h-.52v-4.35c0-1.07-.43-1.61-1.29-1.61-.58,0-1.01.19-1.28.58s-.4,1.01-.4,1.87v3.52h-.51v-6.37h.42l.11.87h.03c.15-.32.37-.56.66-.74.28-.17.6-.26.94-.26.88,0,1.44.38,1.69,1.13h.02c.18-.36.42-.64.73-.84.31-.2.65-.29,1.04-.29.61,0,1.07.19,1.37.56.3.37.46.96.46,1.77v4.17h-.5Z"/>
        <path class="cls-2" d="m127.63,100.54l-.13-1.01h-.04c-.28.41-.57.7-.86.87-.3.17-.65.25-1.05.25-.55,0-.97-.16-1.28-.48s-.46-.76-.46-1.33c0-.62.23-1.1.68-1.45.45-.34,1.11-.53,1.97-.54l1.06-.04v-.42c0-.61-.11-1.06-.32-1.37-.22-.31-.56-.46-1.04-.46-.52,0-1.05.16-1.61.49l-.19-.5c.61-.33,1.22-.49,1.82-.49s1.07.18,1.37.54c.3.36.45.93.45,1.7v4.24h-.37Zm-2.05-.41c.59,0,1.06-.19,1.41-.58s.52-.93.52-1.62v-.63l-.97.05c-.78.04-1.34.18-1.67.42s-.5.6-.5,1.1c0,.4.11.71.32.93s.52.33.91.33Z"/>
        <path class="cls-2" d="m133.93,94.17v.4l-1.15.08c.31.44.46.92.46,1.44,0,.61-.18,1.11-.54,1.49s-.84.57-1.44.57c-.25,0-.43-.01-.53-.04-.2.12-.36.26-.46.43-.11.16-.16.34-.16.52,0,.2.07.35.2.45s.36.14.68.14h.97c.6,0,1.07.14,1.39.42s.48.69.48,1.24c0,.67-.24,1.19-.72,1.56s-1.16.55-2.04.55c-.7,0-1.24-.15-1.63-.46s-.58-.74-.58-1.29c0-.44.12-.8.36-1.09.24-.29.56-.49.97-.59-.17-.08-.3-.2-.4-.35s-.15-.32-.15-.52c0-.43.24-.8.71-1.12-.33-.15-.58-.39-.76-.72-.18-.33-.27-.7-.27-1.12,0-.64.18-1.15.53-1.53s.83-.58,1.43-.58c.37,0,.65.04.85.12h1.78Zm-4.51,7.45c0,.88.57,1.31,1.71,1.31,1.46,0,2.2-.53,2.2-1.6,0-.38-.11-.66-.34-.83-.23-.17-.6-.26-1.11-.26h-.91c-1.02,0-1.53.46-1.53,1.38Zm.43-5.46c0,.49.13.87.39,1.15.26.27.61.41,1.05.41.46,0,.82-.13,1.07-.4s.37-.66.37-1.17c0-.54-.13-.95-.38-1.22s-.61-.41-1.07-.41-.79.15-1.05.44-.38.7-.38,1.22Z"/>
        <path class="cls-2" d="m138.73,100.54v-4.13c0-.64-.12-1.11-.35-1.4-.24-.29-.6-.44-1.1-.44-.67,0-1.15.19-1.46.58s-.46,1.01-.46,1.87v3.52h-.51v-6.37h.43l.1.87h.03c.36-.66,1.01-1,1.93-1,1.26,0,1.9.78,1.9,2.33v4.17h-.5Z"/>
        <path class="cls-2" d="m144.19,100.54l-.13-1.01h-.04c-.28.41-.57.7-.86.87-.3.17-.65.25-1.05.25-.55,0-.97-.16-1.28-.48s-.46-.76-.46-1.33c0-.62.23-1.1.68-1.45.45-.34,1.11-.53,1.97-.54l1.06-.04v-.42c0-.61-.11-1.06-.32-1.37-.22-.31-.56-.46-1.04-.46-.52,0-1.05.16-1.61.49l-.19-.5c.61-.33,1.22-.49,1.82-.49s1.07.18,1.37.54c.3.36.45.93.45,1.7v4.24h-.37Zm-2.05-.41c.59,0,1.06-.19,1.41-.58s.52-.93.52-1.62v-.63l-.97.05c-.78.04-1.34.18-1.67.42s-.5.6-.5,1.1c0,.4.11.71.32.93s.52.33.91.33Z"/>
        <path class="cls-2" d="m154.13,100.54l-.13-1.01h-.04c-.28.41-.57.7-.86.87-.3.17-.65.25-1.05.25-.55,0-.97-.16-1.28-.48s-.46-.76-.46-1.33c0-.62.23-1.1.68-1.45.45-.34,1.11-.53,1.97-.54l1.06-.04v-.42c0-.61-.11-1.06-.32-1.37-.22-.31-.56-.46-1.04-.46-.52,0-1.05.16-1.61.49l-.19-.5c.61-.33,1.22-.49,1.82-.49s1.07.18,1.37.54c.3.36.45.93.45,1.7v4.24h-.37Zm-2.05-.41c.59,0,1.06-.19,1.41-.58s.52-.93.52-1.62v-.63l-.97.05c-.78.04-1.34.18-1.67.42s-.5.6-.5,1.1c0,.4.11.71.32.93s.52.33.91.33Z"/>
        <path class="cls-2" d="m156.59,100.54h-.51v-9.12h.51v9.12Z"/>
        <path class="cls-2" d="m158.15,92.4c0-.38.11-.56.32-.56.11,0,.19.05.25.15s.09.24.09.42-.03.31-.09.42-.14.15-.25.15c-.21,0-.32-.19-.32-.57Zm.58,8.14h-.51v-6.37h.51v6.37Z"/>
        <path class="cls-2" d="m162.35,100.66c-.73,0-1.3-.28-1.7-.83-.4-.55-.61-1.36-.61-2.4s.2-1.91.61-2.49c.4-.59.98-.88,1.73-.88.81,0,1.41.34,1.81,1.02h.03l.09-.9h.43v9.25h-.5v-2.43c0-.48,0-.96.03-1.45h-.03c-.4.74-1.03,1.11-1.89,1.11Zm.01-.52c.68,0,1.16-.21,1.45-.64s.43-1.14.43-2.14v-.07c0-.96-.15-1.65-.44-2.07-.29-.43-.75-.64-1.39-.64-.6,0-1.06.24-1.37.73-.31.48-.47,1.2-.47,2.13s.15,1.57.46,2.02.75.68,1.33.68Z"/>
        <path class="cls-2" d="m166.83,94.17v4.12c0,.64.12,1.11.35,1.4.24.29.6.44,1.1.44.66,0,1.15-.19,1.46-.57s.47-1.01.47-1.87v-3.52h.5v6.37h-.43l-.09-.88h-.03c-.36.66-1.01,1-1.93,1-1.27,0-1.9-.78-1.9-2.33v-4.16h.5Z"/>
        <path class="cls-2" d="m175.73,100.54l-.13-1.01h-.04c-.28.41-.57.7-.86.87-.3.17-.65.25-1.05.25-.55,0-.97-.16-1.28-.48s-.46-.76-.46-1.33c0-.62.23-1.1.68-1.45.45-.34,1.11-.53,1.97-.54l1.06-.04v-.42c0-.61-.11-1.06-.32-1.37-.22-.31-.56-.46-1.04-.46-.52,0-1.05.16-1.61.49l-.19-.5c.61-.33,1.22-.49,1.82-.49s1.07.18,1.37.54c.3.36.45.93.45,1.7v4.24h-.37Zm-2.05-.41c.59,0,1.06-.19,1.41-.58s.52-.93.52-1.62v-.63l-.97.05c-.78.04-1.34.18-1.67.42s-.5.6-.5,1.1c0,.4.11.71.32.93s.52.33.91.33Z"/>
        <path class="cls-2" d="m177.58,100.08c0-.38.14-.57.41-.57s.42.19.42.57-.14.57-.42.57-.41-.19-.41-.57Z"/>
        <path class="cls-2" d="m190.19,91.98v5.54c0,.98-.25,1.75-.75,2.31s-1.2.83-2.09.83-1.55-.28-2.03-.83-.73-1.33-.73-2.33v-5.52h.53v5.54c0,.82.2,1.47.6,1.92.4.46.97.69,1.7.69s1.27-.23,1.66-.68c.39-.45.59-1.08.59-1.88v-5.6h.52Z"/>
        <path class="cls-2" d="m193.35,100.14c.32,0,.6-.03.84-.09v.47c-.25.09-.53.14-.85.14-.49,0-.86-.15-1.09-.45-.23-.3-.35-.77-.35-1.42v-4.11h-.83v-.34l.83-.26.26-1.44h.26v1.54h1.64v.5h-1.64v4.03c0,.49.08.85.23,1.08s.39.35.71.35Z"/>
        <path class="cls-2" d="m36.62,118.66c-.81,0-1.44-.29-1.89-.86s-.68-1.37-.68-2.4.22-1.83.66-2.44,1.03-.92,1.77-.92c.66,0,1.17.26,1.55.79.38.52.57,1.23.57,2.13v.47h-4.02c0,.88.19,1.54.54,2s.85.69,1.5.69c.32,0,.6-.03.84-.08s.55-.16.92-.33v.53c-.31.16-.6.26-.87.32-.27.06-.56.08-.88.08Zm-.15-6.09c-.54,0-.97.2-1.29.61-.33.4-.51.99-.57,1.75h3.45c0-.74-.14-1.32-.42-1.73s-.67-.62-1.16-.62Z"/>
        <path class="cls-2" d="m43.79,118.54v-4.13c0-.64-.12-1.11-.35-1.4-.24-.29-.6-.44-1.1-.44-.67,0-1.15.19-1.46.58s-.46,1.01-.46,1.87v3.52h-.51v-6.37h.43l.1.87h.03c.36-.66,1.01-1,1.93-1,1.26,0,1.9.78,1.9,2.33v4.17h-.5Z"/>
        <path class="cls-2" d="m45.79,110.4c0-.38.11-.56.32-.56.11,0,.19.05.25.15s.09.24.09.42-.03.31-.09.42-.14.15-.25.15c-.21,0-.32-.19-.32-.57Zm.58,8.14h-.51v-6.37h.51v6.37Z"/>
        <path class="cls-2" d="m54.97,118.54v-4.18c0-.62-.11-1.07-.32-1.36s-.54-.43-.97-.43c-.57,0-.99.18-1.27.54s-.41.92-.41,1.69v3.73h-.52v-4.35c0-1.07-.43-1.61-1.29-1.61-.58,0-1.01.19-1.28.58s-.4,1.01-.4,1.87v3.52h-.51v-6.37h.42l.11.87h.03c.15-.32.37-.56.66-.74.28-.17.6-.26.94-.26.88,0,1.44.38,1.69,1.13h.02c.18-.36.42-.64.73-.84.31-.2.65-.29,1.04-.29.61,0,1.07.19,1.37.56.3.37.46.96.46,1.77v4.17h-.5Z"/>
        <path class="cls-2" d="m71.69,118.54l-.13-1.01h-.04c-.28.41-.57.7-.86.87-.3.17-.65.25-1.05.25-.55,0-.97-.16-1.28-.48s-.46-.76-.46-1.33c0-.62.23-1.1.68-1.45.45-.34,1.11-.53,1.97-.54l1.06-.04v-.42c0-.61-.11-1.06-.32-1.37-.22-.31-.56-.46-1.04-.46-.52,0-1.05.16-1.61.49l-.19-.5c.61-.33,1.22-.49,1.82-.49s1.07.18,1.37.54c.3.36.45.93.45,1.7v4.24h-.37Zm-2.05-.41c.59,0,1.06-.19,1.41-.58s.52-.93.52-1.62v-.63l-.97.05c-.78.04-1.34.18-1.67.42s-.5.6-.5,1.1c0,.4.11.71.32.93s.52.33.91.33Z"/>
        <path class="cls-2" d="m75.68,112.05c.4,0,.75.08,1.05.25s.56.46.79.86h.03c-.02-.49-.03-.97-.03-1.45v-2.29h.5v9.12h-.33l-.13-.97h-.04c-.42.73-1.03,1.09-1.83,1.09s-1.36-.27-1.76-.82c-.41-.55-.61-1.34-.61-2.39,0-1.1.2-1.94.61-2.53.4-.58.99-.87,1.76-.87Zm0,.53c-.61,0-1.07.24-1.37.73s-.46,1.2-.46,2.13c0,1.8.61,2.71,1.84,2.71.63,0,1.09-.21,1.38-.63s.44-1.11.44-2.07v-.1c0-.98-.14-1.69-.43-2.12s-.76-.65-1.4-.65Z"/>
        <path class="cls-2" d="m97.87,118.54v-4.18c0-.62-.11-1.07-.32-1.36s-.54-.43-.97-.43c-.57,0-.99.18-1.27.54s-.41.92-.41,1.69v3.73h-.52v-4.35c0-1.07-.43-1.61-1.29-1.61-.58,0-1.01.19-1.28.58s-.4,1.01-.4,1.87v3.52h-.51v-6.37h.42l.11.87h.03c.15-.32.37-.56.66-.74.28-.17.6-.26.94-.26.88,0,1.44.38,1.69,1.13h.02c.18-.36.42-.64.73-.84.31-.2.65-.29,1.04-.29.61,0,1.07.19,1.37.56.3.37.46.96.46,1.77v4.17h-.5Z"/>
        <path class="cls-2" d="m99.88,110.4c0-.38.11-.56.32-.56.11,0,.19.05.25.15s.09.24.09.42-.03.31-.09.42-.14.15-.25.15c-.21,0-.32-.19-.32-.57Zm.58,8.14h-.51v-6.37h.51v6.37Z"/>
        <path class="cls-2" d="m105.98,118.54v-4.13c0-.64-.12-1.11-.35-1.4-.24-.29-.6-.44-1.1-.44-.67,0-1.15.19-1.46.58s-.46,1.01-.46,1.87v3.52h-.51v-6.37h.43l.1.87h.03c.36-.66,1.01-1,1.93-1,1.26,0,1.9.78,1.9,2.33v4.17h-.5Z"/>
        <path class="cls-2" d="m107.98,110.4c0-.38.11-.56.32-.56.11,0,.19.05.25.15s.09.24.09.42-.03.31-.09.42-.14.15-.25.15c-.21,0-.32-.19-.32-.57Zm.58,8.14h-.51v-6.37h.51v6.37Z"/>
        <path class="cls-2" d="m117.16,118.54v-4.18c0-.62-.11-1.07-.32-1.36s-.54-.43-.97-.43c-.57,0-.99.18-1.27.54s-.41.92-.41,1.69v3.73h-.52v-4.35c0-1.07-.43-1.61-1.29-1.61-.58,0-1.01.19-1.28.58s-.4,1.01-.4,1.87v3.52h-.51v-6.37h.42l.11.87h.03c.15-.32.37-.56.66-.74.28-.17.6-.26.94-.26.88,0,1.44.38,1.69,1.13h.02c.18-.36.42-.64.73-.84.31-.2.65-.29,1.04-.29.61,0,1.07.19,1.37.56.3.37.46.96.46,1.77v4.17h-.5Z"/>
        <path class="cls-2" d="m131.71,118.54l-2.15-6.37h.52l1.44,4.33c.19.55.33,1.04.43,1.45h.03c.14-.53.28-1.02.43-1.46l1.44-4.32h.52l-2.15,6.37h-.51Z"/>
        <path class="cls-2" d="m137.33,118.66c-.81,0-1.44-.29-1.89-.86s-.68-1.37-.68-2.4.22-1.83.66-2.44,1.03-.92,1.77-.92c.66,0,1.17.26,1.55.79.38.52.57,1.23.57,2.13v.47h-4.02c0,.88.19,1.54.54,2s.85.69,1.5.69c.32,0,.6-.03.84-.08s.55-.16.92-.33v.53c-.31.16-.6.26-.87.32-.27.06-.56.08-.88.08Zm-.15-6.09c-.54,0-.97.2-1.29.61-.33.4-.51.99-.57,1.75h3.45c0-.74-.14-1.32-.42-1.73s-.67-.62-1.16-.62Z"/>
        <path class="cls-2" d="m144.5,118.54v-4.13c0-.64-.12-1.11-.35-1.4-.24-.29-.6-.44-1.1-.44-.67,0-1.15.19-1.46.58s-.46,1.01-.46,1.87v3.52h-.51v-6.37h.43l.1.87h.03c.36-.66,1.01-1,1.93-1,1.26,0,1.9.78,1.9,2.33v4.17h-.5Z"/>
        <path class="cls-2" d="m146.51,110.4c0-.38.11-.56.32-.56.11,0,.19.05.25.15s.09.24.09.42-.03.31-.09.42-.14.15-.25.15c-.21,0-.32-.19-.32-.57Zm.58,8.14h-.51v-6.37h.51v6.37Z"/>
        <path class="cls-2" d="m152.11,118.54l-.13-1.01h-.04c-.28.41-.57.7-.86.87-.3.17-.65.25-1.05.25-.55,0-.97-.16-1.28-.48s-.46-.76-.46-1.33c0-.62.23-1.1.68-1.45.45-.34,1.11-.53,1.97-.54l1.06-.04v-.42c0-.61-.11-1.06-.32-1.37-.22-.31-.56-.46-1.04-.46-.52,0-1.05.16-1.61.49l-.19-.5c.61-.33,1.22-.49,1.82-.49s1.07.18,1.37.54c.3.36.45.93.45,1.7v4.24h-.37Zm-2.05-.41c.59,0,1.06-.19,1.41-.58s.52-.93.52-1.62v-.63l-.97.05c-.78.04-1.34.18-1.67.42s-.5.6-.5,1.1c0,.4.11.71.32.93s.52.33.91.33Z"/>
        <path class="cls-2" d="m161.02,118.54v-4.18c0-.62-.11-1.07-.32-1.36s-.54-.43-.97-.43c-.57,0-.99.18-1.27.54s-.41.92-.41,1.69v3.73h-.52v-4.35c0-1.07-.43-1.61-1.29-1.61-.58,0-1.01.19-1.28.58s-.4,1.01-.4,1.87v3.52h-.51v-6.37h.42l.11.87h.03c.15-.32.37-.56.66-.74.28-.17.6-.26.94-.26.88,0,1.44.38,1.69,1.13h.02c.18-.36.42-.64.73-.84.31-.2.65-.29,1.04-.29.61,0,1.07.19,1.37.56.3.37.46.96.46,1.77v4.17h-.5Z"/>
        <path class="cls-2" d="m163.68,117.15l.06.12c-.26,1.04-.55,1.97-.89,2.82h-.33c.26-1.07.45-2.05.56-2.94h.6Z"/>
        <path class="cls-2" d="m178.36,118.66c-.73,0-1.3-.28-1.7-.83-.4-.55-.61-1.36-.61-2.4s.2-1.91.61-2.49c.4-.59.98-.88,1.73-.88.81,0,1.41.34,1.81,1.02h.03l.09-.9h.43v9.25h-.5v-2.43c0-.48,0-.96.03-1.45h-.03c-.4.74-1.03,1.11-1.89,1.11Zm.01-.52c.68,0,1.16-.21,1.45-.64s.43-1.14.43-2.14v-.07c0-.96-.15-1.65-.44-2.07-.29-.43-.75-.64-1.39-.64-.6,0-1.06.24-1.37.73-.31.48-.47,1.2-.47,2.13s.15,1.57.46,2.02.75.68,1.33.68Z"/>
        <path class="cls-2" d="m182.83,112.17v4.12c0,.64.12,1.11.35,1.4.24.29.6.44,1.1.44.66,0,1.15-.19,1.46-.57s.47-1.01.47-1.87v-3.52h.5v6.37h-.43l-.09-.88h-.03c-.36.66-1.01,1-1.93,1-1.27,0-1.9-.78-1.9-2.33v-4.16h.5Z"/>
        <path class="cls-2" d="m188.29,110.4c0-.38.11-.56.32-.56.11,0,.19.05.25.15s.09.24.09.42-.03.31-.09.42-.14.15-.25.15c-.21,0-.32-.19-.32-.57Zm.58,8.14h-.51v-6.37h.51v6.37Z"/>
        <path class="cls-2" d="m193.96,116.88c0,.57-.19,1.01-.57,1.32-.38.31-.92.46-1.62.46-.75,0-1.34-.13-1.77-.39v-.63c.56.32,1.15.48,1.77.48.55,0,.97-.1,1.25-.31s.43-.49.43-.83c0-.32-.11-.59-.34-.81-.23-.22-.6-.43-1.12-.64-.56-.23-.95-.43-1.17-.59s-.4-.35-.51-.56-.17-.46-.17-.76c0-.48.17-.85.53-1.13s.84-.42,1.47-.42,1.17.13,1.71.39l-.19.53c-.55-.26-1.05-.39-1.52-.39s-.82.09-1.08.26-.4.41-.4.71c0,.33.1.6.31.8s.61.42,1.21.67c.5.21.87.39,1.1.56.23.17.4.35.51.57.12.21.17.46.17.74Z"/>
        <path class="cls-2" d="m38.26,136.54v-4.13c0-.64-.12-1.11-.35-1.4-.24-.29-.6-.44-1.1-.44-.67,0-1.15.19-1.46.58s-.46,1.01-.46,1.87v3.52h-.51v-6.37h.43l.1.87h.03c.36-.66,1.01-1,1.93-1,1.26,0,1.9.78,1.9,2.33v4.17h-.5Z"/>
        <path class="cls-2" d="m44.94,133.35c0,1.04-.22,1.85-.66,2.43-.44.58-1.05.88-1.83.88-.49,0-.92-.13-1.29-.4-.37-.27-.66-.66-.86-1.16-.2-.5-.3-1.09-.3-1.75,0-1.04.22-1.85.66-2.43.44-.58,1.05-.87,1.82-.87s1.37.29,1.8.88c.44.59.65,1.39.65,2.42Zm-4.4,0c0,.88.17,1.56.5,2.05s.81.74,1.43.74,1.09-.25,1.43-.74c.34-.49.51-1.17.51-2.05s-.17-1.56-.51-2.04c-.34-.48-.82-.73-1.43-.73s-1.09.24-1.42.72-.5,1.17-.5,2.05Z"/>
        <path class="cls-2" d="m49.71,134.88c0,.57-.19,1.01-.57,1.32-.38.31-.92.46-1.62.46-.75,0-1.34-.13-1.77-.39v-.63c.56.32,1.15.48,1.77.48.55,0,.97-.1,1.25-.31s.43-.49.43-.83c0-.32-.11-.59-.34-.81-.23-.22-.6-.43-1.12-.64-.56-.23-.95-.43-1.17-.59s-.4-.35-.51-.56-.17-.46-.17-.76c0-.48.17-.85.53-1.13s.84-.42,1.47-.42,1.17.13,1.71.39l-.19.53c-.55-.26-1.05-.39-1.52-.39s-.82.09-1.08.26-.4.41-.4.71c0,.33.1.6.31.8s.61.42,1.21.67c.5.21.87.39,1.1.56.23.17.4.35.51.57.12.21.17.46.17.74Z"/>
        <path class="cls-2" d="m52.39,136.14c.32,0,.6-.03.84-.09v.47c-.25.09-.53.14-.85.14-.49,0-.86-.15-1.09-.45-.23-.3-.35-.77-.35-1.42v-4.11h-.83v-.34l.83-.26.26-1.44h.26v1.54h1.64v.5h-1.64v4.03c0,.49.08.85.23,1.08s.39.35.71.35Z"/>
        <path class="cls-2" d="m56.4,130.05c.24,0,.49.03.76.08l-.1.56c-.23-.07-.47-.1-.72-.1-.47,0-.86.23-1.17.69s-.46,1.04-.46,1.75v3.52h-.51v-6.37h.43l.05,1.15h.04c.23-.47.47-.8.73-.99s.57-.28.94-.28Z"/>
        <path class="cls-2" d="m58.5,130.17v4.12c0,.64.12,1.11.35,1.4.24.29.6.44,1.1.44.66,0,1.15-.19,1.46-.57s.47-1.01.47-1.87v-3.52h.5v6.37h-.43l-.09-.88h-.03c-.36.66-1.01,1-1.93,1-1.27,0-1.9-.78-1.9-2.33v-4.16h.5Z"/>
        <path class="cls-2" d="m66.07,130.05c.4,0,.75.08,1.05.25s.56.46.79.86h.03c-.02-.49-.03-.97-.03-1.45v-2.29h.5v9.12h-.33l-.13-.97h-.04c-.42.73-1.03,1.09-1.83,1.09s-1.36-.27-1.76-.82c-.41-.55-.61-1.34-.61-2.39,0-1.1.2-1.94.61-2.53.4-.58.99-.87,1.76-.87Zm0,.53c-.61,0-1.07.24-1.37.73s-.46,1.2-.46,2.13c0,1.8.61,2.71,1.84,2.71.63,0,1.09-.21,1.38-.63s.44-1.11.44-2.07v-.1c0-.98-.14-1.69-.43-2.12s-.76-.65-1.4-.65Z"/>
        <path class="cls-2" d="m74.62,136.66c-.81,0-1.44-.29-1.89-.86s-.68-1.37-.68-2.4.22-1.83.66-2.44,1.03-.92,1.77-.92c.66,0,1.17.26,1.55.79.38.52.57,1.23.57,2.13v.47h-4.02c0,.88.19,1.54.54,2s.85.69,1.5.69c.32,0,.6-.03.84-.08s.55-.16.92-.33v.53c-.31.16-.6.26-.87.32-.27.06-.56.08-.88.08Zm-.15-6.09c-.54,0-.97.2-1.29.61-.33.4-.51.99-.57,1.75h3.45c0-.74-.14-1.32-.42-1.73s-.67-.62-1.16-.62Z"/>
        <path class="cls-2" d="m79.27,133.27l-1.94-3.09h.58l1.66,2.68,1.65-2.68h.56l-1.91,3.09,2.05,3.28h-.59l-1.75-2.84-1.76,2.84h-.56l2.02-3.28Z"/>
        <path class="cls-2" d="m85.15,136.66c-.81,0-1.44-.29-1.89-.86s-.68-1.37-.68-2.4.22-1.83.66-2.44,1.03-.92,1.77-.92c.66,0,1.17.26,1.55.79.38.52.57,1.23.57,2.13v.47h-4.02c0,.88.19,1.54.54,2s.85.69,1.5.69c.32,0,.6-.03.84-.08s.55-.16.92-.33v.53c-.31.16-.6.26-.87.32-.27.06-.56.08-.88.08Zm-.15-6.09c-.54,0-.97.2-1.29.61-.33.4-.51.99-.57,1.75h3.45c0-.74-.14-1.32-.42-1.73s-.67-.62-1.16-.62Z"/>
        <path class="cls-2" d="m90.63,130.05c.24,0,.49.03.76.08l-.1.56c-.23-.07-.47-.1-.72-.1-.47,0-.86.23-1.17.69s-.46,1.04-.46,1.75v3.52h-.51v-6.37h.43l.05,1.15h.04c.23-.47.47-.8.73-.99s.57-.28.94-.28Z"/>
        <path class="cls-2" d="m94.52,136.66c-.8,0-1.42-.29-1.87-.86s-.68-1.38-.68-2.4.23-1.88.7-2.46c.47-.59,1.11-.88,1.92-.88.48,0,.94.1,1.38.29l-.14.52c-.48-.18-.9-.28-1.26-.28-.68,0-1.2.24-1.55.72s-.53,1.18-.53,2.08c0,.86.18,1.53.53,2.02s.84.73,1.48.73c.51,0,.98-.1,1.41-.31v.54c-.36.2-.82.3-1.4.3Z"/>
        <path class="cls-2" d="m96.98,128.4c0-.38.11-.56.32-.56.11,0,.19.05.25.15s.09.24.09.42-.03.31-.09.42-.14.15-.25.15c-.21,0-.32-.19-.32-.57Zm.58,8.14h-.51v-6.37h.51v6.37Z"/>
        <path class="cls-2" d="m100.66,136.14c.32,0,.6-.03.84-.09v.47c-.25.09-.53.14-.85.14-.49,0-.86-.15-1.09-.45-.23-.3-.35-.77-.35-1.42v-4.11h-.83v-.34l.83-.26.26-1.44h.26v1.54h1.64v.5h-1.64v4.03c0,.49.08.85.23,1.08s.39.35.71.35Z"/>
        <path class="cls-2" d="m105.87,136.54l-.13-1.01h-.04c-.28.41-.57.7-.86.87-.3.17-.65.25-1.05.25-.55,0-.97-.16-1.28-.48s-.46-.76-.46-1.33c0-.62.23-1.1.68-1.45.45-.34,1.11-.53,1.97-.54l1.06-.04v-.42c0-.61-.11-1.06-.32-1.37-.22-.31-.56-.46-1.04-.46-.52,0-1.05.16-1.61.49l-.19-.5c.61-.33,1.22-.49,1.82-.49s1.07.18,1.37.54c.3.36.45.93.45,1.7v4.24h-.37Zm-2.05-.41c.59,0,1.06-.19,1.41-.58s.52-.93.52-1.62v-.63l-.97.05c-.78.04-1.34.18-1.67.42s-.5.6-.5,1.1c0,.4.11.71.32.93s.52.33.91.33Z"/>
        <path class="cls-2" d="m109.29,136.14c.32,0,.6-.03.84-.09v.47c-.25.09-.53.14-.85.14-.49,0-.86-.15-1.09-.45-.23-.3-.35-.77-.35-1.42v-4.11h-.83v-.34l.83-.26.26-1.44h.26v1.54h1.64v.5h-1.64v4.03c0,.49.08.85.23,1.08s.39.35.71.35Z"/>
        <path class="cls-2" d="m111.03,128.4c0-.38.11-.56.32-.56.11,0,.19.05.25.15s.09.24.09.42-.03.31-.09.42-.14.15-.25.15c-.21,0-.32-.19-.32-.57Zm.58,8.14h-.51v-6.37h.51v6.37Z"/>
        <path class="cls-2" d="m117.85,133.35c0,1.04-.22,1.85-.66,2.43-.44.58-1.05.88-1.83.88-.49,0-.92-.13-1.29-.4-.37-.27-.66-.66-.86-1.16-.2-.5-.3-1.09-.3-1.75,0-1.04.22-1.85.66-2.43.44-.58,1.05-.87,1.82-.87s1.37.29,1.8.88c.44.59.65,1.39.65,2.42Zm-4.4,0c0,.88.17,1.56.5,2.05s.81.74,1.43.74,1.09-.25,1.43-.74c.34-.49.51-1.17.51-2.05s-.17-1.56-.51-2.04c-.34-.48-.82-.73-1.43-.73s-1.09.24-1.42.72-.5,1.17-.5,2.05Z"/>
        <path class="cls-2" d="m123.05,136.54v-4.13c0-.64-.12-1.11-.35-1.4-.24-.29-.6-.44-1.1-.44-.67,0-1.15.19-1.46.58s-.46,1.01-.46,1.87v3.52h-.51v-6.37h.43l.1.87h.03c.36-.66,1.01-1,1.93-1,1.26,0,1.9.78,1.9,2.33v4.17h-.5Z"/>
        <path class="cls-2" d="m127.89,130.17v4.12c0,.64.12,1.11.35,1.4.24.29.6.44,1.1.44.66,0,1.15-.19,1.46-.57s.47-1.01.47-1.87v-3.52h.5v6.37h-.43l-.09-.88h-.03c-.36.66-1.01,1-1.93,1-1.27,0-1.9-.78-1.9-2.33v-4.16h.5Z"/>
        <path class="cls-2" d="m133.92,136.54h-.51v-9.12h.51v9.12Z"/>
        <path class="cls-2" d="m136.07,136.54h-.51v-9.12h.51v9.12Z"/>
        <path class="cls-2" d="m141.09,136.54l-.13-1.01h-.04c-.28.41-.57.7-.86.87-.3.17-.65.25-1.05.25-.55,0-.97-.16-1.28-.48s-.46-.76-.46-1.33c0-.62.23-1.1.68-1.45.45-.34,1.11-.53,1.97-.54l1.06-.04v-.42c0-.61-.11-1.06-.32-1.37-.22-.31-.56-.46-1.04-.46-.52,0-1.05.16-1.61.49l-.19-.5c.61-.33,1.22-.49,1.82-.49s1.07.18,1.37.54c.3.36.45.93.45,1.7v4.24h-.37Zm-2.05-.41c.59,0,1.06-.19,1.41-.58s.52-.93.52-1.62v-.63l-.97.05c-.78.04-1.34.18-1.67.42s-.5.6-.5,1.1c0,.4.11.71.32.93s.52.33.91.33Z"/>
        <path class="cls-2" d="m150,136.54v-4.18c0-.62-.11-1.07-.32-1.36s-.54-.43-.97-.43c-.57,0-.99.18-1.27.54s-.41.92-.41,1.69v3.73h-.52v-4.35c0-1.07-.43-1.61-1.29-1.61-.58,0-1.01.19-1.28.58s-.4,1.01-.4,1.87v3.52h-.51v-6.37h.42l.11.87h.03c.15-.32.37-.56.66-.74.28-.17.6-.26.94-.26.88,0,1.44.38,1.69,1.13h.02c.18-.36.42-.64.73-.84.31-.2.65-.29,1.04-.29.61,0,1.07.19,1.37.56.3.37.46.96.46,1.77v4.17h-.5Z"/>
        <path class="cls-2" d="m154.3,136.66c-.8,0-1.42-.29-1.87-.86s-.68-1.38-.68-2.4.23-1.88.7-2.46c.47-.59,1.11-.88,1.92-.88.48,0,.94.1,1.38.29l-.14.52c-.48-.18-.9-.28-1.26-.28-.68,0-1.2.24-1.55.72s-.53,1.18-.53,2.08c0,.86.18,1.53.53,2.02s.84.73,1.48.73c.51,0,.98-.1,1.41-.31v.54c-.36.2-.82.3-1.4.3Z"/>
        <path class="cls-2" d="m161.45,133.35c0,1.04-.22,1.85-.66,2.43-.44.58-1.05.88-1.83.88-.49,0-.92-.13-1.29-.4-.37-.27-.66-.66-.86-1.16-.2-.5-.3-1.09-.3-1.75,0-1.04.22-1.85.66-2.43.44-.58,1.05-.87,1.82-.87s1.37.29,1.8.88c.44.59.65,1.39.65,2.42Zm-4.4,0c0,.88.17,1.56.5,2.05s.81.74,1.43.74,1.09-.25,1.43-.74c.34-.49.51-1.17.51-2.05s-.17-1.56-.51-2.04c-.34-.48-.82-.73-1.43-.73s-1.09.24-1.42.72-.5,1.17-.5,2.05Z"/>
        <path class="cls-2" d="m165.59,136.54h-.51v-9.12h.51v9.12Z"/>
        <path class="cls-2" d="m170.61,136.54l-.13-1.01h-.04c-.28.41-.57.7-.86.87-.3.17-.65.25-1.05.25-.55,0-.97-.16-1.28-.48s-.46-.76-.46-1.33c0-.62.23-1.1.68-1.45.45-.34,1.11-.53,1.97-.54l1.06-.04v-.42c0-.61-.11-1.06-.32-1.37-.22-.31-.56-.46-1.04-.46-.52,0-1.05.16-1.61.49l-.19-.5c.61-.33,1.22-.49,1.82-.49s1.07.18,1.37.54c.3.36.45.93.45,1.7v4.24h-.37Zm-2.05-.41c.59,0,1.06-.19,1.41-.58s.52-.93.52-1.62v-.63l-.97.05c-.78.04-1.34.18-1.67.42s-.5.6-.5,1.1c0,.4.11.71.32.93s.52.33.91.33Z"/>
        <path class="cls-2" d="m174.91,130.05c.78,0,1.37.28,1.76.84.4.56.59,1.38.59,2.46s-.21,1.88-.62,2.45c-.42.57-1,.86-1.75.86-.4,0-.75-.09-1.07-.28-.32-.19-.57-.45-.75-.8h-.05l-.14.96h-.32v-9.12h.51v2.29c0,.34,0,.66-.02.95l-.02.5h.04c.21-.38.47-.66.77-.84.3-.18.66-.27,1.08-.27Zm0,.53c-.66,0-1.13.21-1.41.64-.28.43-.43,1.14-.43,2.13v.1c0,.96.15,1.65.44,2.07s.76.63,1.38.63,1.07-.24,1.38-.73.46-1.18.46-2.08c0-1.84-.61-2.76-1.83-2.76Z"/>
        <path class="cls-2" d="m183.19,133.35c0,1.04-.22,1.85-.66,2.43-.44.58-1.05.88-1.83.88-.49,0-.92-.13-1.29-.4-.37-.27-.66-.66-.86-1.16-.2-.5-.3-1.09-.3-1.75,0-1.04.22-1.85.66-2.43.44-.58,1.05-.87,1.82-.87s1.37.29,1.8.88c.44.59.65,1.39.65,2.42Zm-4.4,0c0,.88.17,1.56.5,2.05s.81.74,1.43.74,1.09-.25,1.43-.74c.34-.49.51-1.17.51-2.05s-.17-1.56-.51-2.04c-.34-.48-.82-.73-1.43-.73s-1.09.24-1.42.72-.5,1.17-.5,2.05Z"/>
        <path class="cls-2" d="m186.7,130.05c.24,0,.49.03.76.08l-.1.56c-.23-.07-.47-.1-.72-.1-.47,0-.86.23-1.17.69s-.46,1.04-.46,1.75v3.52h-.51v-6.37h.43l.05,1.15h.04c.23-.47.47-.8.73-.99s.57-.28.94-.28Z"/>
        <path class="cls-2" d="m188.28,128.4c0-.38.11-.56.32-.56.11,0,.19.05.25.15s.09.24.09.42-.03.31-.09.42-.14.15-.25.15c-.21,0-.32-.19-.32-.57Zm.58,8.14h-.51v-6.37h.51v6.37Z"/>
        <path class="cls-2" d="m193.96,134.88c0,.57-.19,1.01-.57,1.32-.38.31-.92.46-1.62.46-.75,0-1.34-.13-1.77-.39v-.63c.56.32,1.15.48,1.77.48.55,0,.97-.1,1.25-.31s.43-.49.43-.83c0-.32-.11-.59-.34-.81-.23-.22-.6-.43-1.12-.64-.56-.23-.95-.43-1.17-.59s-.4-.35-.51-.56-.17-.46-.17-.76c0-.48.17-.85.53-1.13s.84-.42,1.47-.42,1.17.13,1.71.39l-.19.53c-.55-.26-1.05-.39-1.52-.39s-.82.09-1.08.26-.4.41-.4.71c0,.33.1.6.31.8s.61.42,1.21.67c.5.21.87.39,1.1.56.23.17.4.35.51.57.12.21.17.46.17.74Z"/>
        <path class="cls-2" d="m38.26,154.54v-4.13c0-.64-.12-1.11-.35-1.4-.24-.29-.6-.44-1.1-.44-.67,0-1.15.19-1.46.58s-.46,1.01-.46,1.87v3.52h-.51v-6.37h.43l.1.87h.03c.36-.66,1.01-1,1.93-1,1.26,0,1.9.78,1.9,2.33v4.17h-.5Z"/>
        <path class="cls-2" d="m40.26,146.4c0-.38.11-.56.32-.56.11,0,.19.05.25.15s.09.24.09.42-.03.31-.09.42-.14.15-.25.15c-.21,0-.32-.19-.32-.57Zm.58,8.14h-.51v-6.37h.51v6.37Z"/>
        <path class="cls-2" d="m45.93,152.88c0,.57-.19,1.01-.57,1.32-.38.31-.92.46-1.62.46-.75,0-1.34-.13-1.77-.39v-.63c.56.32,1.15.48,1.77.48.55,0,.97-.1,1.25-.31s.43-.49.43-.83c0-.32-.11-.59-.34-.81-.23-.22-.6-.43-1.12-.64-.56-.23-.95-.43-1.17-.59s-.4-.35-.51-.56-.17-.46-.17-.76c0-.48.17-.85.53-1.13s.84-.42,1.47-.42,1.17.13,1.71.39l-.19.53c-.55-.26-1.05-.39-1.52-.39s-.82.09-1.08.26-.4.41-.4.71c0,.33.1.6.31.8s.61.42,1.21.67c.5.21.87.39,1.1.56.23.17.4.35.51.57.12.21.17.46.17.74Z"/>
        <path class="cls-2" d="m47.07,146.4c0-.38.11-.56.32-.56.11,0,.19.05.25.15s.09.24.09.42-.03.31-.09.42-.14.15-.25.15c-.21,0-.32-.19-.32-.57Zm.58,8.14h-.51v-6.37h.51v6.37Z"/>
        <path class="cls-2" d="m57.49,148.17v4.12c0,.64.12,1.11.35,1.4.24.29.6.44,1.1.44.66,0,1.15-.19,1.46-.57s.47-1.01.47-1.87v-3.52h.5v6.37h-.43l-.09-.88h-.03c-.36.66-1.01,1-1.93,1-1.27,0-1.9-.78-1.9-2.33v-4.16h.5Z"/>
        <path class="cls-2" d="m64.48,154.14c.32,0,.6-.03.84-.09v.47c-.25.09-.53.14-.85.14-.49,0-.86-.15-1.09-.45-.23-.3-.35-.77-.35-1.42v-4.11h-.83v-.34l.83-.26.26-1.44h.26v1.54h1.64v.5h-1.64v4.03c0,.49.08.85.23,1.08s.39.35.71.35Z"/>
        <path class="cls-2" d="m77.45,154.54l-.13-1.01h-.04c-.28.41-.57.7-.86.87-.3.17-.65.25-1.05.25-.55,0-.97-.16-1.28-.48s-.46-.76-.46-1.33c0-.62.23-1.1.68-1.45.45-.34,1.11-.53,1.97-.54l1.06-.04v-.42c0-.61-.11-1.06-.32-1.37-.22-.31-.56-.46-1.04-.46-.52,0-1.05.16-1.61.49l-.19-.5c.61-.33,1.22-.49,1.82-.49s1.07.18,1.37.54c.3.36.45.93.45,1.7v4.24h-.37Zm-2.05-.41c.59,0,1.06-.19,1.41-.58s.52-.93.52-1.62v-.63l-.97.05c-.78.04-1.34.18-1.67.42s-.5.6-.5,1.1c0,.4.11.71.32.93s.52.33.91.33Z"/>
        <path class="cls-2" d="m79.91,154.54h-.51v-9.12h.51v9.12Z"/>
        <path class="cls-2" d="m81.47,146.4c0-.38.11-.56.32-.56.11,0,.19.05.25.15s.09.24.09.42-.03.31-.09.42-.14.15-.25.15c-.21,0-.32-.19-.32-.57Zm.58,8.14h-.51v-6.37h.51v6.37Z"/>
        <path class="cls-2" d="m85.67,154.66c-.73,0-1.3-.28-1.7-.83-.4-.55-.61-1.36-.61-2.4s.2-1.91.61-2.49c.4-.59.98-.88,1.73-.88.81,0,1.41.34,1.81,1.02h.03l.09-.9h.43v9.25h-.5v-2.43c0-.48,0-.96.03-1.45h-.03c-.4.74-1.03,1.11-1.89,1.11Zm.01-.52c.68,0,1.16-.21,1.45-.64s.43-1.14.43-2.14v-.07c0-.96-.15-1.65-.44-2.07-.29-.43-.75-.64-1.39-.64-.6,0-1.06.24-1.37.73-.31.48-.47,1.2-.47,2.13s.15,1.57.46,2.02.75.68,1.33.68Z"/>
        <path class="cls-2" d="m90.15,148.17v4.12c0,.64.12,1.11.35,1.4.24.29.6.44,1.1.44.66,0,1.15-.19,1.46-.57s.47-1.01.47-1.87v-3.52h.5v6.37h-.43l-.09-.88h-.03c-.36.66-1.01,1-1.93,1-1.27,0-1.9-.78-1.9-2.33v-4.16h.5Z"/>
        <path class="cls-2" d="m95.6,146.4c0-.38.11-.56.32-.56.11,0,.19.05.25.15s.09.24.09.42-.03.31-.09.42-.14.15-.25.15c-.21,0-.32-.19-.32-.57Zm.58,8.14h-.51v-6.37h.51v6.37Z"/>
        <path class="cls-2" d="m100.2,154.66c-.86,0-1.48-.37-1.88-1.1h-.04l.02.49c.01.29.02.61.02.95v2.43h-.51v-9.25h.43l.1.91h.03c.38-.69,1-1.03,1.84-1.03.75,0,1.33.28,1.72.85.4.56.59,1.39.59,2.46s-.21,1.86-.62,2.43c-.42.58-.98.86-1.7.86Zm-.01-.52c.57,0,1.01-.24,1.33-.73.31-.48.47-1.16.47-2.03,0-1.87-.59-2.81-1.77-2.81-.65,0-1.13.2-1.43.61s-.46,1.07-.46,2v.19c0,1,.15,1.71.44,2.13.29.43.77.64,1.43.64Z"/>
        <path class="cls-2" d="m113.85,154.66c-.81,0-1.44-.29-1.89-.86s-.68-1.37-.68-2.4.22-1.83.66-2.44,1.03-.92,1.77-.92c.66,0,1.17.26,1.55.79.38.52.57,1.23.57,2.13v.47h-4.02c0,.88.19,1.54.54,2s.85.69,1.5.69c.32,0,.6-.03.84-.08s.55-.16.92-.33v.53c-.31.16-.6.26-.87.32-.27.06-.56.08-.88.08Zm-.15-6.09c-.54,0-.97.2-1.29.61-.33.4-.51.99-.57,1.75h3.45c0-.74-.14-1.32-.42-1.73s-.67-.62-1.16-.62Z"/>
        <path class="cls-2" d="m118.5,151.27l-1.94-3.09h.58l1.66,2.68,1.65-2.68h.56l-1.91,3.09,2.05,3.28h-.59l-1.75-2.84-1.76,2.84h-.56l2.02-3.28Z"/>
        <path class="cls-2" d="m132.15,154.66c-.81,0-1.44-.29-1.89-.86s-.68-1.37-.68-2.4.22-1.83.66-2.44,1.03-.92,1.77-.92c.66,0,1.17.26,1.55.79.38.52.57,1.23.57,2.13v.47h-4.02c0,.88.19,1.54.54,2s.85.69,1.5.69c.32,0,.6-.03.84-.08s.55-.16.92-.33v.53c-.31.16-.6.26-.87.32-.27.06-.56.08-.88.08Zm-.15-6.09c-.54,0-.97.2-1.29.61-.33.4-.51.99-.57,1.75h3.45c0-.74-.14-1.32-.42-1.73s-.67-.62-1.16-.62Z"/>
        <path class="cls-2" d="m138.82,154.54l-.13-1.01h-.04c-.28.41-.57.7-.86.87-.3.17-.65.25-1.05.25-.55,0-.97-.16-1.28-.48s-.46-.76-.46-1.33c0-.62.23-1.1.68-1.45.45-.34,1.11-.53,1.97-.54l1.06-.04v-.42c0-.61-.11-1.06-.32-1.37-.22-.31-.56-.46-1.04-.46-.52,0-1.05.16-1.61.49l-.19-.5c.61-.33,1.22-.49,1.82-.49s1.07.18,1.37.54c.3.36.45.93.45,1.7v4.24h-.37Zm-2.05-.41c.59,0,1.06-.19,1.41-.58s.52-.93.52-1.62v-.63l-.97.05c-.78.04-1.34.18-1.67.42s-.5.6-.5,1.1c0,.4.11.71.32.93s.52.33.91.33Z"/>
        <path class="cls-2" d="m150.76,154.66c-.8,0-1.42-.29-1.87-.86s-.68-1.38-.68-2.4.23-1.88.7-2.46c.47-.59,1.11-.88,1.92-.88.48,0,.94.1,1.38.29l-.14.52c-.48-.18-.9-.28-1.26-.28-.68,0-1.2.24-1.55.72s-.53,1.18-.53,2.08c0,.86.18,1.53.53,2.02s.84.73,1.48.73c.51,0,.98-.1,1.41-.31v.54c-.36.2-.82.3-1.4.3Z"/>
        <path class="cls-2" d="m157.9,151.35c0,1.04-.22,1.85-.66,2.43-.44.58-1.05.88-1.83.88-.49,0-.92-.13-1.29-.4-.37-.27-.66-.66-.86-1.16-.2-.5-.3-1.09-.3-1.75,0-1.04.22-1.85.66-2.43.44-.58,1.05-.87,1.82-.87s1.37.29,1.8.88c.44.59.65,1.39.65,2.42Zm-4.4,0c0,.88.17,1.56.5,2.05s.81.74,1.43.74,1.09-.25,1.43-.74c.34-.49.51-1.17.51-2.05s-.17-1.56-.51-2.04c-.34-.48-.82-.73-1.43-.73s-1.09.24-1.42.72-.5,1.17-.5,2.05Z"/>
        <path class="cls-2" d="m166.18,154.54v-4.18c0-.62-.11-1.07-.32-1.36s-.54-.43-.97-.43c-.57,0-.99.18-1.27.54s-.41.92-.41,1.69v3.73h-.52v-4.35c0-1.07-.43-1.61-1.29-1.61-.58,0-1.01.19-1.28.58s-.4,1.01-.4,1.87v3.52h-.51v-6.37h.42l.11.87h.03c.15-.32.37-.56.66-.74.28-.17.6-.26.94-.26.88,0,1.44.38,1.69,1.13h.02c.18-.36.42-.64.73-.84.31-.2.65-.29,1.04-.29.61,0,1.07.19,1.37.56.3.37.46.96.46,1.77v4.17h-.5Z"/>
        <path class="cls-2" d="m175.22,154.54v-4.18c0-.62-.11-1.07-.32-1.36s-.54-.43-.97-.43c-.57,0-.99.18-1.27.54s-.41.92-.41,1.69v3.73h-.52v-4.35c0-1.07-.43-1.61-1.29-1.61-.58,0-1.01.19-1.28.58s-.4,1.01-.4,1.87v3.52h-.51v-6.37h.42l.11.87h.03c.15-.32.37-.56.66-.74.28-.17.6-.26.94-.26.88,0,1.44.38,1.69,1.13h.02c.18-.36.42-.64.73-.84.31-.2.65-.29,1.04-.29.61,0,1.07.19,1.37.56.3.37.46.96.46,1.77v4.17h-.5Z"/>
        <path class="cls-2" d="m181.91,151.35c0,1.04-.22,1.85-.66,2.43-.44.58-1.05.88-1.83.88-.49,0-.92-.13-1.29-.4-.37-.27-.66-.66-.86-1.16-.2-.5-.3-1.09-.3-1.75,0-1.04.22-1.85.66-2.43.44-.58,1.05-.87,1.82-.87s1.37.29,1.8.88c.44.59.65,1.39.65,2.42Zm-4.4,0c0,.88.17,1.56.5,2.05s.81.74,1.43.74,1.09-.25,1.43-.74c.34-.49.51-1.17.51-2.05s-.17-1.56-.51-2.04c-.34-.48-.82-.73-1.43-.73s-1.09.24-1.42.72-.5,1.17-.5,2.05Z"/>
        <path class="cls-2" d="m185.26,148.05c.4,0,.75.08,1.05.25s.56.46.79.86h.03c-.02-.49-.03-.97-.03-1.45v-2.29h.5v9.12h-.33l-.13-.97h-.04c-.42.73-1.03,1.09-1.83,1.09s-1.36-.27-1.76-.82c-.41-.55-.61-1.34-.61-2.39,0-1.1.2-1.94.61-2.53.4-.58.99-.87,1.76-.87Zm0,.53c-.61,0-1.07.24-1.37.73s-.46,1.2-.46,2.13c0,1.8.61,2.71,1.84,2.71.63,0,1.09-.21,1.38-.63s.44-1.11.44-2.07v-.1c0-.98-.14-1.69-.43-2.12s-.76-.65-1.4-.65Z"/>
        <path class="cls-2" d="m193.85,151.35c0,1.04-.22,1.85-.66,2.43-.44.58-1.05.88-1.83.88-.49,0-.92-.13-1.29-.4-.37-.27-.66-.66-.86-1.16-.2-.5-.3-1.09-.3-1.75,0-1.04.22-1.85.66-2.43.44-.58,1.05-.87,1.82-.87s1.37.29,1.8.88c.44.59.65,1.39.65,2.42Zm-4.4,0c0,.88.17,1.56.5,2.05s.81.74,1.43.74,1.09-.25,1.43-.74c.34-.49.51-1.17.51-2.05s-.17-1.56-.51-2.04c-.34-.48-.82-.73-1.43-.73s-1.09.24-1.42.72-.5,1.17-.5,2.05Z"/>
        <path class="cls-2" d="m36.59,172.66c-.8,0-1.42-.29-1.87-.86s-.68-1.38-.68-2.4.23-1.88.7-2.46c.47-.59,1.11-.88,1.92-.88.48,0,.94.1,1.38.29l-.14.52c-.48-.18-.9-.28-1.26-.28-.68,0-1.2.24-1.55.72s-.53,1.18-.53,2.08c0,.86.18,1.53.53,2.02s.84.73,1.48.73c.51,0,.98-.1,1.41-.31v.54c-.36.2-.82.3-1.4.3Z"/>
        <path class="cls-2" d="m43.74,169.35c0,1.04-.22,1.85-.66,2.43-.44.58-1.05.88-1.83.88-.49,0-.92-.13-1.29-.4-.37-.27-.66-.66-.86-1.16-.2-.5-.3-1.09-.3-1.75,0-1.04.22-1.85.66-2.43.44-.58,1.05-.87,1.82-.87s1.37.29,1.8.88c.44.59.65,1.39.65,2.42Zm-4.4,0c0,.88.17,1.56.5,2.05s.81.74,1.43.74,1.09-.25,1.43-.74c.34-.49.51-1.17.51-2.05s-.17-1.56-.51-2.04c-.34-.48-.82-.73-1.43-.73s-1.09.24-1.42.72-.5,1.17-.5,2.05Z"/>
        <path class="cls-2" d="m48.94,172.54v-4.13c0-.64-.12-1.11-.35-1.4-.24-.29-.6-.44-1.1-.44-.67,0-1.15.19-1.46.58s-.46,1.01-.46,1.87v3.52h-.51v-6.37h.43l.1.87h.03c.36-.66,1.01-1,1.93-1,1.26,0,1.9.78,1.9,2.33v4.17h-.5Z"/>
        <path class="cls-2" d="m54.47,170.88c0,.57-.19,1.01-.57,1.32-.38.31-.92.46-1.62.46-.75,0-1.34-.13-1.77-.39v-.63c.56.32,1.15.48,1.77.48.55,0,.97-.1,1.25-.31s.43-.49.43-.83c0-.32-.11-.59-.34-.81-.23-.22-.6-.43-1.12-.64-.56-.23-.95-.43-1.17-.59s-.4-.35-.51-.56-.17-.46-.17-.76c0-.48.17-.85.53-1.13s.84-.42,1.47-.42,1.17.13,1.71.39l-.19.53c-.55-.26-1.05-.39-1.52-.39s-.82.09-1.08.26-.4.41-.4.71c0,.33.1.6.31.8s.61.42,1.21.67c.5.21.87.39,1.1.56.23.17.4.35.51.57.12.21.17.46.17.74Z"/>
        <path class="cls-2" d="m57.93,172.66c-.81,0-1.44-.29-1.89-.86s-.68-1.37-.68-2.4.22-1.83.66-2.44,1.03-.92,1.77-.92c.66,0,1.17.26,1.55.79.38.52.57,1.23.57,2.13v.47h-4.02c0,.88.19,1.54.54,2s.85.69,1.5.69c.32,0,.6-.03.84-.08s.55-.16.92-.33v.53c-.31.16-.6.26-.87.32-.27.06-.56.08-.88.08Zm-.15-6.09c-.54,0-.97.2-1.29.61-.33.4-.51.99-.57,1.75h3.45c0-.74-.14-1.32-.42-1.73s-.67-.62-1.16-.62Z"/>
        <path class="cls-2" d="m63.2,172.66c-.73,0-1.3-.28-1.7-.83-.4-.55-.61-1.36-.61-2.4s.2-1.91.61-2.49c.4-.59.98-.88,1.73-.88.81,0,1.41.34,1.81,1.02h.03l.09-.9h.43v9.25h-.5v-2.43c0-.48,0-.96.03-1.45h-.03c-.4.74-1.03,1.11-1.89,1.11Zm.01-.52c.68,0,1.16-.21,1.45-.64s.43-1.14.43-2.14v-.07c0-.96-.15-1.65-.44-2.07-.29-.43-.75-.64-1.39-.64-.6,0-1.06.24-1.37.73-.31.48-.47,1.2-.47,2.13s.15,1.57.46,2.02.75.68,1.33.68Z"/>
        <path class="cls-2" d="m67.67,166.17v4.12c0,.64.12,1.11.35,1.4.24.29.6.44,1.1.44.66,0,1.15-.19,1.46-.57s.47-1.01.47-1.87v-3.52h.5v6.37h-.43l-.09-.88h-.03c-.36.66-1.01,1-1.93,1-1.27,0-1.9-.78-1.9-2.33v-4.16h.5Z"/>
        <path class="cls-2" d="m76.58,172.54l-.13-1.01h-.04c-.28.41-.57.7-.86.87-.3.17-.65.25-1.05.25-.55,0-.97-.16-1.28-.48s-.46-.76-.46-1.33c0-.62.23-1.1.68-1.45.45-.34,1.11-.53,1.97-.54l1.06-.04v-.42c0-.61-.11-1.06-.32-1.37-.22-.31-.56-.46-1.04-.46-.52,0-1.05.16-1.61.49l-.19-.5c.61-.33,1.22-.49,1.82-.49s1.07.18,1.37.54c.3.36.45.93.45,1.7v4.24h-.37Zm-2.05-.41c.59,0,1.06-.19,1.41-.58s.52-.93.52-1.62v-.63l-.97.05c-.78.04-1.34.18-1.67.42s-.5.6-.5,1.1c0,.4.11.71.32.93s.52.33.91.33Z"/>
        <path class="cls-2" d="m80,172.14c.32,0,.6-.03.84-.09v.47c-.25.09-.53.14-.85.14-.49,0-.86-.15-1.09-.45-.23-.3-.35-.77-.35-1.42v-4.11h-.83v-.34l.83-.26.26-1.44h.26v1.54h1.64v.5h-1.64v4.03c0,.49.08.85.23,1.08s.39.35.71.35Z"/>
        <path class="cls-2" d="m81.71,172.08c0-.38.14-.57.41-.57s.42.19.42.57-.14.57-.42.57-.41-.19-.41-.57Z"/>
        <path class="cls-2" d="m93.44,168.18c0,1.44-.33,2.52-.99,3.26-.66.74-1.63,1.1-2.91,1.1h-1.79v-8.57h2.03c1.2,0,2.11.36,2.73,1.07s.94,1.76.94,3.13Zm-.57.02c0-1.23-.27-2.15-.82-2.77-.55-.62-1.35-.93-2.4-.93h-1.38v7.51h1.24c2.24,0,3.36-1.27,3.36-3.81Z"/>
        <path class="cls-2" d="m95.25,166.17v4.12c0,.64.12,1.11.35,1.4.24.29.6.44,1.1.44.66,0,1.15-.19,1.46-.57s.47-1.01.47-1.87v-3.52h.5v6.37h-.43l-.09-.88h-.03c-.36.66-1.01,1-1.93,1-1.27,0-1.9-.78-1.9-2.33v-4.16h.5Z"/>
        <path class="cls-2" d="m100.7,164.4c0-.38.11-.56.32-.56.11,0,.19.05.25.15s.09.24.09.42-.03.31-.09.42-.14.15-.25.15c-.21,0-.32-.19-.32-.57Zm.58,8.14h-.51v-6.37h.51v6.37Z"/>
        <path class="cls-2" d="m106.37,170.88c0,.57-.19,1.01-.57,1.32-.38.31-.92.46-1.62.46-.75,0-1.34-.13-1.77-.39v-.63c.56.32,1.15.48,1.77.48.55,0,.97-.1,1.25-.31s.43-.49.43-.83c0-.32-.11-.59-.34-.81-.23-.22-.6-.43-1.12-.64-.56-.23-.95-.43-1.17-.59s-.4-.35-.51-.56-.17-.46-.17-.76c0-.48.17-.85.53-1.13s.84-.42,1.47-.42,1.17.13,1.71.39l-.19.53c-.55-.26-1.05-.39-1.52-.39s-.82.09-1.08.26-.4.41-.4.71c0,.33.1.6.31.8s.61.42,1.21.67c.5.21.87.39,1.1.56.23.17.4.35.51.57.12.21.17.46.17.74Z"/>
        <path class="cls-2" d="m114.49,172.54l-.13-1.01h-.04c-.28.41-.57.7-.86.87-.3.17-.65.25-1.05.25-.55,0-.97-.16-1.28-.48s-.46-.76-.46-1.33c0-.62.23-1.1.68-1.45.45-.34,1.11-.53,1.97-.54l1.06-.04v-.42c0-.61-.11-1.06-.32-1.37-.22-.31-.56-.46-1.04-.46-.52,0-1.05.16-1.61.49l-.19-.5c.61-.33,1.22-.49,1.82-.49s1.07.18,1.37.54c.3.36.45.93.45,1.7v4.24h-.37Zm-2.05-.41c.59,0,1.06-.19,1.41-.58s.52-.93.52-1.62v-.63l-.97.05c-.78.04-1.34.18-1.67.42s-.5.6-.5,1.1c0,.4.11.71.32.93s.52.33.91.33Z"/>
        <path class="cls-2" d="m116.88,166.17v4.12c0,.64.12,1.11.35,1.4.24.29.6.44,1.1.44.66,0,1.15-.19,1.46-.57s.47-1.01.47-1.87v-3.52h.5v6.37h-.43l-.09-.88h-.03c-.36.66-1.01,1-1.93,1-1.27,0-1.9-.78-1.9-2.33v-4.16h.5Z"/>
        <path class="cls-2" d="m123.88,172.14c.32,0,.6-.03.84-.09v.47c-.25.09-.53.14-.85.14-.49,0-.86-.15-1.09-.45-.23-.3-.35-.77-.35-1.42v-4.11h-.83v-.34l.83-.26.26-1.44h.26v1.54h1.64v.5h-1.64v4.03c0,.49.08.85.23,1.08s.39.35.71.35Z"/>
        <path class="cls-2" d="m127.95,172.66c-.81,0-1.44-.29-1.89-.86s-.68-1.37-.68-2.4.22-1.83.66-2.44,1.03-.92,1.77-.92c.66,0,1.17.26,1.55.79.38.52.57,1.23.57,2.13v.47h-4.02c0,.88.19,1.54.54,2s.85.69,1.5.69c.32,0,.6-.03.84-.08s.55-.16.92-.33v.53c-.31.16-.6.26-.87.32-.27.06-.56.08-.88.08Zm-.15-6.09c-.54,0-.97.2-1.29.61-.33.4-.51.99-.57,1.75h3.45c0-.74-.14-1.32-.42-1.73s-.67-.62-1.16-.62Z"/>
        <path class="cls-2" d="m134.69,164.4c0-.38.11-.56.32-.56.11,0,.19.05.25.15s.09.24.09.42-.03.31-.09.42-.14.15-.25.15c-.21,0-.32-.19-.32-.57Zm.58,8.14h-.51v-6.37h.51v6.37Z"/>
        <path class="cls-2" d="m139.1,166.05c.24,0,.49.03.76.08l-.1.56c-.23-.07-.47-.1-.72-.1-.47,0-.86.23-1.17.69s-.46,1.04-.46,1.75v3.52h-.51v-6.37h.43l.05,1.15h.04c.23-.47.47-.8.73-.99s.57-.28.94-.28Z"/>
        <path class="cls-2" d="m141.2,166.17v4.12c0,.64.12,1.11.35,1.4.24.29.6.44,1.1.44.66,0,1.15-.19,1.46-.57s.47-1.01.47-1.87v-3.52h.5v6.37h-.43l-.09-.88h-.03c-.36.66-1.01,1-1.93,1-1.27,0-1.9-.78-1.9-2.33v-4.16h.5Z"/>
        <path class="cls-2" d="m148.92,166.05c.24,0,.49.03.76.08l-.1.56c-.23-.07-.47-.1-.72-.1-.47,0-.86.23-1.17.69s-.46,1.04-.46,1.75v3.52h-.51v-6.37h.43l.05,1.15h.04c.23-.47.47-.8.73-.99s.57-.28.94-.28Z"/>
        <path class="cls-2" d="m152.83,172.66c-.81,0-1.44-.29-1.89-.86s-.68-1.37-.68-2.4.22-1.83.66-2.44,1.03-.92,1.77-.92c.66,0,1.17.26,1.55.79.38.52.57,1.23.57,2.13v.47h-4.02c0,.88.19,1.54.54,2s.85.69,1.5.69c.32,0,.6-.03.84-.08s.55-.16.92-.33v.53c-.31.16-.6.26-.87.32-.27.06-.56.08-.88.08Zm-.15-6.09c-.54,0-.97.2-1.29.61-.33.4-.51.99-.57,1.75h3.45c0-.74-.14-1.32-.42-1.73s-.67-.62-1.16-.62Z"/>
        <path class="cls-2" d="m161.69,166.05c.4,0,.75.08,1.05.25s.56.46.79.86h.03c-.02-.49-.03-.97-.03-1.45v-2.29h.5v9.12h-.33l-.13-.97h-.04c-.42.73-1.03,1.09-1.83,1.09s-1.36-.27-1.76-.82c-.41-.55-.61-1.34-.61-2.39,0-1.1.2-1.94.61-2.53.4-.58.99-.87,1.76-.87Zm0,.53c-.61,0-1.07.24-1.37.73s-.46,1.2-.46,2.13c0,1.8.61,2.71,1.84,2.71.63,0,1.09-.21,1.38-.63s.44-1.11.44-2.07v-.1c0-.98-.14-1.69-.43-2.12s-.76-.65-1.4-.65Z"/>
        <path class="cls-2" d="m170.28,169.35c0,1.04-.22,1.85-.66,2.43-.44.58-1.05.88-1.83.88-.49,0-.92-.13-1.29-.4-.37-.27-.66-.66-.86-1.16-.2-.5-.3-1.09-.3-1.75,0-1.04.22-1.85.66-2.43.44-.58,1.05-.87,1.82-.87s1.37.29,1.8.88c.44.59.65,1.39.65,2.42Zm-4.4,0c0,.88.17,1.56.5,2.05s.81.74,1.43.74,1.09-.25,1.43-.74c.34-.49.51-1.17.51-2.05s-.17-1.56-.51-2.04c-.34-.48-.82-.73-1.43-.73s-1.09.24-1.42.72-.5,1.17-.5,2.05Z"/>
        <path class="cls-2" d="m172.1,172.54h-.51v-9.12h.51v9.12Z"/>
        <path class="cls-2" d="m178.35,169.35c0,1.04-.22,1.85-.66,2.43-.44.58-1.05.88-1.83.88-.49,0-.92-.13-1.29-.4-.37-.27-.66-.66-.86-1.16-.2-.5-.3-1.09-.3-1.75,0-1.04.22-1.85.66-2.43.44-.58,1.05-.87,1.82-.87s1.37.29,1.8.88c.44.59.65,1.39.65,2.42Zm-4.4,0c0,.88.17,1.56.5,2.05s.81.74,1.43.74,1.09-.25,1.43-.74c.34-.49.51-1.17.51-2.05s-.17-1.56-.51-2.04c-.34-.48-.82-.73-1.43-.73s-1.09.24-1.42.72-.5,1.17-.5,2.05Z"/>
        <path class="cls-2" d="m181.86,166.05c.24,0,.49.03.76.08l-.1.56c-.23-.07-.47-.1-.72-.1-.47,0-.86.23-1.17.69s-.46,1.04-.46,1.75v3.52h-.51v-6.37h.43l.05,1.15h.04c.23-.47.47-.8.73-.99s.57-.28.94-.28Z"/>
        <path class="cls-2" d="m186.98,164.4c0-.38.11-.56.32-.56.11,0,.19.05.25.15s.09.24.09.42-.03.31-.09.42-.14.15-.25.15c-.21,0-.32-.19-.32-.57Zm.58,8.14h-.51v-6.37h.51v6.37Z"/>
        <path class="cls-2" d="m193.08,172.54v-4.13c0-.64-.12-1.11-.35-1.4-.24-.29-.6-.44-1.1-.44-.67,0-1.15.19-1.46.58s-.46,1.01-.46,1.87v3.52h-.51v-6.37h.43l.1.87h.03c.36-.66,1.01-1,1.93-1,1.26,0,1.9.78,1.9,2.33v4.17h-.5Z"/>
        <path class="cls-2" d="m36.56,184.05c.24,0,.49.03.76.08l-.1.56c-.23-.07-.47-.1-.72-.1-.47,0-.86.23-1.17.69s-.46,1.04-.46,1.75v3.52h-.51v-6.37h.43l.05,1.15h.04c.23-.47.47-.8.73-.99s.57-.28.94-.28Z"/>
        <path class="cls-2" d="m40.48,190.66c-.81,0-1.44-.29-1.89-.86s-.68-1.37-.68-2.4.22-1.83.66-2.44,1.03-.92,1.77-.92c.66,0,1.17.26,1.55.79.38.52.57,1.23.57,2.13v.47h-4.02c0,.88.19,1.54.54,2s.85.69,1.5.69c.32,0,.6-.03.84-.08s.55-.16.92-.33v.53c-.31.16-.6.26-.87.32-.27.06-.56.08-.88.08Zm-.15-6.09c-.54,0-.97.2-1.29.61-.33.4-.51.99-.57,1.75h3.45c0-.74-.14-1.32-.42-1.73s-.67-.62-1.16-.62Z"/>
        <path class="cls-2" d="m46.14,190.66c-.86,0-1.48-.37-1.88-1.1h-.04l.02.49c.01.29.02.61.02.95v2.43h-.51v-9.25h.43l.1.91h.03c.38-.69,1-1.03,1.84-1.03.75,0,1.33.28,1.72.85.4.56.59,1.39.59,2.46s-.21,1.86-.62,2.43c-.42.58-.98.86-1.7.86Zm-.01-.52c.57,0,1.01-.24,1.33-.73.31-.48.47-1.16.47-2.03,0-1.87-.59-2.81-1.77-2.81-.65,0-1.13.2-1.43.61s-.46,1.07-.46,2v.19c0,1,.15,1.71.44,2.13.29.43.77.64,1.43.64Z"/>
        <path class="cls-2" d="m51.97,184.05c.24,0,.49.03.76.08l-.1.56c-.23-.07-.47-.1-.72-.1-.47,0-.86.23-1.17.69s-.46,1.04-.46,1.75v3.52h-.51v-6.37h.43l.05,1.15h.04c.23-.47.47-.8.73-.99s.57-.28.94-.28Z"/>
        <path class="cls-2" d="m55.89,190.66c-.81,0-1.44-.29-1.89-.86s-.68-1.37-.68-2.4.22-1.83.66-2.44,1.03-.92,1.77-.92c.66,0,1.17.26,1.55.79.38.52.57,1.23.57,2.13v.47h-4.02c0,.88.19,1.54.54,2s.85.69,1.5.69c.32,0,.6-.03.84-.08s.55-.16.92-.33v.53c-.31.16-.6.26-.87.32-.27.06-.56.08-.88.08Zm-.15-6.09c-.54,0-.97.2-1.29.61-.33.4-.51.99-.57,1.75h3.45c0-.74-.14-1.32-.42-1.73s-.67-.62-1.16-.62Z"/>
        <path class="cls-2" d="m63.06,190.54v-4.13c0-.64-.12-1.11-.35-1.4-.24-.29-.6-.44-1.1-.44-.67,0-1.15.19-1.46.58s-.46,1.01-.46,1.87v3.52h-.51v-9.12h.51v2.9l-.03.81h.04c.21-.38.47-.66.79-.83s.71-.26,1.18-.26c1.26,0,1.9.78,1.9,2.33v4.17h-.5Z"/>
        <path class="cls-2" d="m67.38,190.66c-.81,0-1.44-.29-1.89-.86s-.68-1.37-.68-2.4.22-1.83.66-2.44,1.03-.92,1.77-.92c.66,0,1.17.26,1.55.79.38.52.57,1.23.57,2.13v.47h-4.02c0,.88.19,1.54.54,2s.85.69,1.5.69c.32,0,.6-.03.84-.08s.55-.16.92-.33v.53c-.31.16-.6.26-.87.32-.27.06-.56.08-.88.08Zm-.15-6.09c-.54,0-.97.2-1.29.61-.33.4-.51.99-.57,1.75h3.45c0-.74-.14-1.32-.42-1.73s-.67-.62-1.16-.62Z"/>
        <path class="cls-2" d="m74.55,190.54v-4.13c0-.64-.12-1.11-.35-1.4-.24-.29-.6-.44-1.1-.44-.67,0-1.15.19-1.46.58s-.46,1.01-.46,1.87v3.52h-.51v-6.37h.43l.1.87h.03c.36-.66,1.01-1,1.93-1,1.26,0,1.9.78,1.9,2.33v4.17h-.5Z"/>
        <path class="cls-2" d="m78.67,184.05c.4,0,.75.08,1.05.25s.56.46.79.86h.03c-.02-.49-.03-.97-.03-1.45v-2.29h.5v9.12h-.33l-.13-.97h-.04c-.42.73-1.03,1.09-1.83,1.09s-1.36-.27-1.76-.82c-.41-.55-.61-1.34-.61-2.39,0-1.1.2-1.94.61-2.53.4-.58.99-.87,1.76-.87Zm0,.53c-.61,0-1.07.24-1.37.73s-.46,1.2-.46,2.13c0,1.8.61,2.71,1.84,2.71.63,0,1.09-.21,1.38-.63s.44-1.11.44-2.07v-.1c0-.98-.14-1.69-.43-2.12s-.76-.65-1.4-.65Z"/>
        <path class="cls-2" d="m84.9,190.66c-.81,0-1.44-.29-1.89-.86s-.68-1.37-.68-2.4.22-1.83.66-2.44,1.03-.92,1.77-.92c.66,0,1.17.26,1.55.79.38.52.57,1.23.57,2.13v.47h-4.02c0,.88.19,1.54.54,2s.85.69,1.5.69c.32,0,.6-.03.84-.08s.55-.16.92-.33v.53c-.31.16-.6.26-.87.32-.27.06-.56.08-.88.08Zm-.15-6.09c-.54,0-.97.2-1.29.61-.33.4-.51.99-.57,1.75h3.45c0-.74-.14-1.32-.42-1.73s-.67-.62-1.16-.62Z"/>
        <path class="cls-2" d="m90.38,184.05c.24,0,.49.03.76.08l-.1.56c-.23-.07-.47-.1-.72-.1-.47,0-.86.23-1.17.69s-.46,1.04-.46,1.75v3.52h-.51v-6.37h.43l.05,1.15h.04c.23-.47.47-.8.73-.99s.57-.28.94-.28Z"/>
        <path class="cls-2" d="m91.97,182.4c0-.38.11-.56.32-.56.11,0,.19.05.25.15s.09.24.09.42-.03.31-.09.42-.14.15-.25.15c-.21,0-.32-.19-.32-.57Zm.58,8.14h-.51v-6.37h.51v6.37Z"/>
        <path class="cls-2" d="m95.66,190.14c.32,0,.6-.03.84-.09v.47c-.25.09-.53.14-.85.14-.49,0-.86-.15-1.09-.45-.23-.3-.35-.77-.35-1.42v-4.11h-.83v-.34l.83-.26.26-1.44h.26v1.54h1.64v.5h-1.64v4.03c0,.49.08.85.23,1.08s.39.35.71.35Z"/>
        <path class="cls-2" d="m99.75,182.4c0-.38.11-.56.32-.56.11,0,.19.05.25.15s.09.24.09.42-.03.31-.09.42-.14.15-.25.15c-.21,0-.32-.19-.32-.57Zm.58,8.14h-.51v-6.37h.51v6.37Z"/>
        <path class="cls-2" d="m105.85,190.54v-4.13c0-.64-.12-1.11-.35-1.4-.24-.29-.6-.44-1.1-.44-.67,0-1.15.19-1.46.58s-.46,1.01-.46,1.87v3.52h-.51v-6.37h.43l.1.87h.03c.36-.66,1.01-1,1.93-1,1.26,0,1.9.78,1.9,2.33v4.17h-.5Z"/>
        <path class="cls-2" d="m111.51,190.54l-2.15-6.37h.52l1.44,4.33c.19.55.33,1.04.43,1.45h.03c.14-.53.28-1.02.43-1.46l1.44-4.32h.52l-2.15,6.37h-.51Z"/>
        <path class="cls-2" d="m119.49,187.35c0,1.04-.22,1.85-.66,2.43-.44.58-1.05.88-1.83.88-.49,0-.92-.13-1.29-.4-.37-.27-.66-.66-.86-1.16-.2-.5-.3-1.09-.3-1.75,0-1.04.22-1.85.66-2.43.44-.58,1.05-.87,1.82-.87s1.37.29,1.8.88c.44.59.65,1.39.65,2.42Zm-4.4,0c0,.88.17,1.56.5,2.05s.81.74,1.43.74,1.09-.25,1.43-.74c.34-.49.51-1.17.51-2.05s-.17-1.56-.51-2.04c-.34-.48-.82-.73-1.43-.73s-1.09.24-1.42.72-.5,1.17-.5,2.05Z"/>
        <path class="cls-2" d="m121.31,190.54h-.51v-9.12h.51v9.12Z"/>
        <path class="cls-2" d="m123.38,184.17v4.12c0,.64.12,1.11.35,1.4.24.29.6.44,1.1.44.66,0,1.15-.19,1.46-.57s.47-1.01.47-1.87v-3.52h.5v6.37h-.43l-.09-.88h-.03c-.36.66-1.01,1-1.93,1-1.27,0-1.9-.78-1.9-2.33v-4.16h.5Z"/>
        <path class="cls-2" d="m131.29,190.66c-.86,0-1.48-.37-1.88-1.1h-.04l.02.49c.01.29.02.61.02.95v2.43h-.51v-9.25h.43l.1.91h.03c.38-.69,1-1.03,1.84-1.03.75,0,1.33.28,1.72.85.4.56.59,1.39.59,2.46s-.21,1.86-.62,2.43c-.42.58-.98.86-1.7.86Zm-.01-.52c.57,0,1.01-.24,1.33-.73.31-.48.47-1.16.47-2.03,0-1.87-.59-2.81-1.77-2.81-.65,0-1.13.2-1.43.61s-.46,1.07-.46,2v.19c0,1,.15,1.71.44,2.13.29.43.77.64,1.43.64Z"/>
        <path class="cls-2" d="m136.4,190.14c.32,0,.6-.03.84-.09v.47c-.25.09-.53.14-.85.14-.49,0-.86-.15-1.09-.45-.23-.3-.35-.77-.35-1.42v-4.11h-.83v-.34l.83-.26.26-1.44h.26v1.54h1.64v.5h-1.64v4.03c0,.49.08.85.23,1.08s.39.35.71.35Z"/>
        <path class="cls-2" d="m141.6,190.54l-.13-1.01h-.04c-.28.41-.57.7-.86.87-.3.17-.65.25-1.05.25-.55,0-.97-.16-1.28-.48s-.46-.76-.46-1.33c0-.62.23-1.1.68-1.45.45-.34,1.11-.53,1.97-.54l1.06-.04v-.42c0-.61-.11-1.06-.32-1.37-.22-.31-.56-.46-1.04-.46-.52,0-1.05.16-1.61.49l-.19-.5c.61-.33,1.22-.49,1.82-.49s1.07.18,1.37.54c.3.36.45.93.45,1.7v4.24h-.37Zm-2.05-.41c.59,0,1.06-.19,1.41-.58s.52-.93.52-1.62v-.63l-.97.05c-.78.04-1.34.18-1.67.42s-.5.6-.5,1.1c0,.4.11.71.32.93s.52.33.91.33Z"/>
        <path class="cls-2" d="m145.02,190.14c.32,0,.6-.03.84-.09v.47c-.25.09-.53.14-.85.14-.49,0-.86-.15-1.09-.45-.23-.3-.35-.77-.35-1.42v-4.11h-.83v-.34l.83-.26.26-1.44h.26v1.54h1.64v.5h-1.64v4.03c0,.49.08.85.23,1.08s.39.35.71.35Z"/>
        <path class="cls-2" d="m149.08,190.66c-.81,0-1.44-.29-1.89-.86s-.68-1.37-.68-2.4.22-1.83.66-2.44,1.03-.92,1.77-.92c.66,0,1.17.26,1.55.79.38.52.57,1.23.57,2.13v.47h-4.02c0,.88.19,1.54.54,2s.85.69,1.5.69c.32,0,.6-.03.84-.08s.55-.16.92-.33v.53c-.31.16-.6.26-.87.32-.27.06-.56.08-.88.08Zm-.15-6.09c-.54,0-.97.2-1.29.61-.33.4-.51.99-.57,1.75h3.45c0-.74-.14-1.32-.42-1.73s-.67-.62-1.16-.62Z"/>
        <path class="cls-2" d="m155.94,190.54l-2.15-6.37h.52l1.44,4.33c.19.55.33,1.04.43,1.45h.03c.14-.53.28-1.02.43-1.46l1.44-4.32h.52l-2.15,6.37h-.51Z"/>
        <path class="cls-2" d="m161.56,190.66c-.81,0-1.44-.29-1.89-.86s-.68-1.37-.68-2.4.22-1.83.66-2.44,1.03-.92,1.77-.92c.66,0,1.17.26,1.55.79.38.52.57,1.23.57,2.13v.47h-4.02c0,.88.19,1.54.54,2s.85.69,1.5.69c.32,0,.6-.03.84-.08s.55-.16.92-.33v.53c-.31.16-.6.26-.87.32-.27.06-.56.08-.88.08Zm-.15-6.09c-.54,0-.97.2-1.29.61-.33.4-.51.99-.57,1.75h3.45c0-.74-.14-1.32-.42-1.73s-.67-.62-1.16-.62Z"/>
        <path class="cls-2" d="m165.35,190.54h-.51v-9.12h.51v9.12Z"/>
        <path class="cls-2" d="m166.92,182.4c0-.38.11-.56.32-.56.11,0,.19.05.25.15s.09.24.09.42-.03.31-.09.42-.14.15-.25.15c-.21,0-.32-.19-.32-.57Zm.58,8.14h-.51v-6.37h.51v6.37Z"/>
        <path class="cls-2" d="m170.6,190.14c.32,0,.6-.03.84-.09v.47c-.25.09-.53.14-.85.14-.49,0-.86-.15-1.09-.45-.23-.3-.35-.77-.35-1.42v-4.11h-.83v-.34l.83-.26.26-1.44h.26v1.54h1.64v.5h-1.64v4.03c0,.49.08.85.23,1.08s.39.35.71.35Z"/>
        <path class="cls-2" d="m177.02,190.66c-.81,0-1.44-.29-1.89-.86s-.68-1.37-.68-2.4.22-1.83.66-2.44,1.03-.92,1.77-.92c.66,0,1.17.26,1.55.79.38.52.57,1.23.57,2.13v.47h-4.02c0,.88.19,1.54.54,2s.85.69,1.5.69c.32,0,.6-.03.84-.08s.55-.16.92-.33v.53c-.31.16-.6.26-.87.32-.27.06-.56.08-.88.08Zm-.15-6.09c-.54,0-.97.2-1.29.61-.33.4-.51.99-.57,1.75h3.45c0-.74-.14-1.32-.42-1.73s-.67-.62-1.16-.62Z"/>
        <path class="cls-2" d="m183.76,188.88c0,.57-.19,1.01-.57,1.32-.38.31-.92.46-1.62.46-.75,0-1.34-.13-1.77-.39v-.63c.56.32,1.15.48,1.77.48.55,0,.97-.1,1.25-.31s.43-.49.43-.83c0-.32-.11-.59-.34-.81-.23-.22-.6-.43-1.12-.64-.56-.23-.95-.43-1.17-.59s-.4-.35-.51-.56-.17-.46-.17-.76c0-.48.17-.85.53-1.13s.84-.42,1.47-.42,1.17.13,1.71.39l-.19.53c-.55-.26-1.05-.39-1.52-.39s-.82.09-1.08.26-.4.41-.4.71c0,.33.1.6.31.8s.61.42,1.21.67c.5.21.87.39,1.1.56.23.17.4.35.51.57.12.21.17.46.17.74Z"/>
        <path class="cls-2" d="m188.42,188.88c0,.57-.19,1.01-.57,1.32-.38.31-.92.46-1.62.46-.75,0-1.34-.13-1.77-.39v-.63c.56.32,1.15.48,1.77.48.55,0,.97-.1,1.25-.31s.43-.49.43-.83c0-.32-.11-.59-.34-.81-.23-.22-.6-.43-1.12-.64-.56-.23-.95-.43-1.17-.59s-.4-.35-.51-.56-.17-.46-.17-.76c0-.48.17-.85.53-1.13s.84-.42,1.47-.42,1.17.13,1.71.39l-.19.53c-.55-.26-1.05-.39-1.52-.39s-.82.09-1.08.26-.4.41-.4.71c0,.33.1.6.31.8s.61.42,1.21.67c.5.21.87.39,1.1.56.23.17.4.35.51.57.12.21.17.46.17.74Z"/>
        <path class="cls-2" d="m191.88,190.66c-.81,0-1.44-.29-1.89-.86s-.68-1.37-.68-2.4.22-1.83.66-2.44,1.03-.92,1.77-.92c.66,0,1.17.26,1.55.79.38.52.57,1.23.57,2.13v.47h-4.02c0,.88.19,1.54.54,2s.85.69,1.5.69c.32,0,.6-.03.84-.08s.55-.16.92-.33v.53c-.31.16-.6.26-.87.32-.27.06-.56.08-.88.08Zm-.15-6.09c-.54,0-.97.2-1.29.61-.33.4-.51.99-.57,1.75h3.45c0-.74-.14-1.32-.42-1.73s-.67-.62-1.16-.62Z"/>
        <path class="cls-2" d="m36.59,208.66c-.8,0-1.42-.29-1.87-.86s-.68-1.38-.68-2.4.23-1.88.7-2.46c.47-.59,1.11-.88,1.92-.88.48,0,.94.1,1.38.29l-.14.52c-.48-.18-.9-.28-1.26-.28-.68,0-1.2.24-1.55.72s-.53,1.18-.53,2.08c0,.86.18,1.53.53,2.02s.84.73,1.48.73c.51,0,.98-.1,1.41-.31v.54c-.36.2-.82.3-1.4.3Z"/>
        <path class="cls-2" d="m39.06,200.4c0-.38.11-.56.32-.56.11,0,.19.05.25.15s.09.24.09.42-.03.31-.09.42-.14.15-.25.15c-.21,0-.32-.19-.32-.57Zm.58,8.14h-.51v-6.37h.51v6.37Z"/>
        <path class="cls-2" d="m41.78,208.54h-.51v-9.12h.51v9.12Z"/>
        <path class="cls-2" d="m43.92,208.54h-.51v-9.12h.51v9.12Z"/>
        <path class="cls-2" d="m46,202.17v4.12c0,.64.12,1.11.35,1.4.24.29.6.44,1.1.44.66,0,1.15-.19,1.46-.57s.47-1.01.47-1.87v-3.52h.5v6.37h-.43l-.09-.88h-.03c-.36.66-1.01,1-1.93,1-1.27,0-1.9-.78-1.9-2.33v-4.16h.5Z"/>
        <path class="cls-2" d="m58.49,208.54v-4.18c0-.62-.11-1.07-.32-1.36s-.54-.43-.97-.43c-.57,0-.99.18-1.27.54s-.41.92-.41,1.69v3.73h-.52v-4.35c0-1.07-.43-1.61-1.29-1.61-.58,0-1.01.19-1.28.58s-.4,1.01-.4,1.87v3.52h-.51v-6.37h.42l.11.87h.03c.15-.32.37-.56.66-.74.28-.17.6-.26.94-.26.88,0,1.44.38,1.69,1.13h.02c.18-.36.42-.64.73-.84.31-.2.65-.29,1.04-.29.61,0,1.07.19,1.37.56.3.37.46.96.46,1.77v4.17h-.5Z"/>
        <path class="cls-2" d="m66.89,202.05c.4,0,.75.08,1.05.25s.56.46.79.86h.03c-.02-.49-.03-.97-.03-1.45v-2.29h.5v9.12h-.33l-.13-.97h-.04c-.42.73-1.03,1.09-1.83,1.09s-1.36-.27-1.76-.82c-.41-.55-.61-1.34-.61-2.39,0-1.1.2-1.94.61-2.53.4-.58.99-.87,1.76-.87Zm0,.53c-.61,0-1.07.24-1.37.73s-.46,1.2-.46,2.13c0,1.8.61,2.71,1.84,2.71.63,0,1.09-.21,1.38-.63s.44-1.11.44-2.07v-.1c0-.98-.14-1.69-.43-2.12s-.76-.65-1.4-.65Z"/>
        <path class="cls-2" d="m75.48,205.35c0,1.04-.22,1.85-.66,2.43-.44.58-1.05.88-1.83.88-.49,0-.92-.13-1.29-.4-.37-.27-.66-.66-.86-1.16-.2-.5-.3-1.09-.3-1.75,0-1.04.22-1.85.66-2.43.44-.58,1.05-.87,1.82-.87s1.37.29,1.8.88c.44.59.65,1.39.65,2.42Zm-4.4,0c0,.88.17,1.56.5,2.05s.81.74,1.43.74,1.09-.25,1.43-.74c.34-.49.51-1.17.51-2.05s-.17-1.56-.51-2.04c-.34-.48-.82-.73-1.43-.73s-1.09.24-1.42.72-.5,1.17-.5,2.05Z"/>
        <path class="cls-2" d="m77.3,208.54h-.51v-9.12h.51v9.12Z"/>
        <path class="cls-2" d="m83.54,205.35c0,1.04-.22,1.85-.66,2.43-.44.58-1.05.88-1.83.88-.49,0-.92-.13-1.29-.4-.37-.27-.66-.66-.86-1.16-.2-.5-.3-1.09-.3-1.75,0-1.04.22-1.85.66-2.43.44-.58,1.05-.87,1.82-.87s1.37.29,1.8.88c.44.59.65,1.39.65,2.42Zm-4.4,0c0,.88.17,1.56.5,2.05s.81.74,1.43.74,1.09-.25,1.43-.74c.34-.49.51-1.17.51-2.05s-.17-1.56-.51-2.04c-.34-.48-.82-.73-1.43-.73s-1.09.24-1.42.72-.5,1.17-.5,2.05Z"/>
        <path class="cls-2" d="m87.05,202.05c.24,0,.49.03.76.08l-.1.56c-.23-.07-.47-.1-.72-.1-.47,0-.86.23-1.17.69s-.46,1.04-.46,1.75v3.52h-.51v-6.37h.43l.05,1.15h.04c.23-.47.47-.8.73-.99s.57-.28.94-.28Z"/>
        <path class="cls-2" d="m90.96,208.66c-.81,0-1.44-.29-1.89-.86s-.68-1.37-.68-2.4.22-1.83.66-2.44,1.03-.92,1.77-.92c.66,0,1.17.26,1.55.79.38.52.57,1.23.57,2.13v.47h-4.02c0,.88.19,1.54.54,2s.85.69,1.5.69c.32,0,.6-.03.84-.08s.55-.16.92-.33v.53c-.31.16-.6.26-.87.32-.27.06-.56.08-.88.08Zm-.15-6.09c-.54,0-.97.2-1.29.61-.33.4-.51.99-.57,1.75h3.45c0-.74-.14-1.32-.42-1.73s-.67-.62-1.16-.62Z"/>
        <path class="cls-2" d="m100.78,208.66c-.81,0-1.44-.29-1.89-.86s-.68-1.37-.68-2.4.22-1.83.66-2.44,1.03-.92,1.77-.92c.66,0,1.17.26,1.55.79.38.52.57,1.23.57,2.13v.47h-4.02c0,.88.19,1.54.54,2s.85.69,1.5.69c.32,0,.6-.03.84-.08s.55-.16.92-.33v.53c-.31.16-.6.26-.87.32-.27.06-.56.08-.88.08Zm-.15-6.09c-.54,0-.97.2-1.29.61-.33.4-.51.99-.57,1.75h3.45c0-.74-.14-1.32-.42-1.73s-.67-.62-1.16-.62Z"/>
        <path class="cls-2" d="m104.5,202.17v4.12c0,.64.12,1.11.35,1.4.24.29.6.44,1.1.44.66,0,1.15-.19,1.46-.57s.47-1.01.47-1.87v-3.52h.5v6.37h-.43l-.09-.88h-.03c-.36.66-1.01,1-1.93,1-1.27,0-1.9-.78-1.9-2.33v-4.16h.5Z"/>
        <path class="cls-2" d="m116.38,202.68h-1.31v5.87h-.51v-5.87h-1.04v-.34l1.04-.22v-.49c0-.78.13-1.35.38-1.72s.66-.55,1.23-.55c.31,0,.62.05.92.16l-.12.5c-.27-.1-.55-.15-.82-.15-.4,0-.68.13-.84.4-.17.27-.25.7-.25,1.3v.59h1.31v.5Z"/>
        <path class="cls-2" d="m117.66,202.17v4.12c0,.64.12,1.11.35,1.4.24.29.6.44,1.1.44.66,0,1.15-.19,1.46-.57s.47-1.01.47-1.87v-3.52h.5v6.37h-.43l-.09-.88h-.03c-.36.66-1.01,1-1.93,1-1.27,0-1.9-.78-1.9-2.33v-4.16h.5Z"/>
        <path class="cls-2" d="m127.54,202.17v.4l-1.15.08c.31.44.46.92.46,1.44,0,.61-.18,1.11-.54,1.49s-.84.57-1.44.57c-.25,0-.43-.01-.53-.04-.2.12-.36.26-.46.43-.11.16-.16.34-.16.52,0,.2.07.35.2.45s.36.14.68.14h.97c.6,0,1.07.14,1.39.42s.48.69.48,1.24c0,.67-.24,1.19-.72,1.56s-1.16.55-2.04.55c-.7,0-1.24-.15-1.63-.46s-.58-.74-.58-1.29c0-.44.12-.8.36-1.09.24-.29.56-.49.97-.59-.17-.08-.3-.2-.4-.35s-.15-.32-.15-.52c0-.43.24-.8.71-1.12-.33-.15-.58-.39-.76-.72-.18-.33-.27-.7-.27-1.12,0-.64.18-1.15.53-1.53s.83-.58,1.43-.58c.37,0,.65.04.85.12h1.78Zm-4.51,7.45c0,.88.57,1.31,1.71,1.31,1.46,0,2.2-.53,2.2-1.6,0-.38-.11-.66-.34-.83-.23-.17-.6-.26-1.11-.26h-.91c-1.02,0-1.53.46-1.53,1.38Zm.43-5.46c0,.49.13.87.39,1.15.26.27.61.41,1.05.41.46,0,.82-.13,1.07-.4s.37-.66.37-1.17c0-.54-.13-.95-.38-1.22s-.61-.41-1.07-.41-.79.15-1.05.44-.38.7-.38,1.22Z"/>
        <path class="cls-2" d="m128.38,200.4c0-.38.11-.56.32-.56.11,0,.19.05.25.15s.09.24.09.42-.03.31-.09.42-.14.15-.25.15c-.21,0-.32-.19-.32-.57Zm.58,8.14h-.51v-6.37h.51v6.37Z"/>
        <path class="cls-2" d="m133.98,208.54l-.13-1.01h-.04c-.28.41-.57.7-.86.87-.3.17-.65.25-1.05.25-.55,0-.97-.16-1.28-.48s-.46-.76-.46-1.33c0-.62.23-1.1.68-1.45.45-.34,1.11-.53,1.97-.54l1.06-.04v-.42c0-.61-.11-1.06-.32-1.37-.22-.31-.56-.46-1.04-.46-.52,0-1.05.16-1.61.49l-.19-.5c.61-.33,1.22-.49,1.82-.49s1.07.18,1.37.54c.3.36.45.93.45,1.7v4.24h-.37Zm-2.05-.41c.59,0,1.06-.19,1.41-.58s.52-.93.52-1.62v-.63l-.97.05c-.78.04-1.34.18-1.67.42s-.5.6-.5,1.1c0,.4.11.71.32.93s.52.33.91.33Z"/>
        <path class="cls-2" d="m137.4,208.14c.32,0,.6-.03.84-.09v.47c-.25.09-.53.14-.85.14-.49,0-.86-.15-1.09-.45-.23-.3-.35-.77-.35-1.42v-4.11h-.83v-.34l.83-.26.26-1.44h.26v1.54h1.64v.5h-1.64v4.03c0,.49.08.85.23,1.08s.39.35.71.35Z"/>
        <path class="cls-2" d="m147.38,208.54v-4.13c0-.64-.12-1.11-.35-1.4-.24-.29-.6-.44-1.1-.44-.67,0-1.15.19-1.46.58s-.46,1.01-.46,1.87v3.52h-.51v-6.37h.43l.1.87h.03c.36-.66,1.01-1,1.93-1,1.26,0,1.9.78,1.9,2.33v4.17h-.5Z"/>
        <path class="cls-2" d="m149.9,202.17v4.12c0,.64.12,1.11.35,1.4.24.29.6.44,1.1.44.66,0,1.15-.19,1.46-.57s.47-1.01.47-1.87v-3.52h.5v6.37h-.43l-.09-.88h-.03c-.36.66-1.01,1-1.93,1-1.27,0-1.9-.78-1.9-2.33v-4.16h.5Z"/>
        <path class="cls-2" d="m155.93,208.54h-.51v-9.12h.51v9.12Z"/>
        <path class="cls-2" d="m158.07,208.54h-.51v-9.12h.51v9.12Z"/>
        <path class="cls-2" d="m163.09,208.54l-.13-1.01h-.04c-.28.41-.57.7-.86.87-.3.17-.65.25-1.05.25-.55,0-.97-.16-1.28-.48s-.46-.76-.46-1.33c0-.62.23-1.1.68-1.45.45-.34,1.11-.53,1.97-.54l1.06-.04v-.42c0-.61-.11-1.06-.32-1.37-.22-.31-.56-.46-1.04-.46-.52,0-1.05.16-1.61.49l-.19-.5c.61-.33,1.22-.49,1.82-.49s1.07.18,1.37.54c.3.36.45.93.45,1.7v4.24h-.37Zm-2.05-.41c.59,0,1.06-.19,1.41-.58s.52-.93.52-1.62v-.63l-.97.05c-.78.04-1.34.18-1.67.42s-.5.6-.5,1.1c0,.4.11.71.32.93s.52.33.91.33Z"/>
        <path class="cls-2" d="m171.71,208.66c-.86,0-1.48-.37-1.88-1.1h-.04l.02.49c.01.29.02.61.02.95v2.43h-.51v-9.25h.43l.1.91h.03c.38-.69,1-1.03,1.84-1.03.75,0,1.33.28,1.72.85.4.56.59,1.39.59,2.46s-.21,1.86-.62,2.43c-.42.58-.98.86-1.7.86Zm-.01-.52c.57,0,1.01-.24,1.33-.73.31-.48.47-1.16.47-2.03,0-1.87-.59-2.81-1.77-2.81-.65,0-1.13.2-1.43.61s-.46,1.07-.46,2v.19c0,1,.15,1.71.44,2.13.29.43.77.64,1.43.64Z"/>
        <path class="cls-2" d="m178.73,208.54l-.13-1.01h-.04c-.28.41-.57.7-.86.87-.3.17-.65.25-1.05.25-.55,0-.97-.16-1.28-.48s-.46-.76-.46-1.33c0-.62.23-1.1.68-1.45.45-.34,1.11-.53,1.97-.54l1.06-.04v-.42c0-.61-.11-1.06-.32-1.37-.22-.31-.56-.46-1.04-.46-.52,0-1.05.16-1.61.49l-.19-.5c.61-.33,1.22-.49,1.82-.49s1.07.18,1.37.54c.3.36.45.93.45,1.7v4.24h-.37Zm-2.05-.41c.59,0,1.06-.19,1.41-.58s.52-.93.52-1.62v-.63l-.97.05c-.78.04-1.34.18-1.67.42s-.5.6-.5,1.1c0,.4.11.71.32.93s.52.33.91.33Z"/>
        <path class="cls-2" d="m182.87,202.05c.24,0,.49.03.76.08l-.1.56c-.23-.07-.47-.1-.72-.1-.47,0-.86.23-1.17.69s-.46,1.04-.46,1.75v3.52h-.51v-6.37h.43l.05,1.15h.04c.23-.47.47-.8.73-.99s.57-.28.94-.28Z"/>
        <path class="cls-2" d="m184.46,200.4c0-.38.11-.56.32-.56.11,0,.19.05.25.15s.09.24.09.42-.03.31-.09.42-.14.15-.25.15c-.21,0-.32-.19-.32-.57Zm.58,8.14h-.51v-6.37h.51v6.37Z"/>
        <path class="cls-2" d="m190.06,208.54l-.13-1.01h-.04c-.28.41-.57.7-.86.87-.3.17-.65.25-1.05.25-.55,0-.97-.16-1.28-.48s-.46-.76-.46-1.33c0-.62.23-1.1.68-1.45.45-.34,1.11-.53,1.97-.54l1.06-.04v-.42c0-.61-.11-1.06-.32-1.37-.22-.31-.56-.46-1.04-.46-.52,0-1.05.16-1.61.49l-.19-.5c.61-.33,1.22-.49,1.82-.49s1.07.18,1.37.54c.3.36.45.93.45,1.7v4.24h-.37Zm-2.05-.41c.59,0,1.06-.19,1.41-.58s.52-.93.52-1.62v-.63l-.97.05c-.78.04-1.34.18-1.67.42s-.5.6-.5,1.1c0,.4.11.71.32.93s.52.33.91.33Z"/>
        <path class="cls-2" d="m191.55,205.54v-.48h2.44v.48h-2.44Z"/>
        <path class="cls-2" d="m35.84,226.14c.32,0,.6-.03.84-.09v.47c-.25.09-.53.14-.85.14-.49,0-.86-.15-1.09-.45-.23-.3-.35-.77-.35-1.42v-4.11h-.83v-.34l.83-.26.26-1.44h.26v1.54h1.64v.5h-1.64v4.03c0,.49.08.85.23,1.08s.39.35.71.35Z"/>
        <path class="cls-2" d="m38.1,220.17v4.12c0,.64.12,1.11.35,1.4.24.29.6.44,1.1.44.66,0,1.15-.19,1.46-.57s.47-1.01.47-1.87v-3.52h.5v6.37h-.43l-.09-.88h-.03c-.36.66-1.01,1-1.93,1-1.27,0-1.9-.78-1.9-2.33v-4.16h.5Z"/>
        <path class="cls-2" d="m45.82,220.05c.24,0,.49.03.76.08l-.1.56c-.23-.07-.47-.1-.72-.1-.47,0-.86.23-1.17.69s-.46,1.04-.46,1.75v3.52h-.51v-6.37h.43l.05,1.15h.04c.23-.47.47-.8.73-.99s.57-.28.94-.28Z"/>
        <path class="cls-2" d="m47.37,226.08c0-.38.14-.57.41-.57s.42.19.42.57-.14.57-.42.57-.41-.19-.41-.57Z"/>
      </g>
    </g>
  </g>
</svg>