<?xml version="1.0" encoding="UTF-8"?>
<svg id="Capa_2" data-name="Capa 2" xmlns="http://www.w3.org/2000/svg" xmlns:xlink="http://www.w3.org/1999/xlink" viewBox="0 0 251 279">
  <defs>
    <style>
      .cls-1 {
        fill: #b9b7cd;
      }

      .cls-1, .cls-2, .cls-3, .cls-4 {
        stroke-width: 0px;
      }

      .cls-2 {
        fill: #eeedf2;
      }

      .cls-3 {
        fill: #fff;
        filter: url(#outer-glow-1);
      }

      .cls-4 {
        fill: #1d1d1b;
      }
    </style>
    <filter id="outer-glow-1" filterUnits="userSpaceOnUse">
      <feOffset dx="0" dy="0"/>
      <feGaussianBlur result="blur" stdDeviation="5"/>
      <feFlood flood-color="#000" flood-opacity=".48"/>
      <feComposite in2="blur" operator="in"/>
      <feComposite in="SourceGraphic"/>
    </filter>
  </defs>
  <g id="Capa_1-2" data-name="Capa 1">
    <g>
      <rect class="cls-3" x="15.83" y="15.76" width="219.62" height="247.49" rx="8" ry="8"/>
      <g>
        <rect class="cls-2" x="24.02" y="119" width="77.13" height="41.01" rx="2.04" ry="2.04"/>
        <g>
          <path class="cls-1" d="m43.05,154.94s3.67-30.27,12.68-13.51c9.02,16.76,8.85-26.66,15.53-14.41s12.52,27.93,12.52,27.93h-40.73Z"/>
          <rect class="cls-1" x="52.9" y="122.09" width="10.52" height="15.56" rx="5.26" ry="5.26"/>
        </g>
      </g>
      <g>
        <path class="cls-4" d="m112.22,59v-8.57h.52v8h3.57v.56h-4.1Z"/>
        <path class="cls-4" d="m121.86,55.81c0,1.04-.22,1.85-.66,2.43-.44.58-1.05.88-1.83.88-.49,0-.92-.13-1.29-.4-.37-.27-.66-.66-.86-1.16-.2-.5-.3-1.09-.3-1.75,0-1.04.22-1.85.66-2.43.44-.58,1.05-.87,1.82-.87s1.37.29,1.8.88c.44.59.65,1.39.65,2.42Zm-4.4,0c0,.88.17,1.56.5,2.05s.81.74,1.43.74,1.09-.25,1.43-.74c.34-.49.51-1.17.51-2.05s-.17-1.56-.51-2.04c-.34-.48-.82-.73-1.43-.73s-1.09.24-1.42.72-.5,1.17-.5,2.05Z"/>
        <path class="cls-4" d="m125.37,52.51c.24,0,.49.03.76.08l-.1.56c-.23-.07-.47-.1-.72-.1-.47,0-.86.23-1.17.69s-.46,1.04-.46,1.75v3.52h-.51v-6.37h.43l.05,1.15h.04c.23-.47.47-.8.73-.99s.57-.28.94-.28Z"/>
        <path class="cls-4" d="m129.28,59.12c-.81,0-1.44-.29-1.89-.86s-.68-1.37-.68-2.4.22-1.83.66-2.44,1.03-.92,1.77-.92c.66,0,1.17.26,1.55.79.38.52.57,1.23.57,2.13v.47h-4.02c0,.88.19,1.54.54,2s.85.69,1.5.69c.32,0,.6-.03.84-.08s.55-.16.92-.33v.53c-.31.16-.6.26-.87.32-.27.06-.56.08-.88.08Zm-.15-6.09c-.54,0-.97.2-1.29.61-.33.4-.51.99-.57,1.75h3.45c0-.74-.14-1.32-.42-1.73s-.67-.62-1.16-.62Z"/>
        <path class="cls-4" d="m139.53,59v-4.18c0-.62-.11-1.07-.32-1.36s-.54-.43-.97-.43c-.57,0-.99.18-1.27.54s-.41.92-.41,1.69v3.73h-.52v-4.35c0-1.07-.43-1.61-1.29-1.61-.58,0-1.01.19-1.28.58s-.4,1.01-.4,1.87v3.52h-.51v-6.37h.42l.11.87h.03c.15-.32.37-.56.66-.74.28-.17.6-.26.94-.26.88,0,1.44.38,1.69,1.13h.02c.18-.36.42-.64.73-.84.31-.2.65-.29,1.04-.29.61,0,1.07.19,1.37.56.3.37.46.96.46,1.77v4.17h-.5Z"/>
        <path class="cls-4" d="m149.39,50.86c0-.38.11-.56.32-.56.11,0,.19.05.25.15s.09.24.09.42-.03.31-.09.42-.14.15-.25.15c-.21,0-.32-.19-.32-.57Zm.58,8.14h-.51v-6.37h.51v6.37Z"/>
        <path class="cls-4" d="m153.99,59.12c-.86,0-1.48-.37-1.88-1.1h-.04l.02.49c.01.29.02.61.02.95v2.43h-.51v-9.25h.43l.1.91h.03c.38-.69,1-1.03,1.84-1.03.75,0,1.33.28,1.72.85.4.56.59,1.39.59,2.46s-.21,1.86-.62,2.43c-.42.58-.98.86-1.7.86Zm-.01-.52c.57,0,1.01-.24,1.33-.73.31-.48.47-1.16.47-2.03,0-1.87-.59-2.81-1.77-2.81-.65,0-1.13.2-1.43.61s-.46,1.07-.46,2v.19c0,1,.15,1.71.44,2.13.29.43.77.64,1.43.64Z"/>
        <path class="cls-4" d="m161.08,57.34c0,.57-.19,1.01-.57,1.32-.38.31-.92.46-1.62.46-.75,0-1.34-.13-1.77-.39v-.63c.56.32,1.15.48,1.77.48.55,0,.97-.1,1.25-.31s.43-.49.43-.83c0-.32-.11-.59-.34-.81-.23-.22-.6-.43-1.12-.64-.56-.23-.95-.43-1.17-.59s-.4-.35-.51-.56-.17-.46-.17-.76c0-.48.17-.85.53-1.13s.84-.42,1.47-.42,1.17.13,1.71.39l-.19.53c-.55-.26-1.05-.39-1.52-.39s-.82.09-1.08.26-.4.41-.4.71c0,.33.1.6.31.8s.61.42,1.21.67c.5.21.87.39,1.1.56.23.17.4.35.51.57.12.21.17.46.17.74Z"/>
        <path class="cls-4" d="m162.73,52.63v4.12c0,.64.12,1.11.35,1.4.24.29.6.44,1.1.44.66,0,1.15-.19,1.46-.57s.47-1.01.47-1.87v-3.52h.5v6.37h-.43l-.09-.88h-.03c-.36.66-1.01,1-1.93,1-1.27,0-1.9-.78-1.9-2.33v-4.16h.5Z"/>
        <path class="cls-4" d="m175.21,59v-4.18c0-.62-.11-1.07-.32-1.36s-.54-.43-.97-.43c-.57,0-.99.18-1.27.54s-.41.92-.41,1.69v3.73h-.52v-4.35c0-1.07-.43-1.61-1.29-1.61-.58,0-1.01.19-1.28.58s-.4,1.01-.4,1.87v3.52h-.51v-6.37h.42l.11.87h.03c.15-.32.37-.56.66-.74.28-.17.6-.26.94-.26.88,0,1.44.38,1.69,1.13h.02c.18-.36.42-.64.73-.84.31-.2.65-.29,1.04-.29.61,0,1.07.19,1.37.56.3.37.46.96.46,1.77v4.17h-.5Z"/>
        <path class="cls-4" d="m187.19,52.51c.4,0,.75.08,1.05.25s.56.46.79.86h.03c-.02-.49-.03-.97-.03-1.45v-2.29h.5v9.12h-.33l-.13-.97h-.04c-.42.73-1.03,1.09-1.83,1.09s-1.36-.27-1.76-.82c-.41-.55-.61-1.34-.61-2.39,0-1.1.2-1.94.61-2.53.4-.58.99-.87,1.76-.87Zm0,.53c-.61,0-1.07.24-1.37.73s-.46,1.2-.46,2.13c0,1.8.61,2.71,1.84,2.71.63,0,1.09-.21,1.38-.63s.44-1.11.44-2.07v-.1c0-.98-.14-1.69-.43-2.12s-.76-.65-1.4-.65Z"/>
        <path class="cls-4" d="m195.78,55.81c0,1.04-.22,1.85-.66,2.43-.44.58-1.05.88-1.83.88-.49,0-.92-.13-1.29-.4-.37-.27-.66-.66-.86-1.16-.2-.5-.3-1.09-.3-1.75,0-1.04.22-1.85.66-2.43.44-.58,1.05-.87,1.82-.87s1.37.29,1.8.88c.44.59.65,1.39.65,2.42Zm-4.4,0c0,.88.17,1.56.5,2.05s.81.74,1.43.74,1.09-.25,1.43-.74c.34-.49.51-1.17.51-2.05s-.17-1.56-.51-2.04c-.34-.48-.82-.73-1.43-.73s-1.09.24-1.42.72-.5,1.17-.5,2.05Z"/>
        <path class="cls-4" d="m197.6,59h-.51v-9.12h.51v9.12Z"/>
        <path class="cls-4" d="m203.84,55.81c0,1.04-.22,1.85-.66,2.43-.44.58-1.05.88-1.83.88-.49,0-.92-.13-1.29-.4-.37-.27-.66-.66-.86-1.16-.2-.5-.3-1.09-.3-1.75,0-1.04.22-1.85.66-2.43.44-.58,1.05-.87,1.82-.87s1.37.29,1.8.88c.44.59.65,1.39.65,2.42Zm-4.4,0c0,.88.17,1.56.5,2.05s.81.74,1.43.74,1.09-.25,1.43-.74c.34-.49.51-1.17.51-2.05s-.17-1.56-.51-2.04c-.34-.48-.82-.73-1.43-.73s-1.09.24-1.42.72-.5,1.17-.5,2.05Z"/>
        <path class="cls-4" d="m207.35,52.51c.24,0,.49.03.76.08l-.1.56c-.23-.07-.47-.1-.72-.1-.47,0-.86.23-1.17.69s-.46,1.04-.46,1.75v3.52h-.51v-6.37h.43l.05,1.15h.04c.23-.47.47-.8.73-.99s.57-.28.94-.28Z"/>
        <path class="cls-4" d="m220.32,57.34c0,.57-.19,1.01-.57,1.32-.38.31-.92.46-1.62.46-.75,0-1.34-.13-1.77-.39v-.63c.56.32,1.15.48,1.77.48.55,0,.97-.1,1.25-.31s.43-.49.43-.83c0-.32-.11-.59-.34-.81-.23-.22-.6-.43-1.12-.64-.56-.23-.95-.43-1.17-.59s-.4-.35-.51-.56-.17-.46-.17-.76c0-.48.17-.85.53-1.13s.84-.42,1.47-.42,1.17.13,1.71.39l-.19.53c-.55-.26-1.05-.39-1.52-.39s-.82.09-1.08.26-.4.41-.4.71c0,.33.1.6.31.8s.61.42,1.21.67c.5.21.87.39,1.1.56.23.17.4.35.51.57.12.21.17.46.17.74Z"/>
        <path class="cls-4" d="m221.46,50.86c0-.38.11-.56.32-.56.11,0,.19.05.25.15s.09.24.09.42-.03.31-.09.42-.14.15-.25.15c-.21,0-.32-.19-.32-.57Zm.58,8.14h-.51v-6.37h.51v6.37Z"/>
        <path class="cls-4" d="m225.14,58.6c.32,0,.6-.03.84-.09v.47c-.25.09-.53.14-.85.14-.49,0-.86-.15-1.09-.45-.23-.3-.35-.77-.35-1.42v-4.11h-.83v-.34l.83-.26.26-1.44h.26v1.54h1.64v.5h-1.64v4.03c0,.49.08.85.23,1.08s.39.35.71.35Z"/>
        <path class="cls-4" d="m115.48,77l-.13-1.01h-.04c-.28.41-.57.7-.86.87-.3.17-.65.25-1.05.25-.55,0-.97-.16-1.28-.48s-.46-.76-.46-1.33c0-.62.23-1.1.68-1.45.45-.34,1.11-.53,1.97-.54l1.06-.04v-.42c0-.61-.11-1.06-.32-1.37-.22-.31-.56-.46-1.04-.46-.52,0-1.05.16-1.61.49l-.19-.5c.61-.33,1.22-.49,1.82-.49s1.07.18,1.37.54c.3.36.45.93.45,1.7v4.24h-.37Zm-2.05-.41c.59,0,1.06-.19,1.41-.58s.52-.93.52-1.62v-.63l-.97.05c-.78.04-1.34.18-1.67.42s-.5.6-.5,1.1c0,.4.11.71.32.93s.52.33.91.33Z"/>
        <path class="cls-4" d="m124.39,77v-4.18c0-.62-.11-1.07-.32-1.36s-.54-.43-.97-.43c-.57,0-.99.18-1.27.54s-.41.92-.41,1.69v3.73h-.52v-4.35c0-1.07-.43-1.61-1.29-1.61-.58,0-1.01.19-1.28.58s-.4,1.01-.4,1.87v3.52h-.51v-6.37h.42l.11.87h.03c.15-.32.37-.56.66-.74.28-.17.6-.26.94-.26.88,0,1.44.38,1.69,1.13h.02c.18-.36.42-.64.73-.84.31-.2.65-.29,1.04-.29.61,0,1.07.19,1.37.56.3.37.46.96.46,1.77v4.17h-.5Z"/>
        <path class="cls-4" d="m128.72,77.12c-.81,0-1.44-.29-1.89-.86s-.68-1.37-.68-2.4.22-1.83.66-2.44,1.03-.92,1.77-.92c.66,0,1.17.26,1.55.79.38.52.57,1.23.57,2.13v.47h-4.02c0,.88.19,1.54.54,2s.85.69,1.5.69c.32,0,.6-.03.84-.08s.55-.16.92-.33v.53c-.31.16-.6.26-.87.32-.27.06-.56.08-.88.08Zm-.15-6.09c-.54,0-.97.2-1.29.61-.33.4-.51.99-.57,1.75h3.45c0-.74-.14-1.32-.42-1.73s-.67-.62-1.16-.62Z"/>
        <path class="cls-4" d="m133.47,76.6c.32,0,.6-.03.84-.09v.47c-.25.09-.53.14-.85.14-.49,0-.86-.15-1.09-.45-.23-.3-.35-.77-.35-1.42v-4.11h-.83v-.34l.83-.26.26-1.44h.26v1.54h1.64v.5h-1.64v4.03c0,.49.08.85.23,1.08s.39.35.71.35Z"/>
        <path class="cls-4" d="m135.87,75.61l.06.12c-.26,1.04-.55,1.97-.89,2.82h-.33c.26-1.07.45-2.05.56-2.94h.6Z"/>
        <path class="cls-4" d="m142.86,77.12c-.8,0-1.42-.29-1.87-.86s-.68-1.38-.68-2.4.23-1.88.7-2.46c.47-.59,1.11-.88,1.92-.88.48,0,.94.1,1.38.29l-.14.52c-.48-.18-.9-.28-1.26-.28-.68,0-1.2.24-1.55.72s-.53,1.18-.53,2.08c0,.86.18,1.53.53,2.02s.84.73,1.48.73c.51,0,.98-.1,1.41-.31v.54c-.36.2-.82.3-1.4.3Z"/>
        <path class="cls-4" d="m150.01,73.81c0,1.04-.22,1.85-.66,2.43-.44.58-1.05.88-1.83.88-.49,0-.92-.13-1.29-.4-.37-.27-.66-.66-.86-1.16-.2-.5-.3-1.09-.3-1.75,0-1.04.22-1.85.66-2.43.44-.58,1.05-.87,1.82-.87s1.37.29,1.8.88c.44.59.65,1.39.65,2.42Zm-4.4,0c0,.88.17,1.56.5,2.05s.81.74,1.43.74,1.09-.25,1.43-.74c.34-.49.51-1.17.51-2.05s-.17-1.56-.51-2.04c-.34-.48-.82-.73-1.43-.73s-1.09.24-1.42.72-.5,1.17-.5,2.05Z"/>
        <path class="cls-4" d="m155.21,77v-4.13c0-.64-.12-1.11-.35-1.4-.24-.29-.6-.44-1.1-.44-.67,0-1.15.19-1.46.58s-.46,1.01-.46,1.87v3.52h-.51v-6.37h.43l.1.87h.03c.36-.66,1.01-1,1.93-1,1.26,0,1.9.78,1.9,2.33v4.17h-.5Z"/>
        <path class="cls-4" d="m160.74,75.34c0,.57-.19,1.01-.57,1.32-.38.31-.92.46-1.62.46-.75,0-1.34-.13-1.77-.39v-.63c.56.32,1.15.48,1.77.48.55,0,.97-.1,1.25-.31s.43-.49.43-.83c0-.32-.11-.59-.34-.81-.23-.22-.6-.43-1.12-.64-.56-.23-.95-.43-1.17-.59s-.4-.35-.51-.56-.17-.46-.17-.76c0-.48.17-.85.53-1.13s.84-.42,1.47-.42,1.17.13,1.71.39l-.19.53c-.55-.26-1.05-.39-1.52-.39s-.82.09-1.08.26-.4.41-.4.71c0,.33.1.6.31.8s.61.42,1.21.67c.5.21.87.39,1.1.56.23.17.4.35.51.57.12.21.17.46.17.74Z"/>
        <path class="cls-4" d="m164.2,77.12c-.81,0-1.44-.29-1.89-.86s-.68-1.37-.68-2.4.22-1.83.66-2.44,1.03-.92,1.77-.92c.66,0,1.17.26,1.55.79.38.52.57,1.23.57,2.13v.47h-4.02c0,.88.19,1.54.54,2s.85.69,1.5.69c.32,0,.6-.03.84-.08s.55-.16.92-.33v.53c-.31.16-.6.26-.87.32-.27.06-.56.08-.88.08Zm-.15-6.09c-.54,0-.97.2-1.29.61-.33.4-.51.99-.57,1.75h3.45c0-.74-.14-1.32-.42-1.73s-.67-.62-1.16-.62Z"/>
        <path class="cls-4" d="m169.71,77.12c-.8,0-1.42-.29-1.87-.86s-.68-1.38-.68-2.4.23-1.88.7-2.46c.47-.59,1.11-.88,1.92-.88.48,0,.94.1,1.38.29l-.14.52c-.48-.18-.9-.28-1.26-.28-.68,0-1.2.24-1.55.72s-.53,1.18-.53,2.08c0,.86.18,1.53.53,2.02s.84.73,1.48.73c.51,0,.98-.1,1.41-.31v.54c-.36.2-.82.3-1.4.3Z"/>
        <path class="cls-4" d="m173.71,76.6c.32,0,.6-.03.84-.09v.47c-.25.09-.53.14-.85.14-.49,0-.86-.15-1.09-.45-.23-.3-.35-.77-.35-1.42v-4.11h-.83v-.34l.83-.26.26-1.44h.26v1.54h1.64v.5h-1.64v4.03c0,.49.08.85.23,1.08s.39.35.71.35Z"/>
        <path class="cls-4" d="m177.78,77.12c-.81,0-1.44-.29-1.89-.86s-.68-1.37-.68-2.4.22-1.83.66-2.44,1.03-.92,1.77-.92c.66,0,1.17.26,1.55.79.38.52.57,1.23.57,2.13v.47h-4.02c0,.88.19,1.54.54,2s.85.69,1.5.69c.32,0,.6-.03.84-.08s.55-.16.92-.33v.53c-.31.16-.6.26-.87.32-.27.06-.56.08-.88.08Zm-.15-6.09c-.54,0-.97.2-1.29.61-.33.4-.51.99-.57,1.75h3.45c0-.74-.14-1.32-.42-1.73s-.67-.62-1.16-.62Z"/>
        <path class="cls-4" d="m182.53,76.6c.32,0,.6-.03.84-.09v.47c-.25.09-.53.14-.85.14-.49,0-.86-.15-1.09-.45-.23-.3-.35-.77-.35-1.42v-4.11h-.83v-.34l.83-.26.26-1.44h.26v1.54h1.64v.5h-1.64v4.03c0,.49.08.85.23,1.08s.39.35.71.35Z"/>
        <path class="cls-4" d="m184.79,70.63v4.12c0,.64.12,1.11.35,1.4.24.29.6.44,1.1.44.66,0,1.15-.19,1.46-.57s.47-1.01.47-1.87v-3.52h.5v6.37h-.43l-.09-.88h-.03c-.36.66-1.01,1-1.93,1-1.27,0-1.9-.78-1.9-2.33v-4.16h.5Z"/>
        <path class="cls-4" d="m192.51,70.51c.24,0,.49.03.76.08l-.1.56c-.23-.07-.47-.1-.72-.1-.47,0-.86.23-1.17.69s-.46,1.04-.46,1.75v3.52h-.51v-6.37h.43l.05,1.15h.04c.23-.47.47-.8.73-.99s.57-.28.94-.28Z"/>
        <path class="cls-4" d="m200.88,77l-.13-1.01h-.04c-.28.41-.57.7-.86.87-.3.17-.65.25-1.05.25-.55,0-.97-.16-1.28-.48s-.46-.76-.46-1.33c0-.62.23-1.1.68-1.45.45-.34,1.11-.53,1.97-.54l1.06-.04v-.42c0-.61-.11-1.06-.32-1.37-.22-.31-.56-.46-1.04-.46-.52,0-1.05.16-1.61.49l-.19-.5c.61-.33,1.22-.49,1.82-.49s1.07.18,1.37.54c.3.36.45.93.45,1.7v4.24h-.37Zm-2.05-.41c.59,0,1.06-.19,1.41-.58s.52-.93.52-1.62v-.63l-.97.05c-.78.04-1.34.18-1.67.42s-.5.6-.5,1.1c0,.4.11.71.32.93s.52.33.91.33Z"/>
        <path class="cls-4" d="m204.86,70.51c.4,0,.75.08,1.05.25s.56.46.79.86h.03c-.02-.49-.03-.97-.03-1.45v-2.29h.5v9.12h-.33l-.13-.97h-.04c-.42.73-1.03,1.09-1.83,1.09s-1.36-.27-1.76-.82c-.41-.55-.61-1.34-.61-2.39,0-1.1.2-1.94.61-2.53.4-.58.99-.87,1.76-.87Zm0,.53c-.61,0-1.07.24-1.37.73s-.46,1.2-.46,2.13c0,1.8.61,2.71,1.84,2.71.63,0,1.09-.21,1.38-.63s.44-1.11.44-2.07v-.1c0-.98-.14-1.69-.43-2.12s-.76-.65-1.4-.65Z"/>
        <path class="cls-4" d="m208.77,68.86c0-.38.11-.56.32-.56.11,0,.19.05.25.15s.09.24.09.42-.03.31-.09.42-.14.15-.25.15c-.21,0-.32-.19-.32-.57Zm.58,8.14h-.51v-6.37h.51v6.37Z"/>
        <path class="cls-4" d="m213.37,77.12c-.86,0-1.48-.37-1.88-1.1h-.04l.02.49c.01.29.02.61.02.95v2.43h-.51v-9.25h.43l.1.91h.03c.38-.69,1-1.03,1.84-1.03.75,0,1.33.28,1.72.85.4.56.59,1.39.59,2.46s-.21,1.86-.62,2.43c-.42.58-.98.86-1.7.86Zm-.01-.52c.57,0,1.01-.24,1.33-.73.31-.48.47-1.16.47-2.03,0-1.87-.59-2.81-1.77-2.81-.65,0-1.13.2-1.43.61s-.46,1.07-.46,2v.19c0,1,.15,1.71.44,2.13.29.43.77.64,1.43.64Z"/>
        <path class="cls-4" d="m216.94,68.86c0-.38.11-.56.32-.56.11,0,.19.05.25.15s.09.24.09.42-.03.31-.09.42-.14.15-.25.15c-.21,0-.32-.19-.32-.57Zm.58,8.14h-.51v-6.37h.51v6.37Z"/>
        <path class="cls-4" d="m222.61,75.34c0,.57-.19,1.01-.57,1.32-.38.31-.92.46-1.62.46-.75,0-1.34-.13-1.77-.39v-.63c.56.32,1.15.48,1.77.48.55,0,.97-.1,1.25-.31s.43-.49.43-.83c0-.32-.11-.59-.34-.81-.23-.22-.6-.43-1.12-.64-.56-.23-.95-.43-1.17-.59s-.4-.35-.51-.56-.17-.46-.17-.76c0-.48.17-.85.53-1.13s.84-.42,1.47-.42,1.17.13,1.71.39l-.19.53c-.55-.26-1.05-.39-1.52-.39s-.82.09-1.08.26-.4.41-.4.71c0,.33.1.6.31.8s.61.42,1.21.67c.5.21.87.39,1.1.56.23.17.4.35.51.57.12.21.17.46.17.74Z"/>
        <path class="cls-4" d="m223.35,74v-.48h2.44v.48h-2.44Z"/>
        <path class="cls-4" d="m114.32,95.12c-.8,0-1.42-.29-1.87-.86s-.68-1.38-.68-2.4.23-1.88.7-2.46c.47-.59,1.11-.88,1.92-.88.48,0,.94.1,1.38.29l-.14.52c-.48-.18-.9-.28-1.26-.28-.68,0-1.2.24-1.55.72s-.53,1.18-.53,2.08c0,.86.18,1.53.53,2.02s.84.73,1.48.73c.51,0,.98-.1,1.41-.31v.54c-.36.2-.82.3-1.4.3Z"/>
        <path class="cls-4" d="m116.78,86.86c0-.38.11-.56.32-.56.11,0,.19.05.25.15s.09.24.09.42-.03.31-.09.42-.14.15-.25.15c-.21,0-.32-.19-.32-.57Zm.58,8.14h-.51v-6.37h.51v6.37Z"/>
        <path class="cls-4" d="m122.88,95v-4.13c0-.64-.12-1.11-.35-1.4-.24-.29-.6-.44-1.1-.44-.67,0-1.15.19-1.46.58s-.46,1.01-.46,1.87v3.52h-.51v-6.37h.43l.1.87h.03c.36-.66,1.01-1,1.93-1,1.26,0,1.9.78,1.9,2.33v4.17h-.5Z"/>
        <path class="cls-4" d="m129.31,88.63v.4l-1.15.08c.31.44.46.92.46,1.44,0,.61-.18,1.11-.54,1.49s-.84.57-1.44.57c-.25,0-.43-.01-.53-.04-.2.12-.36.26-.46.43-.11.16-.16.34-.16.52,0,.2.07.35.2.45s.36.14.68.14h.97c.6,0,1.07.14,1.39.42s.48.69.48,1.24c0,.67-.24,1.19-.72,1.56s-1.16.55-2.04.55c-.7,0-1.24-.15-1.63-.46s-.58-.74-.58-1.29c0-.44.12-.8.36-1.09.24-.29.56-.49.97-.59-.17-.08-.3-.2-.4-.35s-.15-.32-.15-.52c0-.43.24-.8.71-1.12-.33-.15-.58-.39-.76-.72-.18-.33-.27-.7-.27-1.12,0-.64.18-1.15.53-1.53s.83-.58,1.43-.58c.37,0,.65.04.85.12h1.78Zm-4.51,7.45c0,.88.57,1.31,1.71,1.31,1.46,0,2.2-.53,2.2-1.6,0-.38-.11-.66-.34-.83-.23-.17-.6-.26-1.11-.26h-.91c-1.02,0-1.53.46-1.53,1.38Zm.43-5.46c0,.49.13.87.39,1.15.26.27.61.41,1.05.41.46,0,.82-.13,1.07-.4s.37-.66.37-1.17c0-.54-.13-.95-.38-1.22s-.61-.41-1.07-.41-.79.15-1.05.44-.38.7-.38,1.22Z"/>
        <path class="cls-4" d="m136.01,95.12c-.81,0-1.44-.29-1.89-.86s-.68-1.37-.68-2.4.22-1.83.66-2.44,1.03-.92,1.77-.92c.66,0,1.17.26,1.55.79.38.52.57,1.23.57,2.13v.47h-4.02c0,.88.19,1.54.54,2s.85.69,1.5.69c.32,0,.6-.03.84-.08s.55-.16.92-.33v.53c-.31.16-.6.26-.87.32-.27.06-.56.08-.88.08Zm-.15-6.09c-.54,0-.97.2-1.29.61-.33.4-.51.99-.57,1.75h3.45c0-.74-.14-1.32-.42-1.73s-.67-.62-1.16-.62Z"/>
        <path class="cls-4" d="m139.8,95h-.51v-9.12h.51v9.12Z"/>
        <path class="cls-4" d="m141.37,86.86c0-.38.11-.56.32-.56.11,0,.19.05.25.15s.09.24.09.42-.03.31-.09.42-.14.15-.25.15c-.21,0-.32-.19-.32-.57Zm.58,8.14h-.51v-6.37h.51v6.37Z"/>
        <path class="cls-4" d="m145.05,94.6c.32,0,.6-.03.84-.09v.47c-.25.09-.53.14-.85.14-.49,0-.86-.15-1.09-.45-.23-.3-.35-.77-.35-1.42v-4.11h-.83v-.34l.83-.26.26-1.44h.26v1.54h1.64v.5h-1.64v4.03c0,.49.08.85.23,1.08s.39.35.71.35Z"/>
        <path class="cls-4" d="m147.45,93.61l.06.12c-.26,1.04-.55,1.97-.89,2.82h-.33c.26-1.07.45-2.05.56-2.94h.6Z"/>
        <path class="cls-4" d="m155.89,93.34c0,.57-.19,1.01-.57,1.32-.38.31-.92.46-1.62.46-.75,0-1.34-.13-1.77-.39v-.63c.56.32,1.15.48,1.77.48.55,0,.97-.1,1.25-.31s.43-.49.43-.83c0-.32-.11-.59-.34-.81-.23-.22-.6-.43-1.12-.64-.56-.23-.95-.43-1.17-.59s-.4-.35-.51-.56-.17-.46-.17-.76c0-.48.17-.85.53-1.13s.84-.42,1.47-.42,1.17.13,1.71.39l-.19.53c-.55-.26-1.05-.39-1.52-.39s-.82.09-1.08.26-.4.41-.4.71c0,.33.1.6.31.8s.61.42,1.21.67c.5.21.87.39,1.1.56.23.17.4.35.51.57.12.21.17.46.17.74Z"/>
        <path class="cls-4" d="m159.35,95.12c-.81,0-1.44-.29-1.89-.86s-.68-1.37-.68-2.4.22-1.83.66-2.44,1.03-.92,1.77-.92c.66,0,1.17.26,1.55.79.38.52.57,1.23.57,2.13v.47h-4.02c0,.88.19,1.54.54,2s.85.69,1.5.69c.32,0,.6-.03.84-.08s.55-.16.92-.33v.53c-.31.16-.6.26-.87.32-.27.06-.56.08-.88.08Zm-.15-6.09c-.54,0-.97.2-1.29.61-.33.4-.51.99-.57,1.75h3.45c0-.74-.14-1.32-.42-1.73s-.67-.62-1.16-.62Z"/>
        <path class="cls-4" d="m164.67,88.51c.4,0,.75.08,1.05.25s.56.46.79.86h.03c-.02-.49-.03-.97-.03-1.45v-2.29h.5v9.12h-.33l-.13-.97h-.04c-.42.73-1.03,1.09-1.83,1.09s-1.36-.27-1.76-.82c-.41-.55-.61-1.34-.61-2.39,0-1.1.2-1.94.61-2.53.4-.58.99-.87,1.76-.87Zm0,.53c-.61,0-1.07.24-1.37.73s-.46,1.2-.46,2.13c0,1.8.61,2.71,1.84,2.71.63,0,1.09-.21,1.38-.63s.44-1.11.44-2.07v-.1c0-.98-.14-1.69-.43-2.12s-.76-.65-1.4-.65Z"/>
        <path class="cls-4" d="m174.23,88.51c.4,0,.75.08,1.05.25s.56.46.79.86h.03c-.02-.49-.03-.97-.03-1.45v-2.29h.5v9.12h-.33l-.13-.97h-.04c-.42.73-1.03,1.09-1.83,1.09s-1.36-.27-1.76-.82c-.41-.55-.61-1.34-.61-2.39,0-1.1.2-1.94.61-2.53.4-.58.99-.87,1.76-.87Zm0,.53c-.61,0-1.07.24-1.37.73s-.46,1.2-.46,2.13c0,1.8.61,2.71,1.84,2.71.63,0,1.09-.21,1.38-.63s.44-1.11.44-2.07v-.1c0-.98-.14-1.69-.43-2.12s-.76-.65-1.4-.65Z"/>
        <path class="cls-4" d="m182.82,91.81c0,1.04-.22,1.85-.66,2.43-.44.58-1.05.88-1.83.88-.49,0-.92-.13-1.29-.4-.37-.27-.66-.66-.86-1.16-.2-.5-.3-1.09-.3-1.75,0-1.04.22-1.85.66-2.43.44-.58,1.05-.87,1.82-.87s1.37.29,1.8.88c.44.59.65,1.39.65,2.42Zm-4.4,0c0,.88.17,1.56.5,2.05s.81.74,1.43.74,1.09-.25,1.43-.74c.34-.49.51-1.17.51-2.05s-.17-1.56-.51-2.04c-.34-.48-.82-.73-1.43-.73s-1.09.24-1.42.72-.5,1.17-.5,2.05Z"/>
        <path class="cls-4" d="m189.92,95.12c-.81,0-1.44-.29-1.89-.86s-.68-1.37-.68-2.4.22-1.83.66-2.44,1.03-.92,1.77-.92c.66,0,1.17.26,1.55.79.38.52.57,1.23.57,2.13v.47h-4.02c0,.88.19,1.54.54,2s.85.69,1.5.69c.32,0,.6-.03.84-.08s.55-.16.92-.33v.53c-.31.16-.6.26-.87.32-.27.06-.56.08-.88.08Zm-.15-6.09c-.54,0-.97.2-1.29.61-.33.4-.51.99-.57,1.75h3.45c0-.74-.14-1.32-.42-1.73s-.67-.62-1.16-.62Z"/>
        <path class="cls-4" d="m193.13,86.86c0-.38.11-.56.32-.56.11,0,.19.05.25.15s.09.24.09.42-.03.31-.09.42-.14.15-.25.15c-.21,0-.32-.19-.32-.57Zm.58,8.14h-.51v-6.37h.51v6.37Z"/>
        <path class="cls-4" d="m195.79,88.63v4.12c0,.64.12,1.11.35,1.4.24.29.6.44,1.1.44.66,0,1.15-.19,1.46-.57s.47-1.01.47-1.87v-3.52h.5v6.37h-.43l-.09-.88h-.03c-.36.66-1.01,1-1.93,1-1.27,0-1.9-.78-1.9-2.33v-4.16h.5Z"/>
        <path class="cls-4" d="m204.77,93.34c0,.57-.19,1.01-.57,1.32-.38.31-.92.46-1.62.46-.75,0-1.34-.13-1.77-.39v-.63c.56.32,1.15.48,1.77.48.55,0,.97-.1,1.25-.31s.43-.49.43-.83c0-.32-.11-.59-.34-.81-.23-.22-.6-.43-1.12-.64-.56-.23-.95-.43-1.17-.59s-.4-.35-.51-.56-.17-.46-.17-.76c0-.48.17-.85.53-1.13s.84-.42,1.47-.42,1.17.13,1.71.39l-.19.53c-.55-.26-1.05-.39-1.52-.39s-.82.09-1.08.26-.4.41-.4.71c0,.33.1.6.31.8s.61.42,1.21.67c.5.21.87.39,1.1.56.23.17.4.35.51.57.12.21.17.46.17.74Z"/>
        <path class="cls-4" d="m212.94,95v-4.18c0-.62-.11-1.07-.32-1.36s-.54-.43-.97-.43c-.57,0-.99.18-1.27.54s-.41.92-.41,1.69v3.73h-.52v-4.35c0-1.07-.43-1.61-1.29-1.61-.58,0-1.01.19-1.28.58s-.4,1.01-.4,1.87v3.52h-.51v-6.37h.42l.11.87h.03c.15-.32.37-.56.66-.74.28-.17.6-.26.94-.26.88,0,1.44.38,1.69,1.13h.02c.18-.36.42-.64.73-.84.31-.2.65-.29,1.04-.29.61,0,1.07.19,1.37.56.3.37.46.96.46,1.77v4.17h-.5Z"/>
        <path class="cls-4" d="m219.63,91.81c0,1.04-.22,1.85-.66,2.43-.44.58-1.05.88-1.83.88-.49,0-.92-.13-1.29-.4-.37-.27-.66-.66-.86-1.16-.2-.5-.3-1.09-.3-1.75,0-1.04.22-1.85.66-2.43.44-.58,1.05-.87,1.82-.87s1.37.29,1.8.88c.44.59.65,1.39.65,2.42Zm-4.4,0c0,.88.17,1.56.5,2.05s.81.74,1.43.74,1.09-.25,1.43-.74c.34-.49.51-1.17.51-2.05s-.17-1.56-.51-2.04c-.34-.48-.82-.73-1.43-.73s-1.09.24-1.42.72-.5,1.17-.5,2.05Z"/>
        <path class="cls-4" d="m222.98,88.51c.4,0,.75.08,1.05.25s.56.46.79.86h.03c-.02-.49-.03-.97-.03-1.45v-2.29h.5v9.12h-.33l-.13-.97h-.04c-.42.73-1.03,1.09-1.83,1.09s-1.36-.27-1.76-.82c-.41-.55-.61-1.34-.61-2.39,0-1.1.2-1.94.61-2.53.4-.58.99-.87,1.76-.87Zm0,.53c-.61,0-1.07.24-1.37.73s-.46,1.2-.46,2.13c0,1.8.61,2.71,1.84,2.71.63,0,1.09-.21,1.38-.63s.44-1.11.44-2.07v-.1c0-.98-.14-1.69-.43-2.12s-.76-.65-1.4-.65Z"/>
        <path class="cls-4" d="m113.57,112.6c.32,0,.6-.03.84-.09v.47c-.25.09-.53.14-.85.14-.49,0-.86-.15-1.09-.45-.23-.3-.35-.77-.35-1.42v-4.11h-.83v-.34l.83-.26.26-1.44h.26v1.54h1.64v.5h-1.64v4.03c0,.49.08.85.23,1.08s.39.35.71.35Z"/>
        <path class="cls-4" d="m117.63,113.12c-.81,0-1.44-.29-1.89-.86s-.68-1.37-.68-2.4.22-1.83.66-2.44,1.03-.92,1.77-.92c.66,0,1.17.26,1.55.79.38.52.57,1.23.57,2.13v.47h-4.02c0,.88.19,1.54.54,2s.85.69,1.5.69c.32,0,.6-.03.84-.08s.55-.16.92-.33v.53c-.31.16-.6.26-.87.32-.27.06-.56.08-.88.08Zm-.15-6.09c-.54,0-.97.2-1.29.61-.33.4-.51.99-.57,1.75h3.45c0-.74-.14-1.32-.42-1.73s-.67-.62-1.16-.62Z"/>
        <path class="cls-4" d="m127.88,113v-4.18c0-.62-.11-1.07-.32-1.36s-.54-.43-.97-.43c-.57,0-.99.18-1.27.54s-.41.92-.41,1.69v3.73h-.52v-4.35c0-1.07-.43-1.61-1.29-1.61-.58,0-1.01.19-1.28.58s-.4,1.01-.4,1.87v3.52h-.51v-6.37h.42l.11.87h.03c.15-.32.37-.56.66-.74.28-.17.6-.26.94-.26.88,0,1.44.38,1.69,1.13h.02c.18-.36.42-.64.73-.84.31-.2.65-.29,1.04-.29.61,0,1.07.19,1.37.56.3.37.46.96.46,1.77v4.17h-.5Z"/>
        <path class="cls-4" d="m132.34,113.12c-.86,0-1.48-.37-1.88-1.1h-.04l.02.49c.01.29.02.61.02.95v2.43h-.51v-9.25h.43l.1.91h.03c.38-.69,1-1.03,1.84-1.03.75,0,1.33.28,1.72.85.4.56.59,1.39.59,2.46s-.21,1.86-.62,2.43c-.42.58-.98.86-1.7.86Zm-.01-.52c.57,0,1.01-.24,1.33-.73.31-.48.47-1.16.47-2.03,0-1.87-.59-2.81-1.77-2.81-.65,0-1.13.2-1.43.61s-.46,1.07-.46,2v.19c0,1,.15,1.71.44,2.13.29.43.77.64,1.43.64Z"/>
        <path class="cls-4" d="m140.59,109.81c0,1.04-.22,1.85-.66,2.43-.44.58-1.05.88-1.83.88-.49,0-.92-.13-1.29-.4-.37-.27-.66-.66-.86-1.16-.2-.5-.3-1.09-.3-1.75,0-1.04.22-1.85.66-2.43.44-.58,1.05-.87,1.82-.87s1.37.29,1.8.88c.44.59.65,1.39.65,2.42Zm-4.4,0c0,.88.17,1.56.5,2.05s.81.74,1.43.74,1.09-.25,1.43-.74c.34-.49.51-1.17.51-2.05s-.17-1.56-.51-2.04c-.34-.48-.82-.73-1.43-.73s-1.09.24-1.42.72-.5,1.17-.5,2.05Z"/>
        <path class="cls-4" d="m144.1,106.51c.24,0,.49.03.76.08l-.1.56c-.23-.07-.47-.1-.72-.1-.47,0-.86.23-1.17.69s-.46,1.04-.46,1.75v3.52h-.51v-6.37h.43l.05,1.15h.04c.23-.47.47-.8.73-.99s.57-.28.94-.28Z"/>
        <path class="cls-4" d="m159.46,104.86c0-.38.11-.56.32-.56.11,0,.19.05.25.15s.09.24.09.42-.03.31-.09.42-.14.15-.25.15c-.21,0-.32-.19-.32-.57Zm.58,8.14h-.51v-6.37h.51v6.37Z"/>
        <path class="cls-4" d="m165.56,113v-4.13c0-.64-.12-1.11-.35-1.4-.24-.29-.6-.44-1.1-.44-.67,0-1.15.19-1.46.58s-.46,1.01-.46,1.87v3.52h-.51v-6.37h.43l.1.87h.03c.36-.66,1.01-1,1.93-1,1.26,0,1.9.78,1.9,2.33v4.17h-.5Z"/>
        <path class="cls-4" d="m169.86,113.12c-.8,0-1.42-.29-1.87-.86s-.68-1.38-.68-2.4.23-1.88.7-2.46c.47-.59,1.11-.88,1.92-.88.48,0,.94.1,1.38.29l-.14.52c-.48-.18-.9-.28-1.26-.28-.68,0-1.2.24-1.55.72s-.53,1.18-.53,2.08c0,.86.18,1.53.53,2.02s.84.73,1.48.73c.51,0,.98-.1,1.41-.31v.54c-.36.2-.82.3-1.4.3Z"/>
        <path class="cls-4" d="m172.32,104.86c0-.38.11-.56.32-.56.11,0,.19.05.25.15s.09.24.09.42-.03.31-.09.42-.14.15-.25.15c-.21,0-.32-.19-.32-.57Zm.58,8.14h-.51v-6.37h.51v6.37Z"/>
        <path class="cls-4" d="m176.58,106.51c.4,0,.75.08,1.05.25s.56.46.79.86h.03c-.02-.49-.03-.97-.03-1.45v-2.29h.5v9.12h-.33l-.13-.97h-.04c-.42.73-1.03,1.09-1.83,1.09s-1.36-.27-1.76-.82c-.41-.55-.61-1.34-.61-2.39,0-1.1.2-1.94.61-2.53.4-.58.99-.87,1.76-.87Zm0,.53c-.61,0-1.07.24-1.37.73s-.46,1.2-.46,2.13c0,1.8.61,2.71,1.84,2.71.63,0,1.09-.21,1.38-.63s.44-1.11.44-2.07v-.1c0-.98-.14-1.69-.43-2.12s-.76-.65-1.4-.65Z"/>
        <path class="cls-4" d="m180.49,104.86c0-.38.11-.56.32-.56.11,0,.19.05.25.15s.09.24.09.42-.03.31-.09.42-.14.15-.25.15c-.21,0-.32-.19-.32-.57Zm.58,8.14h-.51v-6.37h.51v6.37Z"/>
        <path class="cls-4" d="m184.74,106.51c.4,0,.75.08,1.05.25s.56.46.79.86h.03c-.02-.49-.03-.97-.03-1.45v-2.29h.5v9.12h-.33l-.13-.97h-.04c-.42.73-1.03,1.09-1.83,1.09s-1.36-.27-1.76-.82c-.41-.55-.61-1.34-.61-2.39,0-1.1.2-1.94.61-2.53.4-.58.99-.87,1.76-.87Zm0,.53c-.61,0-1.07.24-1.37.73s-.46,1.2-.46,2.13c0,1.8.61,2.71,1.84,2.71.63,0,1.09-.21,1.38-.63s.44-1.11.44-2.07v-.1c0-.98-.14-1.69-.43-2.12s-.76-.65-1.4-.65Z"/>
        <path class="cls-4" d="m189.16,106.63v4.12c0,.64.12,1.11.35,1.4.24.29.6.44,1.1.44.66,0,1.15-.19,1.46-.57s.47-1.01.47-1.87v-3.52h.5v6.37h-.43l-.09-.88h-.03c-.36.66-1.01,1-1.93,1-1.27,0-1.9-.78-1.9-2.33v-4.16h.5Z"/>
        <path class="cls-4" d="m198.57,113v-4.13c0-.64-.12-1.11-.35-1.4-.24-.29-.6-.44-1.1-.44-.67,0-1.15.19-1.46.58s-.46,1.01-.46,1.87v3.52h-.51v-6.37h.43l.1.87h.03c.36-.66,1.01-1,1.93-1,1.26,0,1.9.78,1.9,2.33v4.17h-.5Z"/>
        <path class="cls-4" d="m202.12,112.6c.32,0,.6-.03.84-.09v.47c-.25.09-.53.14-.85.14-.49,0-.86-.15-1.09-.45-.23-.3-.35-.77-.35-1.42v-4.11h-.83v-.34l.83-.26.26-1.44h.26v1.54h1.64v.5h-1.64v4.03c0,.49.08.85.23,1.08s.39.35.71.35Z"/>
        <path class="cls-4" d="m218.15,106.63v4.12c0,.64.12,1.11.35,1.4.24.29.6.44,1.1.44.66,0,1.15-.19,1.46-.57s.47-1.01.47-1.87v-3.52h.5v6.37h-.43l-.09-.88h-.03c-.36.66-1.01,1-1.93,1-1.27,0-1.9-.78-1.9-2.33v-4.16h.5Z"/>
        <path class="cls-4" d="m225.15,112.6c.32,0,.6-.03.84-.09v.47c-.25.09-.53.14-.85.14-.49,0-.86-.15-1.09-.45-.23-.3-.35-.77-.35-1.42v-4.11h-.83v-.34l.83-.26.26-1.44h.26v1.54h1.64v.5h-1.64v4.03c0,.49.08.85.23,1.08s.39.35.71.35Z"/>
        <path class="cls-4" d="m112.6,131h-.51v-9.12h.51v9.12Z"/>
        <path class="cls-4" d="m117.62,131l-.13-1.01h-.04c-.28.41-.57.7-.86.87-.3.17-.65.25-1.05.25-.55,0-.97-.16-1.28-.48s-.46-.76-.46-1.33c0-.62.23-1.1.68-1.45.45-.34,1.11-.53,1.97-.54l1.06-.04v-.42c0-.61-.11-1.06-.32-1.37-.22-.31-.56-.46-1.04-.46-.52,0-1.05.16-1.61.49l-.19-.5c.61-.33,1.22-.49,1.82-.49s1.07.18,1.37.54c.3.36.45.93.45,1.7v4.24h-.37Zm-2.05-.41c.59,0,1.06-.19,1.41-.58s.52-.93.52-1.62v-.63l-.97.05c-.78.04-1.34.18-1.67.42s-.5.6-.5,1.1c0,.4.11.71.32.93s.52.33.91.33Z"/>
        <path class="cls-4" d="m121.92,124.51c.78,0,1.37.28,1.76.84.4.56.59,1.38.59,2.46s-.21,1.88-.62,2.45c-.42.57-1,.86-1.75.86-.4,0-.75-.09-1.07-.28-.32-.19-.57-.45-.75-.8h-.05l-.14.96h-.32v-9.12h.51v2.29c0,.34,0,.66-.02.95l-.02.5h.04c.21-.38.47-.66.77-.84.3-.18.66-.27,1.08-.27Zm0,.53c-.66,0-1.13.21-1.41.64-.28.43-.43,1.14-.43,2.13v.1c0,.96.15,1.65.44,2.07s.76.63,1.38.63,1.07-.24,1.38-.73.46-1.18.46-2.08c0-1.84-.61-2.76-1.83-2.76Z"/>
        <path class="cls-4" d="m130.2,127.81c0,1.04-.22,1.85-.66,2.43-.44.58-1.05.88-1.83.88-.49,0-.92-.13-1.29-.4-.37-.27-.66-.66-.86-1.16-.2-.5-.3-1.09-.3-1.75,0-1.04.22-1.85.66-2.43.44-.58,1.05-.87,1.82-.87s1.37.29,1.8.88c.44.59.65,1.39.65,2.42Zm-4.4,0c0,.88.17,1.56.5,2.05s.81.74,1.43.74,1.09-.25,1.43-.74c.34-.49.51-1.17.51-2.05s-.17-1.56-.51-2.04c-.34-.48-.82-.73-1.43-.73s-1.09.24-1.42.72-.5,1.17-.5,2.05Z"/>
        <path class="cls-4" d="m133.71,124.51c.24,0,.49.03.76.08l-.1.56c-.23-.07-.47-.1-.72-.1-.47,0-.86.23-1.17.69s-.46,1.04-.46,1.75v3.52h-.51v-6.37h.43l.05,1.15h.04c.23-.47.47-.8.73-.99s.57-.28.94-.28Z"/>
        <path class="cls-4" d="m137.62,131.12c-.81,0-1.44-.29-1.89-.86s-.68-1.37-.68-2.4.22-1.83.66-2.44,1.03-.92,1.77-.92c.66,0,1.17.26,1.55.79.38.52.57,1.23.57,2.13v.47h-4.02c0,.88.19,1.54.54,2s.85.69,1.5.69c.32,0,.6-.03.84-.08s.55-.16.92-.33v.53c-.31.16-.6.26-.87.32-.27.06-.56.08-.88.08Zm-.15-6.09c-.54,0-.97.2-1.29.61-.33.4-.51.99-.57,1.75h3.45c0-.74-.14-1.32-.42-1.73s-.67-.62-1.16-.62Z"/>
        <path class="cls-4" d="m148.79,131.12c-.81,0-1.44-.29-1.89-.86s-.68-1.37-.68-2.4.22-1.83.66-2.44,1.03-.92,1.77-.92c.66,0,1.17.26,1.55.79.38.52.57,1.23.57,2.13v.47h-4.02c0,.88.19,1.54.54,2s.85.69,1.5.69c.32,0,.6-.03.84-.08s.55-.16.92-.33v.53c-.31.16-.6.26-.87.32-.27.06-.56.08-.88.08Zm-.15-6.09c-.54,0-.97.2-1.29.61-.33.4-.51.99-.57,1.75h3.45c0-.74-.14-1.32-.42-1.73s-.67-.62-1.16-.62Z"/>
        <path class="cls-4" d="m153.54,130.6c.32,0,.6-.03.84-.09v.47c-.25.09-.53.14-.85.14-.49,0-.86-.15-1.09-.45-.23-.3-.35-.77-.35-1.42v-4.11h-.83v-.34l.83-.26.26-1.44h.26v1.54h1.64v.5h-1.64v4.03c0,.49.08.85.23,1.08s.39.35.71.35Z"/>
        <path class="cls-4" d="m163.03,124.51c.4,0,.75.08,1.05.25s.56.46.79.86h.03c-.02-.49-.03-.97-.03-1.45v-2.29h.5v9.12h-.33l-.13-.97h-.04c-.42.73-1.03,1.09-1.83,1.09s-1.36-.27-1.76-.82c-.41-.55-.61-1.34-.61-2.39,0-1.1.2-1.94.61-2.53.4-.58.99-.87,1.76-.87Zm0,.53c-.61,0-1.07.24-1.37.73s-.46,1.2-.46,2.13c0,1.8.61,2.71,1.84,2.71.63,0,1.09-.21,1.38-.63s.44-1.11.44-2.07v-.1c0-.98-.14-1.69-.43-2.12s-.76-.65-1.4-.65Z"/>
        <path class="cls-4" d="m171.62,127.81c0,1.04-.22,1.85-.66,2.43-.44.58-1.05.88-1.83.88-.49,0-.92-.13-1.29-.4-.37-.27-.66-.66-.86-1.16-.2-.5-.3-1.09-.3-1.75,0-1.04.22-1.85.66-2.43.44-.58,1.05-.87,1.82-.87s1.37.29,1.8.88c.44.59.65,1.39.65,2.42Zm-4.4,0c0,.88.17,1.56.5,2.05s.81.74,1.43.74,1.09-.25,1.43-.74c.34-.49.51-1.17.51-2.05s-.17-1.56-.51-2.04c-.34-.48-.82-.73-1.43-.73s-1.09.24-1.42.72-.5,1.17-.5,2.05Z"/>
        <path class="cls-4" d="m173.44,131h-.51v-9.12h.51v9.12Z"/>
        <path class="cls-4" d="m179.69,127.81c0,1.04-.22,1.85-.66,2.43-.44.58-1.05.88-1.83.88-.49,0-.92-.13-1.29-.4-.37-.27-.66-.66-.86-1.16-.2-.5-.3-1.09-.3-1.75,0-1.04.22-1.85.66-2.43.44-.58,1.05-.87,1.82-.87s1.37.29,1.8.88c.44.59.65,1.39.65,2.42Zm-4.4,0c0,.88.17,1.56.5,2.05s.81.74,1.43.74,1.09-.25,1.43-.74c.34-.49.51-1.17.51-2.05s-.17-1.56-.51-2.04c-.34-.48-.82-.73-1.43-.73s-1.09.24-1.42.72-.5,1.17-.5,2.05Z"/>
        <path class="cls-4" d="m183.2,124.51c.24,0,.49.03.76.08l-.1.56c-.23-.07-.47-.1-.72-.1-.47,0-.86.23-1.17.69s-.46,1.04-.46,1.75v3.52h-.51v-6.37h.43l.05,1.15h.04c.23-.47.47-.8.73-.99s.57-.28.94-.28Z"/>
        <path class="cls-4" d="m187.11,131.12c-.81,0-1.44-.29-1.89-.86s-.68-1.37-.68-2.4.22-1.83.66-2.44,1.03-.92,1.77-.92c.66,0,1.17.26,1.55.79.38.52.57,1.23.57,2.13v.47h-4.02c0,.88.19,1.54.54,2s.85.69,1.5.69c.32,0,.6-.03.84-.08s.55-.16.92-.33v.53c-.31.16-.6.26-.87.32-.27.06-.56.08-.88.08Zm-.15-6.09c-.54,0-.97.2-1.29.61-.33.4-.51.99-.57,1.75h3.45c0-.74-.14-1.32-.42-1.73s-.67-.62-1.16-.62Z"/>
        <path class="cls-4" d="m202.99,131v-4.18c0-.62-.11-1.07-.32-1.36s-.54-.43-.97-.43c-.57,0-.99.18-1.27.54s-.41.92-.41,1.69v3.73h-.52v-4.35c0-1.07-.43-1.61-1.29-1.61-.58,0-1.01.19-1.28.58s-.4,1.01-.4,1.87v3.52h-.51v-6.37h.42l.11.87h.03c.15-.32.37-.56.66-.74.28-.17.6-.26.94-.26.88,0,1.44.38,1.69,1.13h.02c.18-.36.42-.64.73-.84.31-.2.65-.29,1.04-.29.61,0,1.07.19,1.37.56.3.37.46.96.46,1.77v4.17h-.5Z"/>
        <path class="cls-4" d="m208.45,131l-.13-1.01h-.04c-.28.41-.57.7-.86.87-.3.17-.65.25-1.05.25-.55,0-.97-.16-1.28-.48s-.46-.76-.46-1.33c0-.62.23-1.1.68-1.45.45-.34,1.11-.53,1.97-.54l1.06-.04v-.42c0-.61-.11-1.06-.32-1.37-.22-.31-.56-.46-1.04-.46-.52,0-1.05.16-1.61.49l-.19-.5c.61-.33,1.22-.49,1.82-.49s1.07.18,1.37.54c.3.36.45.93.45,1.7v4.24h-.37Zm-2.05-.41c.59,0,1.06-.19,1.41-.58s.52-.93.52-1.62v-.63l-.97.05c-.78.04-1.34.18-1.67.42s-.5.6-.5,1.1c0,.4.11.71.32.93s.52.33.91.33Z"/>
        <path class="cls-4" d="m214.75,124.63v.4l-1.15.08c.31.44.46.92.46,1.44,0,.61-.18,1.11-.54,1.49s-.84.57-1.44.57c-.25,0-.43-.01-.53-.04-.2.12-.36.26-.46.43-.11.16-.16.34-.16.52,0,.2.07.35.2.45s.36.14.68.14h.97c.6,0,1.07.14,1.39.42s.48.69.48,1.24c0,.67-.24,1.19-.72,1.56s-1.16.55-2.04.55c-.7,0-1.24-.15-1.63-.46s-.58-.74-.58-1.29c0-.44.12-.8.36-1.09.24-.29.56-.49.97-.59-.17-.08-.3-.2-.4-.35s-.15-.32-.15-.52c0-.43.24-.8.71-1.12-.33-.15-.58-.39-.76-.72-.18-.33-.27-.7-.27-1.12,0-.64.18-1.15.53-1.53s.83-.58,1.43-.58c.37,0,.65.04.85.12h1.78Zm-4.51,7.45c0,.88.57,1.31,1.71,1.31,1.46,0,2.2-.53,2.2-1.6,0-.38-.11-.66-.34-.83-.23-.17-.6-.26-1.11-.26h-.91c-1.02,0-1.53.46-1.53,1.38Zm.43-5.46c0,.49.13.87.39,1.15.26.27.61.41,1.05.41.46,0,.82-.13,1.07-.4s.37-.66.37-1.17c0-.54-.13-.95-.38-1.22s-.61-.41-1.07-.41-.79.15-1.05.44-.38.7-.38,1.22Z"/>
        <path class="cls-4" d="m219.55,131v-4.13c0-.64-.12-1.11-.35-1.4-.24-.29-.6-.44-1.1-.44-.67,0-1.15.19-1.46.58s-.46,1.01-.46,1.87v3.52h-.51v-6.37h.43l.1.87h.03c.36-.66,1.01-1,1.93-1,1.26,0,1.9.78,1.9,2.33v4.17h-.5Z"/>
        <path class="cls-4" d="m225.01,131l-.13-1.01h-.04c-.28.41-.57.7-.86.87-.3.17-.65.25-1.05.25-.55,0-.97-.16-1.28-.48s-.46-.76-.46-1.33c0-.62.23-1.1.68-1.45.45-.34,1.11-.53,1.97-.54l1.06-.04v-.42c0-.61-.11-1.06-.32-1.37-.22-.31-.56-.46-1.04-.46-.52,0-1.05.16-1.61.49l-.19-.5c.61-.33,1.22-.49,1.82-.49s1.07.18,1.37.54c.3.36.45.93.45,1.7v4.24h-.37Zm-2.05-.41c.59,0,1.06-.19,1.41-.58s.52-.93.52-1.62v-.63l-.97.05c-.78.04-1.34.18-1.67.42s-.5.6-.5,1.1c0,.4.11.71.32.93s.52.33.91.33Z"/>
        <path class="cls-4" d="m115.48,149l-.13-1.01h-.04c-.28.41-.57.7-.86.87-.3.17-.65.25-1.05.25-.55,0-.97-.16-1.28-.48s-.46-.76-.46-1.33c0-.62.23-1.1.68-1.45.45-.34,1.11-.53,1.97-.54l1.06-.04v-.42c0-.61-.11-1.06-.32-1.37-.22-.31-.56-.46-1.04-.46-.52,0-1.05.16-1.61.49l-.19-.5c.61-.33,1.22-.49,1.82-.49s1.07.18,1.37.54c.3.36.45.93.45,1.7v4.24h-.37Zm-2.05-.41c.59,0,1.06-.19,1.41-.58s.52-.93.52-1.62v-.63l-.97.05c-.78.04-1.34.18-1.67.42s-.5.6-.5,1.1c0,.4.11.71.32.93s.52.33.91.33Z"/>
        <path class="cls-4" d="m117.94,149h-.51v-9.12h.51v9.12Z"/>
        <path class="cls-4" d="m119.5,140.86c0-.38.11-.56.32-.56.11,0,.19.05.25.15s.09.24.09.42-.03.31-.09.42-.14.15-.25.15c-.21,0-.32-.19-.32-.57Zm.58,8.14h-.51v-6.37h.51v6.37Z"/>
        <path class="cls-4" d="m123.7,149.12c-.73,0-1.3-.28-1.7-.83-.4-.55-.61-1.36-.61-2.4s.2-1.91.61-2.49c.4-.59.98-.88,1.73-.88.81,0,1.41.34,1.81,1.02h.03l.09-.9h.43v9.25h-.5v-2.43c0-.48,0-.96.03-1.45h-.03c-.4.74-1.03,1.11-1.89,1.11Zm.01-.52c.68,0,1.16-.21,1.45-.64s.43-1.14.43-2.14v-.07c0-.96-.15-1.65-.44-2.07-.29-.43-.75-.64-1.39-.64-.6,0-1.06.24-1.37.73-.31.48-.47,1.2-.47,2.13s.15,1.57.46,2.02.75.68,1.33.68Z"/>
        <path class="cls-4" d="m128.18,142.63v4.12c0,.64.12,1.11.35,1.4.24.29.6.44,1.1.44.66,0,1.15-.19,1.46-.57s.47-1.01.47-1.87v-3.52h.5v6.37h-.43l-.09-.88h-.03c-.36.66-1.01,1-1.93,1-1.27,0-1.9-.78-1.9-2.33v-4.16h.5Z"/>
        <path class="cls-4" d="m137.08,149l-.13-1.01h-.04c-.28.41-.57.7-.86.87-.3.17-.65.25-1.05.25-.55,0-.97-.16-1.28-.48s-.46-.76-.46-1.33c0-.62.23-1.1.68-1.45.45-.34,1.11-.53,1.97-.54l1.06-.04v-.42c0-.61-.11-1.06-.32-1.37-.22-.31-.56-.46-1.04-.46-.52,0-1.05.16-1.61.49l-.19-.5c.61-.33,1.22-.49,1.82-.49s1.07.18,1.37.54c.3.36.45.93.45,1.7v4.24h-.37Zm-2.05-.41c.59,0,1.06-.19,1.41-.58s.52-.93.52-1.62v-.63l-.97.05c-.78.04-1.34.18-1.67.42s-.5.6-.5,1.1c0,.4.11.71.32.93s.52.33.91.33Z"/>
        <path class="cls-4" d="m138.93,148.55c0-.38.14-.57.41-.57s.42.19.42.57-.14.57-.42.57-.41-.19-.41-.57Z"/>
        <path class="cls-4" d="m150.11,140.44v5.54c0,.98-.25,1.75-.75,2.31s-1.2.83-2.09.83-1.55-.28-2.03-.83-.73-1.33-.73-2.33v-5.52h.53v5.54c0,.82.2,1.47.6,1.92.4.46.97.69,1.7.69s1.27-.23,1.66-.68c.39-.45.59-1.08.59-1.88v-5.6h.52Z"/>
        <path class="cls-4" d="m153.26,148.6c.32,0,.6-.03.84-.09v.47c-.25.09-.53.14-.85.14-.49,0-.86-.15-1.09-.45-.23-.3-.35-.77-.35-1.42v-4.11h-.83v-.34l.83-.26.26-1.44h.26v1.54h1.64v.5h-1.64v4.03c0,.49.08.85.23,1.08s.39.35.71.35Z"/>
        <path class="cls-4" d="m160.5,149.12c-.81,0-1.44-.29-1.89-.86s-.68-1.37-.68-2.4.22-1.83.66-2.44,1.03-.92,1.77-.92c.66,0,1.17.26,1.55.79.38.52.57,1.23.57,2.13v.47h-4.02c0,.88.19,1.54.54,2s.85.69,1.5.69c.32,0,.6-.03.84-.08s.55-.16.92-.33v.53c-.31.16-.6.26-.87.32-.27.06-.56.08-.88.08Zm-.15-6.09c-.54,0-.97.2-1.29.61-.33.4-.51.99-.57,1.75h3.45c0-.74-.14-1.32-.42-1.73s-.67-.62-1.16-.62Z"/>
        <path class="cls-4" d="m167.67,149v-4.13c0-.64-.12-1.11-.35-1.4-.24-.29-.6-.44-1.1-.44-.67,0-1.15.19-1.46.58s-.46,1.01-.46,1.87v3.52h-.51v-6.37h.43l.1.87h.03c.36-.66,1.01-1,1.93-1,1.26,0,1.9.78,1.9,2.33v4.17h-.5Z"/>
        <path class="cls-4" d="m169.68,140.86c0-.38.11-.56.32-.56.11,0,.19.05.25.15s.09.24.09.42-.03.31-.09.42-.14.15-.25.15c-.21,0-.32-.19-.32-.57Zm.58,8.14h-.51v-6.37h.51v6.37Z"/>
        <path class="cls-4" d="m178.86,149v-4.18c0-.62-.11-1.07-.32-1.36s-.54-.43-.97-.43c-.57,0-.99.18-1.27.54s-.41.92-.41,1.69v3.73h-.52v-4.35c0-1.07-.43-1.61-1.29-1.61-.58,0-1.01.19-1.28.58s-.4,1.01-.4,1.87v3.52h-.51v-6.37h.42l.11.87h.03c.15-.32.37-.56.66-.74.28-.17.6-.26.94-.26.88,0,1.44.38,1.69,1.13h.02c.18-.36.42-.64.73-.84.31-.2.65-.29,1.04-.29.61,0,1.07.19,1.37.56.3.37.46.96.46,1.77v4.17h-.5Z"/>
        <path class="cls-4" d="m187.49,149l-.13-1.01h-.04c-.28.41-.57.7-.86.87-.3.17-.65.25-1.05.25-.55,0-.97-.16-1.28-.48s-.46-.76-.46-1.33c0-.62.23-1.1.68-1.45.45-.34,1.11-.53,1.97-.54l1.06-.04v-.42c0-.61-.11-1.06-.32-1.37-.22-.31-.56-.46-1.04-.46-.52,0-1.05.16-1.61.49l-.19-.5c.61-.33,1.22-.49,1.82-.49s1.07.18,1.37.54c.3.36.45.93.45,1.7v4.24h-.37Zm-2.05-.41c.59,0,1.06-.19,1.41-.58s.52-.93.52-1.62v-.63l-.97.05c-.78.04-1.34.18-1.67.42s-.5.6-.5,1.1c0,.4.11.71.32.93s.52.33.91.33Z"/>
        <path class="cls-4" d="m191.48,142.51c.4,0,.75.08,1.05.25s.56.46.79.86h.03c-.02-.49-.03-.97-.03-1.45v-2.29h.5v9.12h-.33l-.13-.97h-.04c-.42.73-1.03,1.09-1.83,1.09s-1.36-.27-1.76-.82c-.41-.55-.61-1.34-.61-2.39,0-1.1.2-1.94.61-2.53.4-.58.99-.87,1.76-.87Zm0,.53c-.61,0-1.07.24-1.37.73s-.46,1.2-.46,2.13c0,1.8.61,2.71,1.84,2.71.63,0,1.09-.21,1.38-.63s.44-1.11.44-2.07v-.1c0-.98-.14-1.69-.43-2.12s-.76-.65-1.4-.65Z"/>
        <path class="cls-4" d="m205.59,149v-4.18c0-.62-.11-1.07-.32-1.36s-.54-.43-.97-.43c-.57,0-.99.18-1.27.54s-.41.92-.41,1.69v3.73h-.52v-4.35c0-1.07-.43-1.61-1.29-1.61-.58,0-1.01.19-1.28.58s-.4,1.01-.4,1.87v3.52h-.51v-6.37h.42l.11.87h.03c.15-.32.37-.56.66-.74.28-.17.6-.26.94-.26.88,0,1.44.38,1.69,1.13h.02c.18-.36.42-.64.73-.84.31-.2.65-.29,1.04-.29.61,0,1.07.19,1.37.56.3.37.46.96.46,1.77v4.17h-.5Z"/>
        <path class="cls-4" d="m207.6,140.86c0-.38.11-.56.32-.56.11,0,.19.05.25.15s.09.24.09.42-.03.31-.09.42-.14.15-.25.15c-.21,0-.32-.19-.32-.57Zm.58,8.14h-.51v-6.37h.51v6.37Z"/>
        <path class="cls-4" d="m213.7,149v-4.13c0-.64-.12-1.11-.35-1.4-.24-.29-.6-.44-1.1-.44-.67,0-1.15.19-1.46.58s-.46,1.01-.46,1.87v3.52h-.51v-6.37h.43l.1.87h.03c.36-.66,1.01-1,1.93-1,1.26,0,1.9.78,1.9,2.33v4.17h-.5Z"/>
        <path class="cls-4" d="m215.7,140.86c0-.38.11-.56.32-.56.11,0,.19.05.25.15s.09.24.09.42-.03.31-.09.42-.14.15-.25.15c-.21,0-.32-.19-.32-.57Zm.58,8.14h-.51v-6.37h.51v6.37Z"/>
        <path class="cls-4" d="m224.88,149v-4.18c0-.62-.11-1.07-.32-1.36s-.54-.43-.97-.43c-.57,0-.99.18-1.27.54s-.41.92-.41,1.69v3.73h-.52v-4.35c0-1.07-.43-1.61-1.29-1.61-.58,0-1.01.19-1.28.58s-.4,1.01-.4,1.87v3.52h-.51v-6.37h.42l.11.87h.03c.15-.32.37-.56.66-.74.28-.17.6-.26.94-.26.88,0,1.44.38,1.69,1.13h.02c.18-.36.42-.64.73-.84.31-.2.65-.29,1.04-.29.61,0,1.07.19,1.37.56.3.37.46.96.46,1.77v4.17h-.5Z"/>
        <path class="cls-4" d="m113.32,167l-2.15-6.37h.52l1.44,4.33c.19.55.33,1.04.43,1.45h.03c.14-.53.28-1.02.43-1.46l1.44-4.32h.52l-2.15,6.37h-.51Z"/>
        <path class="cls-4" d="m118.93,167.12c-.81,0-1.44-.29-1.89-.86s-.68-1.37-.68-2.4.22-1.83.66-2.44,1.03-.92,1.77-.92c.66,0,1.17.26,1.55.79.38.52.57,1.23.57,2.13v.47h-4.02c0,.88.19,1.54.54,2s.85.69,1.5.69c.32,0,.6-.03.84-.08s.55-.16.92-.33v.53c-.31.16-.6.26-.87.32-.27.06-.56.08-.88.08Zm-.15-6.09c-.54,0-.97.2-1.29.61-.33.4-.51.99-.57,1.75h3.45c0-.74-.14-1.32-.42-1.73s-.67-.62-1.16-.62Z"/>
        <path class="cls-4" d="m126.1,167v-4.13c0-.64-.12-1.11-.35-1.4-.24-.29-.6-.44-1.1-.44-.67,0-1.15.19-1.46.58s-.46,1.01-.46,1.87v3.52h-.51v-6.37h.43l.1.87h.03c.36-.66,1.01-1,1.93-1,1.26,0,1.9.78,1.9,2.33v4.17h-.5Z"/>
        <path class="cls-4" d="m128.11,158.86c0-.38.11-.56.32-.56.11,0,.19.05.25.15s.09.24.09.42-.03.31-.09.42-.14.15-.25.15c-.21,0-.32-.19-.32-.57Zm.58,8.14h-.51v-6.37h.51v6.37Z"/>
        <path class="cls-4" d="m133.71,167l-.13-1.01h-.04c-.28.41-.57.7-.86.87-.3.17-.65.25-1.05.25-.55,0-.97-.16-1.28-.48s-.46-.76-.46-1.33c0-.62.23-1.1.68-1.45.45-.34,1.11-.53,1.97-.54l1.06-.04v-.42c0-.61-.11-1.06-.32-1.37-.22-.31-.56-.46-1.04-.46-.52,0-1.05.16-1.61.49l-.19-.5c.61-.33,1.22-.49,1.82-.49s1.07.18,1.37.54c.3.36.45.93.45,1.7v4.24h-.37Zm-2.05-.41c.59,0,1.06-.19,1.41-.58s.52-.93.52-1.62v-.63l-.97.05c-.78.04-1.34.18-1.67.42s-.5.6-.5,1.1c0,.4.11.71.32.93s.52.33.91.33Z"/>
        <path class="cls-4" d="m142.62,167v-4.18c0-.62-.11-1.07-.32-1.36s-.54-.43-.97-.43c-.57,0-.99.18-1.27.54s-.41.92-.41,1.69v3.73h-.52v-4.35c0-1.07-.43-1.61-1.29-1.61-.58,0-1.01.19-1.28.58s-.4,1.01-.4,1.87v3.52h-.51v-6.37h.42l.11.87h.03c.15-.32.37-.56.66-.74.28-.17.6-.26.94-.26.88,0,1.44.38,1.69,1.13h.02c.18-.36.42-.64.73-.84.31-.2.65-.29,1.04-.29.61,0,1.07.19,1.37.56.3.37.46.96.46,1.77v4.17h-.5Z"/>
        <path class="cls-4" d="m145.28,165.61l.06.12c-.26,1.04-.55,1.97-.89,2.82h-.33c.26-1.07.45-2.05.56-2.94h.6Z"/>
        <path class="cls-4" d="m161.59,167.12c-.73,0-1.3-.28-1.7-.83-.4-.55-.61-1.36-.61-2.4s.2-1.91.61-2.49c.4-.59.98-.88,1.73-.88.81,0,1.41.34,1.81,1.02h.03l.09-.9h.43v9.25h-.5v-2.43c0-.48,0-.96.03-1.45h-.03c-.4.74-1.03,1.11-1.89,1.11Zm.01-.52c.68,0,1.16-.21,1.45-.64s.43-1.14.43-2.14v-.07c0-.96-.15-1.65-.44-2.07-.29-.43-.75-.64-1.39-.64-.6,0-1.06.24-1.37.73-.31.48-.47,1.2-.47,2.13s.15,1.57.46,2.02.75.68,1.33.68Z"/>
        <path class="cls-4" d="m166.07,160.63v4.12c0,.64.12,1.11.35,1.4.24.29.6.44,1.1.44.66,0,1.15-.19,1.46-.57s.47-1.01.47-1.87v-3.52h.5v6.37h-.43l-.09-.88h-.03c-.36.66-1.01,1-1.93,1-1.27,0-1.9-.78-1.9-2.33v-4.16h.5Z"/>
        <path class="cls-4" d="m171.52,158.86c0-.38.11-.56.32-.56.11,0,.19.05.25.15s.09.24.09.42-.03.31-.09.42-.14.15-.25.15c-.21,0-.32-.19-.32-.57Zm.58,8.14h-.51v-6.37h.51v6.37Z"/>
        <path class="cls-4" d="m177.19,165.34c0,.57-.19,1.01-.57,1.32-.38.31-.92.46-1.62.46-.75,0-1.34-.13-1.77-.39v-.63c.56.32,1.15.48,1.77.48.55,0,.97-.1,1.25-.31s.43-.49.43-.83c0-.32-.11-.59-.34-.81-.23-.22-.6-.43-1.12-.64-.56-.23-.95-.43-1.17-.59s-.4-.35-.51-.56-.17-.46-.17-.76c0-.48.17-.85.53-1.13s.84-.42,1.47-.42,1.17.13,1.71.39l-.19.53c-.55-.26-1.05-.39-1.52-.39s-.82.09-1.08.26-.4.41-.4.71c0,.33.1.6.31.8s.61.42,1.21.67c.5.21.87.39,1.1.56.23.17.4.35.51.57.12.21.17.46.17.74Z"/>
        <path class="cls-4" d="m195.17,167v-4.13c0-.64-.12-1.11-.35-1.4-.24-.29-.6-.44-1.1-.44-.67,0-1.15.19-1.46.58s-.46,1.01-.46,1.87v3.52h-.51v-6.37h.43l.1.87h.03c.36-.66,1.01-1,1.93-1,1.26,0,1.9.78,1.9,2.33v4.17h-.5Z"/>
        <path class="cls-4" d="m201.86,163.81c0,1.04-.22,1.85-.66,2.43-.44.58-1.05.88-1.83.88-.49,0-.92-.13-1.29-.4-.37-.27-.66-.66-.86-1.16-.2-.5-.3-1.09-.3-1.75,0-1.04.22-1.85.66-2.43.44-.58,1.05-.87,1.82-.87s1.37.29,1.8.88c.44.59.65,1.39.65,2.42Zm-4.4,0c0,.88.17,1.56.5,2.05s.81.74,1.43.74,1.09-.25,1.43-.74c.34-.49.51-1.17.51-2.05s-.17-1.56-.51-2.04c-.34-.48-.82-.73-1.43-.73s-1.09.24-1.42.72-.5,1.17-.5,2.05Z"/>
        <path class="cls-4" d="m206.63,165.34c0,.57-.19,1.01-.57,1.32-.38.31-.92.46-1.62.46-.75,0-1.34-.13-1.77-.39v-.63c.56.32,1.15.48,1.77.48.55,0,.97-.1,1.25-.31s.43-.49.43-.83c0-.32-.11-.59-.34-.81-.23-.22-.6-.43-1.12-.64-.56-.23-.95-.43-1.17-.59s-.4-.35-.51-.56-.17-.46-.17-.76c0-.48.17-.85.53-1.13s.84-.42,1.47-.42,1.17.13,1.71.39l-.19.53c-.55-.26-1.05-.39-1.52-.39s-.82.09-1.08.26-.4.41-.4.71c0,.33.1.6.31.8s.61.42,1.21.67c.5.21.87.39,1.1.56.23.17.4.35.51.57.12.21.17.46.17.74Z"/>
        <path class="cls-4" d="m209.3,166.6c.32,0,.6-.03.84-.09v.47c-.25.09-.53.14-.85.14-.49,0-.86-.15-1.09-.45-.23-.3-.35-.77-.35-1.42v-4.11h-.83v-.34l.83-.26.26-1.44h.26v1.54h1.64v.5h-1.64v4.03c0,.49.08.85.23,1.08s.39.35.71.35Z"/>
        <path class="cls-4" d="m213.31,160.51c.24,0,.49.03.76.08l-.1.56c-.23-.07-.47-.1-.72-.1-.47,0-.86.23-1.17.69s-.46,1.04-.46,1.75v3.52h-.51v-6.37h.43l.05,1.15h.04c.23-.47.47-.8.73-.99s.57-.28.94-.28Z"/>
        <path class="cls-4" d="m215.42,160.63v4.12c0,.64.12,1.11.35,1.4.24.29.6.44,1.1.44.66,0,1.15-.19,1.46-.57s.47-1.01.47-1.87v-3.52h.5v6.37h-.43l-.09-.88h-.03c-.36.66-1.01,1-1.93,1-1.27,0-1.9-.78-1.9-2.33v-4.16h.5Z"/>
        <path class="cls-4" d="m222.98,160.51c.4,0,.75.08,1.05.25s.56.46.79.86h.03c-.02-.49-.03-.97-.03-1.45v-2.29h.5v9.12h-.33l-.13-.97h-.04c-.42.73-1.03,1.09-1.83,1.09s-1.36-.27-1.76-.82c-.41-.55-.61-1.34-.61-2.39,0-1.1.2-1.94.61-2.53.4-.58.99-.87,1.76-.87Zm0,.53c-.61,0-1.07.24-1.37.73s-.46,1.2-.46,2.13c0,1.8.61,2.71,1.84,2.71.63,0,1.09-.21,1.38-.63s.44-1.11.44-2.07v-.1c0-.98-.14-1.69-.43-2.12s-.76-.65-1.4-.65Z"/>
        <path class="cls-4" d="m114.35,185.12c-.81,0-1.44-.29-1.89-.86s-.68-1.37-.68-2.4.22-1.83.66-2.44,1.03-.92,1.77-.92c.66,0,1.17.26,1.55.79.38.52.57,1.23.57,2.13v.47h-4.02c0,.88.19,1.54.54,2s.85.69,1.5.69c.32,0,.6-.03.84-.08s.55-.16.92-.33v.53c-.31.16-.6.26-.87.32-.27.06-.56.08-.88.08Zm-.15-6.09c-.54,0-.97.2-1.29.61-.33.4-.51.99-.57,1.75h3.45c0-.74-.14-1.32-.42-1.73s-.67-.62-1.16-.62Z"/>
        <path class="cls-4" d="m119,181.73l-1.94-3.09h.58l1.66,2.68,1.65-2.68h.56l-1.91,3.09,2.05,3.28h-.59l-1.75-2.84-1.76,2.84h-.56l2.02-3.28Z"/>
        <path class="cls-4" d="m124.88,185.12c-.81,0-1.44-.29-1.89-.86s-.68-1.37-.68-2.4.22-1.83.66-2.44,1.03-.92,1.77-.92c.66,0,1.17.26,1.55.79.38.52.57,1.23.57,2.13v.47h-4.02c0,.88.19,1.54.54,2s.85.69,1.5.69c.32,0,.6-.03.84-.08s.55-.16.92-.33v.53c-.31.16-.6.26-.87.32-.27.06-.56.08-.88.08Zm-.15-6.09c-.54,0-.97.2-1.29.61-.33.4-.51.99-.57,1.75h3.45c0-.74-.14-1.32-.42-1.73s-.67-.62-1.16-.62Z"/>
        <path class="cls-4" d="m130.36,178.51c.24,0,.49.03.76.08l-.1.56c-.23-.07-.47-.1-.72-.1-.47,0-.86.23-1.17.69s-.46,1.04-.46,1.75v3.52h-.51v-6.37h.43l.05,1.15h.04c.23-.47.47-.8.73-.99s.57-.28.94-.28Z"/>
        <path class="cls-4" d="m134.24,185.12c-.8,0-1.42-.29-1.87-.86s-.68-1.38-.68-2.4.23-1.88.7-2.46c.47-.59,1.11-.88,1.92-.88.48,0,.94.1,1.38.29l-.14.52c-.48-.18-.9-.28-1.26-.28-.68,0-1.2.24-1.55.72s-.53,1.18-.53,2.08c0,.86.18,1.53.53,2.02s.84.73,1.48.73c.51,0,.98-.1,1.41-.31v.54c-.36.2-.82.3-1.4.3Z"/>
        <path class="cls-4" d="m136.71,176.86c0-.38.11-.56.32-.56.11,0,.19.05.25.15s.09.24.09.42-.03.31-.09.42-.14.15-.25.15c-.21,0-.32-.19-.32-.57Zm.58,8.14h-.51v-6.37h.51v6.37Z"/>
        <path class="cls-4" d="m140.39,184.6c.32,0,.6-.03.84-.09v.47c-.25.09-.53.14-.85.14-.49,0-.86-.15-1.09-.45-.23-.3-.35-.77-.35-1.42v-4.11h-.83v-.34l.83-.26.26-1.44h.26v1.54h1.64v.5h-1.64v4.03c0,.49.08.85.23,1.08s.39.35.71.35Z"/>
        <path class="cls-4" d="m145.59,185l-.13-1.01h-.04c-.28.41-.57.7-.86.87-.3.17-.65.25-1.05.25-.55,0-.97-.16-1.28-.48s-.46-.76-.46-1.33c0-.62.23-1.1.68-1.45.45-.34,1.11-.53,1.97-.54l1.06-.04v-.42c0-.61-.11-1.06-.32-1.37-.22-.31-.56-.46-1.04-.46-.52,0-1.05.16-1.61.49l-.19-.5c.61-.33,1.22-.49,1.82-.49s1.07.18,1.37.54c.3.36.45.93.45,1.7v4.24h-.37Zm-2.05-.41c.59,0,1.06-.19,1.41-.58s.52-.93.52-1.62v-.63l-.97.05c-.78.04-1.34.18-1.67.42s-.5.6-.5,1.1c0,.4.11.71.32.93s.52.33.91.33Z"/>
        <path class="cls-4" d="m149.01,184.6c.32,0,.6-.03.84-.09v.47c-.25.09-.53.14-.85.14-.49,0-.86-.15-1.09-.45-.23-.3-.35-.77-.35-1.42v-4.11h-.83v-.34l.83-.26.26-1.44h.26v1.54h1.64v.5h-1.64v4.03c0,.49.08.85.23,1.08s.39.35.71.35Z"/>
        <path class="cls-4" d="m150.76,176.86c0-.38.11-.56.32-.56.11,0,.19.05.25.15s.09.24.09.42-.03.31-.09.42-.14.15-.25.15c-.21,0-.32-.19-.32-.57Zm.58,8.14h-.51v-6.37h.51v6.37Z"/>
        <path class="cls-4" d="m157.58,181.81c0,1.04-.22,1.85-.66,2.43-.44.58-1.05.88-1.83.88-.49,0-.92-.13-1.29-.4-.37-.27-.66-.66-.86-1.16-.2-.5-.3-1.09-.3-1.75,0-1.04.22-1.85.66-2.43.44-.58,1.05-.87,1.82-.87s1.37.29,1.8.88c.44.59.65,1.39.65,2.42Zm-4.4,0c0,.88.17,1.56.5,2.05s.81.74,1.43.74,1.09-.25,1.43-.74c.34-.49.51-1.17.51-2.05s-.17-1.56-.51-2.04c-.34-.48-.82-.73-1.43-.73s-1.09.24-1.42.72-.5,1.17-.5,2.05Z"/>
        <path class="cls-4" d="m162.78,185v-4.13c0-.64-.12-1.11-.35-1.4-.24-.29-.6-.44-1.1-.44-.67,0-1.15.19-1.46.58s-.46,1.01-.46,1.87v3.52h-.51v-6.37h.43l.1.87h.03c.36-.66,1.01-1,1.93-1,1.26,0,1.9.78,1.9,2.33v4.17h-.5Z"/>
        <path class="cls-4" d="m167.41,178.63v4.12c0,.64.12,1.11.35,1.4.24.29.6.44,1.1.44.66,0,1.15-.19,1.46-.57s.47-1.01.47-1.87v-3.52h.5v6.37h-.43l-.09-.88h-.03c-.36.66-1.01,1-1.93,1-1.27,0-1.9-.78-1.9-2.33v-4.16h.5Z"/>
        <path class="cls-4" d="m173.44,185h-.51v-9.12h.51v9.12Z"/>
        <path class="cls-4" d="m175.59,185h-.51v-9.12h.51v9.12Z"/>
        <path class="cls-4" d="m180.61,185l-.13-1.01h-.04c-.28.41-.57.7-.86.87-.3.17-.65.25-1.05.25-.55,0-.97-.16-1.28-.48s-.46-.76-.46-1.33c0-.62.23-1.1.68-1.45.45-.34,1.11-.53,1.97-.54l1.06-.04v-.42c0-.61-.11-1.06-.32-1.37-.22-.31-.56-.46-1.04-.46-.52,0-1.05.16-1.61.49l-.19-.5c.61-.33,1.22-.49,1.82-.49s1.07.18,1.37.54c.3.36.45.93.45,1.7v4.24h-.37Zm-2.05-.41c.59,0,1.06-.19,1.41-.58s.52-.93.52-1.62v-.63l-.97.05c-.78.04-1.34.18-1.67.42s-.5.6-.5,1.1c0,.4.11.71.32.93s.52.33.91.33Z"/>
        <path class="cls-4" d="m189.52,185v-4.18c0-.62-.11-1.07-.32-1.36s-.54-.43-.97-.43c-.57,0-.99.18-1.27.54s-.41.92-.41,1.69v3.73h-.52v-4.35c0-1.07-.43-1.61-1.29-1.61-.58,0-1.01.19-1.28.58s-.4,1.01-.4,1.87v3.52h-.51v-6.37h.42l.11.87h.03c.15-.32.37-.56.66-.74.28-.17.6-.26.94-.26.88,0,1.44.38,1.69,1.13h.02c.18-.36.42-.64.73-.84.31-.2.65-.29,1.04-.29.61,0,1.07.19,1.37.56.3.37.46.96.46,1.77v4.17h-.5Z"/>
        <path class="cls-4" d="m193.82,185.12c-.8,0-1.42-.29-1.87-.86s-.68-1.38-.68-2.4.23-1.88.7-2.46c.47-.59,1.11-.88,1.92-.88.48,0,.94.1,1.38.29l-.14.52c-.48-.18-.9-.28-1.26-.28-.68,0-1.2.24-1.55.72s-.53,1.18-.53,2.08c0,.86.18,1.53.53,2.02s.84.73,1.48.73c.51,0,.98-.1,1.41-.31v.54c-.36.2-.82.3-1.4.3Z"/>
        <path class="cls-4" d="m200.96,181.81c0,1.04-.22,1.85-.66,2.43-.44.58-1.05.88-1.83.88-.49,0-.92-.13-1.29-.4-.37-.27-.66-.66-.86-1.16-.2-.5-.3-1.09-.3-1.75,0-1.04.22-1.85.66-2.43.44-.58,1.05-.87,1.82-.87s1.37.29,1.8.88c.44.59.65,1.39.65,2.42Zm-4.4,0c0,.88.17,1.56.5,2.05s.81.74,1.43.74,1.09-.25,1.43-.74c.34-.49.51-1.17.51-2.05s-.17-1.56-.51-2.04c-.34-.48-.82-.73-1.43-.73s-1.09.24-1.42.72-.5,1.17-.5,2.05Z"/>
        <path class="cls-4" d="m204.9,185h-.51v-9.12h.51v9.12Z"/>
        <path class="cls-4" d="m209.92,185l-.13-1.01h-.04c-.28.41-.57.7-.86.87-.3.17-.65.25-1.05.25-.55,0-.97-.16-1.28-.48s-.46-.76-.46-1.33c0-.62.23-1.1.68-1.45.45-.34,1.11-.53,1.97-.54l1.06-.04v-.42c0-.61-.11-1.06-.32-1.37-.22-.31-.56-.46-1.04-.46-.52,0-1.05.16-1.61.49l-.19-.5c.61-.33,1.22-.49,1.82-.49s1.07.18,1.37.54c.3.36.45.93.45,1.7v4.24h-.37Zm-2.05-.41c.59,0,1.06-.19,1.41-.58s.52-.93.52-1.62v-.63l-.97.05c-.78.04-1.34.18-1.67.42s-.5.6-.5,1.1c0,.4.11.71.32.93s.52.33.91.33Z"/>
        <path class="cls-4" d="m214.22,178.51c.78,0,1.37.28,1.76.84.4.56.59,1.38.59,2.46s-.21,1.88-.62,2.45c-.42.57-1,.86-1.75.86-.4,0-.75-.09-1.07-.28-.32-.19-.57-.45-.75-.8h-.05l-.14.96h-.32v-9.12h.51v2.29c0,.34,0,.66-.02.95l-.02.5h.04c.21-.38.47-.66.77-.84.3-.18.66-.27,1.08-.27Zm0,.53c-.66,0-1.13.21-1.41.64-.28.43-.43,1.14-.43,2.13v.1c0,.96.15,1.65.44,2.07s.76.63,1.38.63,1.07-.24,1.38-.73.46-1.18.46-2.08c0-1.84-.61-2.76-1.83-2.76Z"/>
        <path class="cls-4" d="m222.5,181.81c0,1.04-.22,1.85-.66,2.43-.44.58-1.05.88-1.83.88-.49,0-.92-.13-1.29-.4-.37-.27-.66-.66-.86-1.16-.2-.5-.3-1.09-.3-1.75,0-1.04.22-1.85.66-2.43.44-.58,1.05-.87,1.82-.87s1.37.29,1.8.88c.44.59.65,1.39.65,2.42Zm-4.4,0c0,.88.17,1.56.5,2.05s.81.74,1.43.74,1.09-.25,1.43-.74c.34-.49.51-1.17.51-2.05s-.17-1.56-.51-2.04c-.34-.48-.82-.73-1.43-.73s-1.09.24-1.42.72-.5,1.17-.5,2.05Z"/>
        <path class="cls-4" d="m223.35,182v-.48h2.44v.48h-2.44Z"/>
        <path class="cls-4" d="m114.29,196.51c.24,0,.49.03.76.08l-.1.56c-.23-.07-.47-.1-.72-.1-.47,0-.86.23-1.17.69s-.46,1.04-.46,1.75v3.52h-.51v-6.37h.43l.05,1.15h.04c.23-.47.47-.8.73-.99s.57-.28.94-.28Z"/>
        <path class="cls-4" d="m115.88,194.86c0-.38.11-.56.32-.56.11,0,.19.05.25.15s.09.24.09.42-.03.31-.09.42-.14.15-.25.15c-.21,0-.32-.19-.32-.57Zm.58,8.14h-.51v-6.37h.51v6.37Z"/>
        <path class="cls-4" d="m121.55,201.34c0,.57-.19,1.01-.57,1.32-.38.31-.92.46-1.62.46-.75,0-1.34-.13-1.77-.39v-.63c.56.32,1.15.48,1.77.48.55,0,.97-.1,1.25-.31s.43-.49.43-.83c0-.32-.11-.59-.34-.81-.23-.22-.6-.43-1.12-.64-.56-.23-.95-.43-1.17-.59s-.4-.35-.51-.56-.17-.46-.17-.76c0-.48.17-.85.53-1.13s.84-.42,1.47-.42,1.17.13,1.71.39l-.19.53c-.55-.26-1.05-.39-1.52-.39s-.82.09-1.08.26-.4.41-.4.71c0,.33.1.6.31.8s.61.42,1.21.67c.5.21.87.39,1.1.56.23.17.4.35.51.57.12.21.17.46.17.74Z"/>
        <path class="cls-4" d="m132.42,203v-4.13c0-.64-.12-1.11-.35-1.4-.24-.29-.6-.44-1.1-.44-.67,0-1.15.19-1.46.58s-.46,1.01-.46,1.87v3.52h-.51v-6.37h.43l.1.87h.03c.36-.66,1.01-1,1.93-1,1.26,0,1.9.78,1.9,2.33v4.17h-.5Z"/>
        <path class="cls-4" d="m134.42,194.86c0-.38.11-.56.32-.56.11,0,.19.05.25.15s.09.24.09.42-.03.31-.09.42-.14.15-.25.15c-.21,0-.32-.19-.32-.57Zm.58,8.14h-.51v-6.37h.51v6.37Z"/>
        <path class="cls-4" d="m140.09,201.34c0,.57-.19,1.01-.57,1.32-.38.31-.92.46-1.62.46-.75,0-1.34-.13-1.77-.39v-.63c.56.32,1.15.48,1.77.48.55,0,.97-.1,1.25-.31s.43-.49.43-.83c0-.32-.11-.59-.34-.81-.23-.22-.6-.43-1.12-.64-.56-.23-.95-.43-1.17-.59s-.4-.35-.51-.56-.17-.46-.17-.76c0-.48.17-.85.53-1.13s.84-.42,1.47-.42,1.17.13,1.71.39l-.19.53c-.55-.26-1.05-.39-1.52-.39s-.82.09-1.08.26-.4.41-.4.71c0,.33.1.6.31.8s.61.42,1.21.67c.5.21.87.39,1.1.56.23.17.4.35.51.57.12.21.17.46.17.74Z"/>
        <path class="cls-4" d="m141.23,194.86c0-.38.11-.56.32-.56.11,0,.19.05.25.15s.09.24.09.42-.03.31-.09.42-.14.15-.25.15c-.21,0-.32-.19-.32-.57Zm.58,8.14h-.51v-6.37h.51v6.37Z"/>
        <path class="cls-4" d="m149.66,196.63v4.12c0,.64.12,1.11.35,1.4.24.29.6.44,1.1.44.66,0,1.15-.19,1.46-.57s.47-1.01.47-1.87v-3.52h.5v6.37h-.43l-.09-.88h-.03c-.36.66-1.01,1-1.93,1-1.27,0-1.9-.78-1.9-2.33v-4.16h.5Z"/>
        <path class="cls-4" d="m156.65,202.6c.32,0,.6-.03.84-.09v.47c-.25.09-.53.14-.85.14-.49,0-.86-.15-1.09-.45-.23-.3-.35-.77-.35-1.42v-4.11h-.83v-.34l.83-.26.26-1.44h.26v1.54h1.64v.5h-1.64v4.03c0,.49.08.85.23,1.08s.39.35.71.35Z"/>
        <path class="cls-4" d="m167.63,203l-.13-1.01h-.04c-.28.41-.57.7-.86.87-.3.17-.65.25-1.05.25-.55,0-.97-.16-1.28-.48s-.46-.76-.46-1.33c0-.62.23-1.1.68-1.45.45-.34,1.11-.53,1.97-.54l1.06-.04v-.42c0-.61-.11-1.06-.32-1.37-.22-.31-.56-.46-1.04-.46-.52,0-1.05.16-1.61.49l-.19-.5c.61-.33,1.22-.49,1.82-.49s1.07.18,1.37.54c.3.36.45.93.45,1.7v4.24h-.37Zm-2.05-.41c.59,0,1.06-.19,1.41-.58s.52-.93.52-1.62v-.63l-.97.05c-.78.04-1.34.18-1.67.42s-.5.6-.5,1.1c0,.4.11.71.32.93s.52.33.91.33Z"/>
        <path class="cls-4" d="m170.08,203h-.51v-9.12h.51v9.12Z"/>
        <path class="cls-4" d="m171.65,194.86c0-.38.11-.56.32-.56.11,0,.19.05.25.15s.09.24.09.42-.03.31-.09.42-.14.15-.25.15c-.21,0-.32-.19-.32-.57Zm.58,8.14h-.51v-6.37h.51v6.37Z"/>
        <path class="cls-4" d="m175.84,203.12c-.73,0-1.3-.28-1.7-.83-.4-.55-.61-1.36-.61-2.4s.2-1.91.61-2.49c.4-.59.98-.88,1.73-.88.81,0,1.41.34,1.81,1.02h.03l.09-.9h.43v9.25h-.5v-2.43c0-.48,0-.96.03-1.45h-.03c-.4.74-1.03,1.11-1.89,1.11Zm.01-.52c.68,0,1.16-.21,1.45-.64s.43-1.14.43-2.14v-.07c0-.96-.15-1.65-.44-2.07-.29-.43-.75-.64-1.39-.64-.6,0-1.06.24-1.37.73-.31.48-.47,1.2-.47,2.13s.15,1.57.46,2.02.75.68,1.33.68Z"/>
        <path class="cls-4" d="m180.32,196.63v4.12c0,.64.12,1.11.35,1.4.24.29.6.44,1.1.44.66,0,1.15-.19,1.46-.57s.47-1.01.47-1.87v-3.52h.5v6.37h-.43l-.09-.88h-.03c-.36.66-1.01,1-1.93,1-1.27,0-1.9-.78-1.9-2.33v-4.16h.5Z"/>
        <path class="cls-4" d="m185.77,194.86c0-.38.11-.56.32-.56.11,0,.19.05.25.15s.09.24.09.42-.03.31-.09.42-.14.15-.25.15c-.21,0-.32-.19-.32-.57Zm.58,8.14h-.51v-6.37h.51v6.37Z"/>
        <path class="cls-4" d="m190.37,203.12c-.86,0-1.48-.37-1.88-1.1h-.04l.02.49c.01.29.02.61.02.95v2.43h-.51v-9.25h.43l.1.91h.03c.38-.69,1-1.03,1.84-1.03.75,0,1.33.28,1.72.85.4.56.59,1.39.59,2.46s-.21,1.86-.62,2.43c-.42.58-.98.86-1.7.86Zm-.01-.52c.57,0,1.01-.24,1.33-.73.31-.48.47-1.16.47-2.03,0-1.87-.59-2.81-1.77-2.81-.65,0-1.13.2-1.43.61s-.46,1.07-.46,2v.19c0,1,.15,1.71.44,2.13.29.43.77.64,1.43.64Z"/>
        <path class="cls-4" d="m202.04,203.12c-.81,0-1.44-.29-1.89-.86s-.68-1.37-.68-2.4.22-1.83.66-2.44,1.03-.92,1.77-.92c.66,0,1.17.26,1.55.79.38.52.57,1.23.57,2.13v.47h-4.02c0,.88.19,1.54.54,2s.85.69,1.5.69c.32,0,.6-.03.84-.08s.55-.16.92-.33v.53c-.31.16-.6.26-.87.32-.27.06-.56.08-.88.08Zm-.15-6.09c-.54,0-.97.2-1.29.61-.33.4-.51.99-.57,1.75h3.45c0-.74-.14-1.32-.42-1.73s-.67-.62-1.16-.62Z"/>
        <path class="cls-4" d="m206.69,199.73l-1.94-3.09h.58l1.66,2.68,1.65-2.68h.56l-1.91,3.09,2.05,3.28h-.59l-1.75-2.84-1.76,2.84h-.56l2.02-3.28Z"/>
        <path class="cls-4" d="m218.34,203.12c-.81,0-1.44-.29-1.89-.86s-.68-1.37-.68-2.4.22-1.83.66-2.44,1.03-.92,1.77-.92c.66,0,1.17.26,1.55.79.38.52.57,1.23.57,2.13v.47h-4.02c0,.88.19,1.54.54,2s.85.69,1.5.69c.32,0,.6-.03.84-.08s.55-.16.92-.33v.53c-.31.16-.6.26-.87.32-.27.06-.56.08-.88.08Zm-.15-6.09c-.54,0-.97.2-1.29.61-.33.4-.51.99-.57,1.75h3.45c0-.74-.14-1.32-.42-1.73s-.67-.62-1.16-.62Z"/>
        <path class="cls-4" d="m225.01,203l-.13-1.01h-.04c-.28.41-.57.7-.86.87-.3.17-.65.25-1.05.25-.55,0-.97-.16-1.28-.48s-.46-.76-.46-1.33c0-.62.23-1.1.68-1.45.45-.34,1.11-.53,1.97-.54l1.06-.04v-.42c0-.61-.11-1.06-.32-1.37-.22-.31-.56-.46-1.04-.46-.52,0-1.05.16-1.61.49l-.19-.5c.61-.33,1.22-.49,1.82-.49s1.07.18,1.37.54c.3.36.45.93.45,1.7v4.24h-.37Zm-2.05-.41c.59,0,1.06-.19,1.41-.58s.52-.93.52-1.62v-.63l-.97.05c-.78.04-1.34.18-1.67.42s-.5.6-.5,1.1c0,.4.11.71.32.93s.52.33.91.33Z"/>
        <path class="cls-4" d="m114.32,221.12c-.8,0-1.42-.29-1.87-.86s-.68-1.38-.68-2.4.23-1.88.7-2.46c.47-.59,1.11-.88,1.92-.88.48,0,.94.1,1.38.29l-.14.52c-.48-.18-.9-.28-1.26-.28-.68,0-1.2.24-1.55.72s-.53,1.18-.53,2.08c0,.86.18,1.53.53,2.02s.84.73,1.48.73c.51,0,.98-.1,1.41-.31v.54c-.36.2-.82.3-1.4.3Z"/>
        <path class="cls-4" d="m121.46,217.81c0,1.04-.22,1.85-.66,2.43-.44.58-1.05.88-1.83.88-.49,0-.92-.13-1.29-.4-.37-.27-.66-.66-.86-1.16-.2-.5-.3-1.09-.3-1.75,0-1.04.22-1.85.66-2.43.44-.58,1.05-.87,1.82-.87s1.37.29,1.8.88c.44.59.65,1.39.65,2.42Zm-4.4,0c0,.88.17,1.56.5,2.05s.81.74,1.43.74,1.09-.25,1.43-.74c.34-.49.51-1.17.51-2.05s-.17-1.56-.51-2.04c-.34-.48-.82-.73-1.43-.73s-1.09.24-1.42.72-.5,1.17-.5,2.05Z"/>
        <path class="cls-4" d="m129.74,221v-4.18c0-.62-.11-1.07-.32-1.36s-.54-.43-.97-.43c-.57,0-.99.18-1.27.54s-.41.92-.41,1.69v3.73h-.52v-4.35c0-1.07-.43-1.61-1.29-1.61-.58,0-1.01.19-1.28.58s-.4,1.01-.4,1.87v3.52h-.51v-6.37h.42l.11.87h.03c.15-.32.37-.56.66-.74.28-.17.6-.26.94-.26.88,0,1.44.38,1.69,1.13h.02c.18-.36.42-.64.73-.84.31-.2.65-.29,1.04-.29.61,0,1.07.19,1.37.56.3.37.46.96.46,1.77v4.17h-.5Z"/>
        <path class="cls-4" d="m138.78,221v-4.18c0-.62-.11-1.07-.32-1.36s-.54-.43-.97-.43c-.57,0-.99.18-1.27.54s-.41.92-.41,1.69v3.73h-.52v-4.35c0-1.07-.43-1.61-1.29-1.61-.58,0-1.01.19-1.28.58s-.4,1.01-.4,1.87v3.52h-.51v-6.37h.42l.11.87h.03c.15-.32.37-.56.66-.74.28-.17.6-.26.94-.26.88,0,1.44.38,1.69,1.13h.02c.18-.36.42-.64.73-.84.31-.2.65-.29,1.04-.29.61,0,1.07.19,1.37.56.3.37.46.96.46,1.77v4.17h-.5Z"/>
        <path class="cls-4" d="m145.47,217.81c0,1.04-.22,1.85-.66,2.43-.44.58-1.05.88-1.83.88-.49,0-.92-.13-1.29-.4-.37-.27-.66-.66-.86-1.16-.2-.5-.3-1.09-.3-1.75,0-1.04.22-1.85.66-2.43.44-.58,1.05-.87,1.82-.87s1.37.29,1.8.88c.44.59.65,1.39.65,2.42Zm-4.4,0c0,.88.17,1.56.5,2.05s.81.74,1.43.74,1.09-.25,1.43-.74c.34-.49.51-1.17.51-2.05s-.17-1.56-.51-2.04c-.34-.48-.82-.73-1.43-.73s-1.09.24-1.42.72-.5,1.17-.5,2.05Z"/>
        <path class="cls-4" d="m148.82,214.51c.4,0,.75.08,1.05.25s.56.46.79.86h.03c-.02-.49-.03-.97-.03-1.45v-2.29h.5v9.12h-.33l-.13-.97h-.04c-.42.73-1.03,1.09-1.83,1.09s-1.36-.27-1.76-.82c-.41-.55-.61-1.34-.61-2.39,0-1.1.2-1.94.61-2.53.4-.58.99-.87,1.76-.87Zm0,.53c-.61,0-1.07.24-1.37.73s-.46,1.2-.46,2.13c0,1.8.61,2.71,1.84,2.71.63,0,1.09-.21,1.38-.63s.44-1.11.44-2.07v-.1c0-.98-.14-1.69-.43-2.12s-.76-.65-1.4-.65Z"/>
        <path class="cls-4" d="m157.41,217.81c0,1.04-.22,1.85-.66,2.43-.44.58-1.05.88-1.83.88-.49,0-.92-.13-1.29-.4-.37-.27-.66-.66-.86-1.16-.2-.5-.3-1.09-.3-1.75,0-1.04.22-1.85.66-2.43.44-.58,1.05-.87,1.82-.87s1.37.29,1.8.88c.44.59.65,1.39.65,2.42Zm-4.4,0c0,.88.17,1.56.5,2.05s.81.74,1.43.74,1.09-.25,1.43-.74c.34-.49.51-1.17.51-2.05s-.17-1.56-.51-2.04c-.34-.48-.82-.73-1.43-.73s-1.09.24-1.42.72-.5,1.17-.5,2.05Z"/>
        <path class="cls-4" d="m163.45,221.12c-.8,0-1.42-.29-1.87-.86s-.68-1.38-.68-2.4.23-1.88.7-2.46c.47-.59,1.11-.88,1.92-.88.48,0,.94.1,1.38.29l-.14.52c-.48-.18-.9-.28-1.26-.28-.68,0-1.2.24-1.55.72s-.53,1.18-.53,2.08c0,.86.18,1.53.53,2.02s.84.73,1.48.73c.51,0,.98-.1,1.41-.31v.54c-.36.2-.82.3-1.4.3Z"/>
        <path class="cls-4" d="m170.59,217.81c0,1.04-.22,1.85-.66,2.43-.44.58-1.05.88-1.83.88-.49,0-.92-.13-1.29-.4-.37-.27-.66-.66-.86-1.16-.2-.5-.3-1.09-.3-1.75,0-1.04.22-1.85.66-2.43.44-.58,1.05-.87,1.82-.87s1.37.29,1.8.88c.44.59.65,1.39.65,2.42Zm-4.4,0c0,.88.17,1.56.5,2.05s.81.74,1.43.74,1.09-.25,1.43-.74c.34-.49.51-1.17.51-2.05s-.17-1.56-.51-2.04c-.34-.48-.82-.73-1.43-.73s-1.09.24-1.42.72-.5,1.17-.5,2.05Z"/>
        <path class="cls-4" d="m175.79,221v-4.13c0-.64-.12-1.11-.35-1.4-.24-.29-.6-.44-1.1-.44-.67,0-1.15.19-1.46.58s-.46,1.01-.46,1.87v3.52h-.51v-6.37h.43l.1.87h.03c.36-.66,1.01-1,1.93-1,1.26,0,1.9.78,1.9,2.33v4.17h-.5Z"/>
        <path class="cls-4" d="m181.33,219.34c0,.57-.19,1.01-.57,1.32-.38.31-.92.46-1.62.46-.75,0-1.34-.13-1.77-.39v-.63c.56.32,1.15.48,1.77.48.55,0,.97-.1,1.25-.31s.43-.49.43-.83c0-.32-.11-.59-.34-.81-.23-.22-.6-.43-1.12-.64-.56-.23-.95-.43-1.17-.59s-.4-.35-.51-.56-.17-.46-.17-.76c0-.48.17-.85.53-1.13s.84-.42,1.47-.42,1.17.13,1.71.39l-.19.53c-.55-.26-1.05-.39-1.52-.39s-.82.09-1.08.26-.4.41-.4.71c0,.33.1.6.31.8s.61.42,1.21.67c.5.21.87.39,1.1.56.23.17.4.35.51.57.12.21.17.46.17.74Z"/>
        <path class="cls-4" d="m184.78,221.12c-.81,0-1.44-.29-1.89-.86s-.68-1.37-.68-2.4.22-1.83.66-2.44,1.03-.92,1.77-.92c.66,0,1.17.26,1.55.79.38.52.57,1.23.57,2.13v.47h-4.02c0,.88.19,1.54.54,2s.85.69,1.5.69c.32,0,.6-.03.84-.08s.55-.16.92-.33v.53c-.31.16-.6.26-.87.32-.27.06-.56.08-.88.08Zm-.15-6.09c-.54,0-.97.2-1.29.61-.33.4-.51.99-.57,1.75h3.45c0-.74-.14-1.32-.42-1.73s-.67-.62-1.16-.62Z"/>
        <path class="cls-4" d="m190.05,221.12c-.73,0-1.3-.28-1.7-.83-.4-.55-.61-1.36-.61-2.4s.2-1.91.61-2.49c.4-.59.98-.88,1.73-.88.81,0,1.41.34,1.81,1.02h.03l.09-.9h.43v9.25h-.5v-2.43c0-.48,0-.96.03-1.45h-.03c-.4.74-1.03,1.11-1.89,1.11Zm.01-.52c.68,0,1.16-.21,1.45-.64s.43-1.14.43-2.14v-.07c0-.96-.15-1.65-.44-2.07-.29-.43-.75-.64-1.39-.64-.6,0-1.06.24-1.37.73-.31.48-.47,1.2-.47,2.13s.15,1.57.46,2.02.75.68,1.33.68Z"/>
        <path class="cls-4" d="m194.53,214.63v4.12c0,.64.12,1.11.35,1.4.24.29.6.44,1.1.44.66,0,1.15-.19,1.46-.57s.47-1.01.47-1.87v-3.52h.5v6.37h-.43l-.09-.88h-.03c-.36.66-1.01,1-1.93,1-1.27,0-1.9-.78-1.9-2.33v-4.16h.5Z"/>
        <path class="cls-4" d="m203.44,221l-.13-1.01h-.04c-.28.41-.57.7-.86.87-.3.17-.65.25-1.05.25-.55,0-.97-.16-1.28-.48s-.46-.76-.46-1.33c0-.62.23-1.1.68-1.45.45-.34,1.11-.53,1.97-.54l1.06-.04v-.42c0-.61-.11-1.06-.32-1.37-.22-.31-.56-.46-1.04-.46-.52,0-1.05.16-1.61.49l-.19-.5c.61-.33,1.22-.49,1.82-.49s1.07.18,1.37.54c.3.36.45.93.45,1.7v4.24h-.37Zm-2.05-.41c.59,0,1.06-.19,1.41-.58s.52-.93.52-1.62v-.63l-.97.05c-.78.04-1.34.18-1.67.42s-.5.6-.5,1.1c0,.4.11.71.32.93s.52.33.91.33Z"/>
        <path class="cls-4" d="m206.86,220.6c.32,0,.6-.03.84-.09v.47c-.25.09-.53.14-.85.14-.49,0-.86-.15-1.09-.45-.23-.3-.35-.77-.35-1.42v-4.11h-.83v-.34l.83-.26.26-1.44h.26v1.54h1.64v.5h-1.64v4.03c0,.49.08.85.23,1.08s.39.35.71.35Z"/>
        <path class="cls-4" d="m208.57,220.55c0-.38.14-.57.41-.57s.42.19.42.57-.14.57-.42.57-.41-.19-.41-.57Z"/>
      </g>
    </g>
  </g>
</svg>