<?xml version="1.0" encoding="UTF-8"?>
<svg id="Capa_2" data-name="Capa 2" xmlns="http://www.w3.org/2000/svg" xmlns:xlink="http://www.w3.org/1999/xlink" viewBox="0 0 228 279">
  <defs>
    <style>
      .cls-1 {
        letter-spacing: .81em;
      }

      .cls-2 {
        letter-spacing: -.04em;
      }

      .cls-3 {
        letter-spacing: .83em;
      }

      .cls-4 {
        letter-spacing: .2em;
      }

      .cls-5 {
        fill: #b9b7cd;
      }

      .cls-5, .cls-6, .cls-7 {
        stroke-width: 0px;
      }

      .cls-8 {
        letter-spacing: .79em;
      }

      .cls-6 {
        fill: #eeedf2;
      }

      .cls-9 {
        letter-spacing: .18em;
      }

      .cls-10 {
        fill: #1d1d1b;
        font-family: OpenSans-Light, 'Open Sans';
        font-size: 12px;
        font-weight: 300;
      }

      .cls-11 {
        letter-spacing: -.04em;
      }

      .cls-12 {
        letter-spacing: .79em;
      }

      .cls-13 {
        letter-spacing: .18em;
      }

      .cls-14 {
        letter-spacing: -.02em;
      }

      .cls-15 {
        letter-spacing: -.02em;
      }

      .cls-16 {
        letter-spacing: .81em;
      }

      .cls-17 {
        letter-spacing: .48em;
      }

      .cls-7 {
        fill: #fff;
        filter: url(#outer-glow-1);
      }

      .cls-18 {
        letter-spacing: .83em;
      }

      .cls-19 {
        letter-spacing: .48em;
      }
    </style>
    <filter id="outer-glow-1" filterUnits="userSpaceOnUse">
      <feOffset dx="0" dy="0"/>
      <feGaussianBlur result="blur" stdDeviation="5"/>
      <feFlood flood-color="#000" flood-opacity=".48"/>
      <feComposite in2="blur" operator="in"/>
      <feComposite in="SourceGraphic"/>
    </filter>
  </defs>
  <g id="Capa_1-2" data-name="Capa 1">
    <g>
      <rect class="cls-7" x="15.15" y="15.83" width="197.45" height="247.49" rx="8" ry="8"/>
      <g>
        <rect class="cls-6" x="32.6" y="38.3" width="157.28" height="56.51" rx="2.04" ry="2.04"/>
        <g>
          <path class="cls-5" d="m71.4,87.83s7.48-41.71,25.87-18.62c18.39,23.09,18.05-36.75,31.67-19.86,13.62,16.88,25.53,38.48,25.53,38.48h-83.06Z"/>
          <rect class="cls-5" x="91.49" y="42.55" width="21.45" height="21.45" rx="10.72" ry="10.72"/>
        </g>
      </g>
      <text class="cls-10" transform="translate(33.36 119.25) scale(.88 1)"><tspan class="cls-14" x="0" y="0">Lorem</tspan><tspan class="cls-8" x="33.72" y="0"> </tspan><tspan class="cls-14" x="46.36" y="0">ipsum</tspan><tspan class="cls-12" x="78.16" y="0"> </tspan><tspan class="cls-15" x="90.81" y="0">dolor</tspan><tspan class="cls-8" x="118.07" y="0"> </tspan><tspan class="cls-15" x="130.72" y="0">sit</tspan><tspan class="cls-8" x="142.25" y="0"> </tspan><tspan class="cls-14" x="154.9" y="0">amet, </tspan><tspan class="cls-14" x="0" y="18">consectetur</tspan><tspan class="cls-4" x="61.16" y="18"> </tspan><tspan class="cls-15" x="66.73" y="18">adipiscing</tspan><tspan class="cls-4" x="117.52" y="18"> </tspan><tspan class="cls-14" x="123.1" y="18">elit,</tspan><tspan class="cls-4" x="140.39" y="18"> </tspan><tspan class="cls-14" x="145.96" y="18">sed</tspan><tspan class="cls-4" x="164.49" y="18"> </tspan><tspan class="cls-14" x="170.07" y="18">do </tspan><tspan class="cls-14" x="0" y="36">eiusmod</tspan><tspan class="cls-3" x="44.89" y="36"> </tspan><tspan class="cls-14" x="57.91" y="36">tempor</tspan><tspan class="cls-18" x="96.37" y="36"> </tspan><tspan class="cls-14" x="109.39" y="36">incididunt</tspan><tspan class="cls-3" x="160.12" y="36"> </tspan><tspan class="cls-14" x="173.14" y="36">ut </tspan><tspan class="cls-14" x="0" y="54">labore</tspan><tspan class="cls-9" x="32.92" y="54"> </tspan><tspan class="cls-14" x="38.18" y="54">et</tspan><tspan class="cls-13" x="48.25" y="54"> </tspan><tspan class="cls-14" x="53.51" y="54">dolore</tspan><tspan class="cls-9" x="87.1" y="54"> </tspan><tspan class="cls-14" x="92.36" y="54">magna</tspan><tspan class="cls-13" x="127.7" y="54"> </tspan><tspan class="cls-14" x="132.96" y="54">aliqua.</tspan><tspan class="cls-13" x="166.33" y="54"> </tspan><tspan class="cls-15" x="171.59" y="54">Ut </tspan><tspan class="cls-14" x="0" y="72">enim</tspan><tspan class="cls-1" x="25.92" y="72"> </tspan><tspan class="cls-14" x="38.77" y="72">ad</tspan><tspan class="cls-1" x="51.74" y="72"> </tspan><tspan class="cls-15" x="64.6" y="72">minim</tspan><tspan class="cls-1" x="96.97" y="72"> </tspan><tspan class="cls-15" x="109.82" y="72">veniam,</tspan><tspan class="cls-16" x="149.39" y="72"> </tspan><tspan class="cls-14" x="162.24" y="72">quis </tspan><tspan class="cls-14" x="0" y="90">nostrud</tspan><tspan class="cls-2" x="40.76" y="90"> </tspan><tspan class="cls-15" x="43.41" y="90">exercitation</tspan><tspan class="cls-11" x="103.7" y="90"> </tspan><tspan class="cls-14" x="106.35" y="90">ullamco</tspan><tspan class="cls-2" x="146.69" y="90"> </tspan><tspan class="cls-15" x="149.34" y="90">laboris </tspan><tspan class="cls-14" x="0" y="108">nisi</tspan><tspan class="cls-17" x="17.04" y="108"> </tspan><tspan class="cls-15" x="25.91" y="108">ut</tspan><tspan class="cls-17" x="36.48" y="108"> </tspan><tspan class="cls-15" x="45.35" y="108">aliquip</tspan><tspan class="cls-19" x="79.36" y="108"> </tspan><tspan class="cls-14" x="88.24" y="108">ex</tspan><tspan class="cls-17" x="100.27" y="108"> </tspan><tspan class="cls-15" x="109.15" y="108">ea</tspan><tspan class="cls-17" x="121.56" y="108"> </tspan><tspan class="cls-15" x="130.43" y="108">commodo </tspan><tspan class="cls-14"><tspan x="0" y="126">consequat.</tspan></tspan></text>
    </g>
  </g>
</svg>