<svg xmlns="http://www.w3.org/2000/svg" x="0px" y="0px" viewBox="6.386300086975098 9.628899574279785 35.227298736572266 28.742076873779297" enable-background="new 0 0 48 48">
<g>
	
		<path fill="#FFFFFF" stroke="#000000" stroke-width="1" stroke-linecap="round" stroke-linejoin="round" stroke-miterlimit="10" d="   M34.6266,32.3044H10.7115c-2.1126,0-3.8252-1.7126-3.8252-3.8252V13.9541c0-2.1126,1.7126-3.8252,3.8252-3.8252h23.9151   c2.1126,0,3.8252,1.7126,3.8252,3.8252v14.5251C38.4517,30.5918,36.7392,32.3044,34.6266,32.3044z"/>
</g>
<g>
	<g>
	</g>
	<g>
		
			<path fill="#FFFFFF" stroke="#536DFE" stroke-width="1" stroke-linecap="round" stroke-linejoin="round" stroke-miterlimit="10" d="    M26.7943,22.3063L26.7943,22.3063c0,0.688-0.6153,1.2458-1.3743,1.2458h-5.4681c-0.759,0-1.3743-0.5578-1.3743-1.2458v0    c0-1.6626,1.4868-3.0105,3.321-3.0105h1.5748C25.3074,19.2959,26.7943,20.6437,26.7943,22.3063z"/>
		
			<circle fill="#FFFFFF" stroke="#536DFE" stroke-width="1" stroke-linecap="round" stroke-linejoin="round" stroke-miterlimit="10" cx="22.6859" cy="15.7891" r="2.097"/>
	</g>
	
		<path fill="#FFFFFF" stroke="#536DFE" stroke-width="1" stroke-linecap="round" stroke-linejoin="round" stroke-miterlimit="10" d="   M40.0921,35.0364l-2.4258,2.1073c-1.1163,0.9697-2.7762,0.9697-3.8926,0l-2.4258-2.1073c-0.6489-0.5637-1.0215-1.381-1.0215-2.2405   v-4.6684c0-1.6391,1.3287-2.9678,2.9678-2.9678h4.8516c1.6391,0,2.9678,1.3287,2.9678,2.9678v4.6684   C41.1136,33.6555,40.741,34.4728,40.0921,35.0364z"/>
	
		<polyline fill="none" stroke="#536DFE" stroke-width="1" stroke-linecap="round" stroke-linejoin="round" stroke-miterlimit="10" points="   33.8513,31.3382 35.0822,32.5691 37.5888,30.0625  "/>
</g>
<g>
	
		<line fill="none" stroke="#000000" stroke-width="1" stroke-linecap="round" stroke-linejoin="round" stroke-miterlimit="10" x1="10.708" y1="13.4406" x2="10.708" y2="13.4406"/>
	
		<line fill="none" stroke="#000000" stroke-width="1" stroke-linecap="round" stroke-linejoin="round" stroke-miterlimit="10" x1="13.4538" y1="13.4406" x2="13.4538" y2="13.4406"/>
	<path fill="none" stroke="#000000" stroke-width="1" stroke-linecap="round" stroke-linejoin="round" stroke-miterlimit="10" d="   M25.0634,29.0659h-4.7887c-0.5819,0-1.0535-0.4717-1.0535-1.0535v-0.471c0-0.5819,0.4717-1.0535,1.0535-1.0535h4.7887   c0.5819,0,1.0535,0.4717,1.0535,1.0535v0.471C26.1169,28.5942,25.6453,29.0659,25.0634,29.0659z"/>
</g>
</svg>